  0
SECTION
  2
HEADER
  9
$ACADVER
  1
AC1014
  9
$HANDSEED
  5
FFFF
  9
$INSUNITS
 70
     4
  9
$MEASUREMENT
 70
     1
  0
ENDSEC
  0
SECTION
  2
TABLES
  0
TABLE
  2
VPORT
  5
8
330
0
100
AcDbSymbolTable
 70
     4
  0
VPORT
  5
2E
330
8
100
AcDbSymbolTableRecord
100
AcDbViewportTableRecord
  2
*ACTIVE
 70
     0
 10
0.0
 20
0.0
 11
1.0
 21
1.0
 12
210.0
 22
148.5
 13
0.0
 23
0.0
 14
10.0
 24
10.0
 15
10.0
 25
10.0
 16
0.0
 26
0.0
 36
1.0
 17
0.0
 27
0.0
 37
0.0
 40
341.0
 41
1.24
 42
50.0
 43
0.0
 44
0.0
 50
0.0
 51
0.0
 71
     0
 72
   100
 73
     1
 74
     3
 75
     0
 76
     0
 77
     0
 78
     0
  0
ENDTAB
  0
TABLE
  2
LTYPE
  5
5
330
0
100
AcDbSymbolTable
 70
     1
  0
LTYPE
  5
14
330
5
100
AcDbSymbolTableRecord
100
AcDbLinetypeTableRecord
  2
BYBLOCK
 70
     0
  3

 72
    65
 73
     0
 40
0.0
  0
LTYPE
  5
15
330
5
100
AcDbSymbolTableRecord
100
AcDbLinetypeTableRecord
  2
BYLAYER
 70
     0
  3

 72
    65
 73
     0
 40
0.0
  0
LTYPE
  5
16
330
5
100
AcDbSymbolTableRecord
100
AcDbLinetypeTableRecord
  2
CONTINUOUS
 70
     0
  3
Solid line
 72
    65
 73
     0
 40
0.0
  0
ENDTAB
  0
TABLE
  2
LAYER
  5
2
100
AcDbSymbolTable
 70
1
  0
LAYER
  5
50
100
AcDbSymbolTableRecord
100
AcDbLayerTableRecord
  2
0
 70
0
  6
CONTINUOUS
  0
ENDTAB
  0
TABLE
  2
STYLE
  5
3
330
0
100
AcDbSymbolTable
 70
     1
  0
STYLE
  5
11
330
3
100
AcDbSymbolTableRecord
100
AcDbTextStyleTableRecord
  2
STANDARD
 70
     0
 40
0.0
 41
1.0
 50
0.0
 71
     0
 42
2.5
  3
txt
  4

  0
ENDTAB
  0
TABLE
  2
VIEW
  5
6
330
0
100
AcDbSymbolTable
 70
     0
  0
ENDTAB
  0
TABLE
  2
UCS
  5
7
330
0
100
AcDbSymbolTable
 70
     0
  0
ENDTAB
  0
TABLE
  2
APPID
  5
9
330
0
100
AcDbSymbolTable
 70
     2
  0
APPID
  5
12
330
9
100
AcDbSymbolTableRecord
100
AcDbRegAppTableRecord
  2
ACAD
 70
     0
  0
ENDTAB
  0
TABLE
  2
DIMSTYLE
  5
A
330
0
100
AcDbSymbolTable
 70
     1
  0
DIMSTYLE
105
27
330
A
100
AcDbSymbolTableRecord
100
AcDbDimStyleTableRecord
  2
ISO-25
 70
     0
  3

  4

  5

  6

  7

 40
1.0
 41
2.5
 42
0.625
 43
3.75
 44
1.25
 45
0.0
 46
0.0
 47
0.0
 48
0.0
140
2.5
141
2.5
142
0.0
143
0.03937007874016
144
1.0
145
0.0
146
1.0
147
0.625
 71
     0
 72
     0
 73
     0
 74
     0
 75
     0
 76
     0
 77
     1
 78
     8
170
     0
171
     3
172
     1
173
     0
174
     0
175
     0
176
     0
177
     0
178
     0
270
     2
271
     2
272
     2
273
     2
274
     3
340
11
275
     0
280
     0
281
     0
282
     0
283
     0
284
     8
285
     0
286
     0
287
     3
288
     0
  0
ENDTAB
  0
TABLE
  2
BLOCK_RECORD
  5
1
330
0
100
AcDbSymbolTable
 70
     1
  0
BLOCK_RECORD
  5
1F
330
1
100
AcDbSymbolTableRecord
100
AcDbBlockTableRecord
  2
*MODEL_SPACE
  0
BLOCK_RECORD
  5
1B
330
1
100
AcDbSymbolTableRecord
100
AcDbBlockTableRecord
  2
*PAPER_SPACE
  0
ENDTAB
  0
ENDSEC
  0
SECTION
  2
BLOCKS
  0
BLOCK
  5
20
330
1F
100
AcDbEntity
  8
0
100
AcDbBlockBegin
  2
*MODEL_SPACE
 70
     0
 10
0.0
 20
0.0
 30
0.0
  3
*MODEL_SPACE
  1

  0
ENDBLK
  5
21
330
1F
100
AcDbEntity
  8
0
100
AcDbBlockEnd
  0
BLOCK
  5
1C
330
1B
100
AcDbEntity
 67
     1
  8
0
100
AcDbBlockBegin
  2
*PAPER_SPACE
  1

  0
ENDBLK
  5
1D
330
1B
100
AcDbEntity
 67
     1
  8
0
100
AcDbBlockEnd
  0
ENDSEC
  0
SECTION
  2
ENTITIES
  0
LWPOLYLINE
  5
100
100
AcDbEntity
  8
0
 62
7
100
AcDbPolyline
 90
86
 70
1
 10
149.000000
 20
329.049995
 30
0.0
 10
149.000000
 20
326.049995
 30
0.0
 10
152.501999
 20
326.049995
 30
0.0
 10
155.003006
 20
326.049995
 30
0.0
 10
158.750000
 20
326.049995
 30
0.0
 10
158.750000
 20
320.101997
 30
0.0
 10
158.750000
 20
317.799995
 30
0.0
 10
161.750000
 20
317.799995
 30
0.0
 10
161.750000
 20
301.000000
 30
0.0
 10
158.750000
 20
301.000000
 30
0.0
 10
158.750000
 20
298.602997
 30
0.0
 10
158.750000
 20
295.601997
 30
0.0
 10
158.750000
 20
292.601997
 30
0.0
 10
158.750000
 20
291.601997
 30
0.0
 10
158.750000
 20
288.600998
 30
0.0
 10
158.750000
 20
284.799995
 30
0.0
 10
161.750000
 20
284.799995
 30
0.0
 10
161.750000
 20
284.600998
 30
0.0
 10
161.750000
 20
281.600998
 30
0.0
 10
161.750000
 20
281.136002
 30
0.0
 10
161.750000
 20
277.599998
 30
0.0
 10
161.750000
 20
274.599998
 30
0.0
 10
161.750000
 20
270.598999
 30
0.0
 10
161.750000
 20
268.000000
 30
0.0
 10
158.750000
 20
268.000000
 30
0.0
 10
158.750000
 20
267.598999
 30
0.0
 10
158.750000
 20
263.598999
 30
0.0
 10
158.750000
 20
260.598000
 30
0.0
 10
158.750000
 20
256.598000
 30
0.0
 10
158.750000
 20
253.598000
 30
0.0
 10
158.750000
 20
251.799999
 30
0.0
 10
161.750000
 20
251.799999
 30
0.0
 10
161.750000
 20
234.999998
 30
0.0
 10
158.750000
 20
234.999998
 30
0.0
 10
158.750000
 20
229.597999
 30
0.0
 10
158.750000
 20
226.749998
 30
0.0
 10
152.501999
 20
226.749998
 30
0.0
 10
149.000000
 20
226.749998
 30
0.0
 10
149.000000
 20
223.749998
 30
0.0
 10
132.199997
 20
223.749998
 30
0.0
 10
132.199997
 20
226.749998
 30
0.0
 10
131.072006
 20
226.749998
 30
0.0
 10
116.000000
 20
226.749998
 30
0.0
 10
116.000000
 20
223.749998
 30
0.0
 10
99.199997
 20
223.749998
 30
0.0
 10
99.199997
 20
226.749998
 30
0.0
 10
91.998001
 20
226.749998
 30
0.0
 10
89.449997
 20
226.749998
 30
0.0
 10
89.449997
 20
234.999998
 30
0.0
 10
86.449997
 20
234.999998
 30
0.0
 10
86.449997
 20
248.368000
 30
0.0
 10
86.449997
 20
251.799999
 30
0.0
 10
89.449997
 20
251.799999
 30
0.0
 10
89.449997
 20
253.598000
 30
0.0
 10
89.449997
 20
256.598000
 30
0.0
 10
89.449997
 20
260.598000
 30
0.0
 10
89.449997
 20
263.598999
 30
0.0
 10
89.449997
 20
267.598999
 30
0.0
 10
89.449997
 20
268.000000
 30
0.0
 10
86.449997
 20
268.000000
 30
0.0
 10
86.449997
 20
270.598999
 30
0.0
 10
86.449997
 20
274.599998
 30
0.0
 10
86.449997
 20
277.599998
 30
0.0
 10
86.449997
 20
281.136002
 30
0.0
 10
86.449997
 20
281.600998
 30
0.0
 10
86.449997
 20
284.600998
 30
0.0
 10
86.449997
 20
284.799995
 30
0.0
 10
89.449997
 20
284.799995
 30
0.0
 10
89.449997
 20
288.600998
 30
0.0
 10
89.449997
 20
291.601997
 30
0.0
 10
89.449997
 20
295.601997
 30
0.0
 10
89.449997
 20
298.602997
 30
0.0
 10
89.449997
 20
301.000000
 30
0.0
 10
86.449997
 20
301.000000
 30
0.0
 10
86.449997
 20
317.799995
 30
0.0
 10
89.449997
 20
317.799995
 30
0.0
 10
89.449997
 20
326.049995
 30
0.0
 10
91.998001
 20
326.049995
 30
0.0
 10
94.498001
 20
326.049995
 30
0.0
 10
99.199997
 20
326.049995
 30
0.0
 10
99.199997
 20
329.049995
 30
0.0
 10
116.000000
 20
329.049995
 30
0.0
 10
116.000000
 20
326.049995
 30
0.0
 10
131.072006
 20
326.049995
 30
0.0
 10
132.199997
 20
326.049995
 30
0.0
 10
132.199997
 20
329.049995
 30
0.0
  0
LWPOLYLINE
  5
101
100
AcDbEntity
  8
0
 62
7
100
AcDbPolyline
 90
60
 70
1
 10
158.750000
 20
217.749999
 30
0.0
 10
158.750000
 20
215.599998
 30
0.0
 10
158.750000
 20
212.101999
 30
0.0
 10
158.750000
 20
209.499999
 30
0.0
 10
161.750000
 20
209.499999
 30
0.0
 10
161.750000
 20
192.699999
 30
0.0
 10
158.750000
 20
192.699999
 30
0.0
 10
158.750000
 20
176.500000
 30
0.0
 10
161.750000
 20
176.500000
 30
0.0
 10
161.750000
 20
159.699997
 30
0.0
 10
158.750000
 20
159.699997
 30
0.0
 10
158.750000
 20
143.500000
 30
0.0
 10
161.750000
 20
143.500000
 30
0.0
 10
161.750000
 20
126.699997
 30
0.0
 10
158.750000
 20
126.699997
 30
0.0
 10
158.750000
 20
121.597000
 30
0.0
 10
158.750000
 20
118.449997
 30
0.0
 10
152.501999
 20
118.449997
 30
0.0
 10
149.000000
 20
118.449997
 30
0.0
 10
149.000000
 20
115.449997
 30
0.0
 10
132.199997
 20
115.449997
 30
0.0
 10
132.199997
 20
118.449997
 30
0.0
 10
131.072006
 20
118.449997
 30
0.0
 10
116.000000
 20
118.449997
 30
0.0
 10
116.000000
 20
115.449997
 30
0.0
 10
99.199997
 20
115.449997
 30
0.0
 10
99.199997
 20
118.449997
 30
0.0
 10
98.304001
 20
118.449997
 30
0.0
 10
91.998001
 20
118.449997
 30
0.0
 10
89.449997
 20
118.449997
 30
0.0
 10
89.449997
 20
125.199997
 30
0.0
 10
89.449997
 20
126.699997
 30
0.0
 10
86.449997
 20
126.699997
 30
0.0
 10
86.449997
 20
143.500000
 30
0.0
 10
89.449997
 20
143.500000
 30
0.0
 10
89.449997
 20
148.750000
 30
0.0
 10
89.449997
 20
150.063995
 30
0.0
 10
89.449997
 20
159.699997
 30
0.0
 10
86.449997
 20
159.699997
 30
0.0
 10
86.449997
 20
164.500000
 30
0.0
 10
86.449997
 20
176.500000
 30
0.0
 10
89.449997
 20
176.500000
 30
0.0
 10
89.449997
 20
181.299999
 30
0.0
 10
89.449997
 20
182.831997
 30
0.0
 10
89.449997
 20
191.049999
 30
0.0
 10
89.449997
 20
192.699999
 30
0.0
 10
86.449997
 20
192.699999
 30
0.0
 10
86.449997
 20
209.499999
 30
0.0
 10
89.449997
 20
209.499999
 30
0.0
 10
89.449997
 20
215.599998
 30
0.0
 10
89.449997
 20
217.749999
 30
0.0
 10
99.199997
 20
217.749999
 30
0.0
 10
99.199997
 20
220.749999
 30
0.0
 10
116.000000
 20
220.749999
 30
0.0
 10
116.000000
 20
217.749999
 30
0.0
 10
131.072006
 20
217.749999
 30
0.0
 10
132.199997
 20
217.749999
 30
0.0
 10
132.199997
 20
220.749999
 30
0.0
 10
149.000000
 20
220.749999
 30
0.0
 10
149.000000
 20
217.749999
 30
0.0
  0
LWPOLYLINE
  5
102
100
AcDbEntity
  8
0
 62
7
100
AcDbPolyline
 90
48
 70
1
 10
80.449997
 20
191.049999
 30
0.0
 10
80.449997
 20
182.831997
 30
0.0
 10
80.449997
 20
181.299999
 30
0.0
 10
83.449997
 20
181.299999
 30
0.0
 10
83.449997
 20
176.500000
 30
0.0
 10
83.449997
 20
164.500000
 30
0.0
 10
80.449997
 20
164.500000
 30
0.0
 10
80.449997
 20
154.750000
 30
0.0
 10
72.502998
 20
154.750000
 30
0.0
 10
71.900002
 20
154.750000
 30
0.0
 10
71.900002
 20
157.750000
 30
0.0
 10
65.536003
 20
157.750000
 30
0.0
 10
55.700001
 20
157.750000
 30
0.0
 10
55.700001
 20
154.750000
 30
0.0
 10
38.900002
 20
154.750000
 30
0.0
 10
38.900002
 20
157.750000
 30
0.0
 10
22.700001
 20
157.750000
 30
0.0
 10
22.700001
 20
154.750000
 30
0.0
 10
7.498000
 20
154.750000
 30
0.0
 10
5.900000
 20
154.750000
 30
0.0
 10
5.900000
 20
157.750000
 30
0.0
 10
0.000000
 20
157.750000
 30
0.0
 10
-10.300000
 20
157.750000
 30
0.0
 10
-10.300000
 20
154.750000
 30
0.0
 10
-18.850000
 20
154.750000
 30
0.0
 10
-18.850000
 20
157.750000
 30
0.0
 10
-18.850000
 20
164.500000
 30
0.0
 10
-21.850000
 20
164.500000
 30
0.0
 10
-21.850000
 20
164.799999
 30
0.0
 10
-21.850000
 20
166.447998
 30
0.0
 10
-21.850000
 20
181.299999
 30
0.0
 10
-18.850000
 20
181.299999
 30
0.0
 10
-18.850000
 20
182.831997
 30
0.0
 10
-18.850000
 20
191.049999
 30
0.0
 10
-10.300000
 20
191.049999
 30
0.0
 10
-10.300000
 20
188.049999
 30
0.0
 10
0.000000
 20
188.049999
 30
0.0
 10
5.900000
 20
188.049999
 30
0.0
 10
5.900000
 20
191.049999
 30
0.0
 10
22.700001
 20
191.049999
 30
0.0
 10
22.700001
 20
188.049999
 30
0.0
 10
38.900002
 20
188.049999
 30
0.0
 10
38.900002
 20
191.049999
 30
0.0
 10
55.700001
 20
191.049999
 30
0.0
 10
55.700001
 20
188.049999
 30
0.0
 10
65.536003
 20
188.049999
 30
0.0
 10
71.900002
 20
188.049999
 30
0.0
 10
71.900002
 20
191.049999
 30
0.0
  0
LWPOLYLINE
  5
103
100
AcDbEntity
  8
0
 62
7
100
AcDbPolyline
 90
78
 70
1
 10
71.900002
 20
151.750000
 30
0.0
 10
80.449997
 20
151.750000
 30
0.0
 10
80.449997
 20
150.063995
 30
0.0
 10
80.449997
 20
148.750000
 30
0.0
 10
80.449997
 20
143.500000
 30
0.0
 10
80.449997
 20
142.000000
 30
0.0
 10
83.449997
 20
142.000000
 30
0.0
 10
83.449997
 20
125.199997
 30
0.0
 10
80.449997
 20
125.199997
 30
0.0
 10
80.449997
 20
118.449997
 30
0.0
 10
80.449997
 20
115.449997
 30
0.0
 10
71.900002
 20
115.449997
 30
0.0
 10
71.900002
 20
118.449997
 30
0.0
 10
65.536003
 20
118.449997
 30
0.0
 10
64.502998
 20
118.449997
 30
0.0
 10
61.498001
 20
118.449997
 30
0.0
 10
57.502998
 20
118.449997
 30
0.0
 10
55.700001
 20
118.449997
 30
0.0
 10
55.700001
 20
115.449997
 30
0.0
 10
38.900002
 20
115.449997
 30
0.0
 10
38.900002
 20
118.449997
 30
0.0
 10
36.498001
 20
118.449997
 30
0.0
 10
32.501999
 20
118.449997
 30
0.0
 10
29.497999
 20
118.449997
 30
0.0
 10
25.503000
 20
118.449997
 30
0.0
 10
22.700001
 20
118.449997
 30
0.0
 10
22.700001
 20
115.449997
 30
0.0
 10
5.900000
 20
115.449997
 30
0.0
 10
5.900000
 20
118.449997
 30
0.0
 10
3.998000
 20
118.449997
 30
0.0
 10
0.003000
 20
118.449997
 30
0.0
 10
0.000000
 20
118.449997
 30
0.0
 10
-3.003000
 20
118.449997
 30
0.0
 10
-6.998000
 20
118.449997
 30
0.0
 10
-10.003000
 20
118.449997
 30
0.0
 10
-10.300000
 20
118.449997
 30
0.0
 10
-10.300000
 20
115.449997
 30
0.0
 10
-18.850000
 20
115.449997
 30
0.0
 10
-18.850000
 20
118.449997
 30
0.0
 10
-18.850000
 20
125.199997
 30
0.0
 10
-21.850000
 20
125.199997
 30
0.0
 10
-21.850000
 20
125.500000
 30
0.0
 10
-21.850000
 20
141.699997
 30
0.0
 10
-21.850000
 20
142.000000
 30
0.0
 10
-18.850000
 20
142.000000
 30
0.0
 10
-18.850000
 20
150.063995
 30
0.0
 10
-18.850000
 20
151.750000
 30
0.0
 10
-10.300000
 20
151.750000
 30
0.0
 10
-10.300000
 20
150.063995
 30
0.0
 10
-10.300000
 20
148.750000
 30
0.0
 10
-10.003000
 20
148.750000
 30
0.0
 10
-6.998000
 20
148.750000
 30
0.0
 10
-3.003000
 20
148.750000
 30
0.0
 10
0.000000
 20
148.750000
 30
0.0
 10
0.003000
 20
148.750000
 30
0.0
 10
3.998000
 20
148.750000
 30
0.0
 10
5.900000
 20
148.750000
 30
0.0
 10
5.900000
 20
150.063995
 30
0.0
 10
5.900000
 20
151.750000
 30
0.0
 10
22.700001
 20
151.750000
 30
0.0
 10
22.700001
 20
150.063995
 30
0.0
 10
22.700001
 20
148.750000
 30
0.0
 10
25.503000
 20
148.750000
 30
0.0
 10
29.497999
 20
148.750000
 30
0.0
 10
32.501999
 20
148.750000
 30
0.0
 10
36.498001
 20
148.750000
 30
0.0
 10
38.900002
 20
148.750000
 30
0.0
 10
38.900002
 20
150.063995
 30
0.0
 10
38.900002
 20
151.750000
 30
0.0
 10
55.700001
 20
151.750000
 30
0.0
 10
55.700001
 20
150.063995
 30
0.0
 10
55.700001
 20
148.750000
 30
0.0
 10
57.502998
 20
148.750000
 30
0.0
 10
61.498001
 20
148.750000
 30
0.0
 10
64.502998
 20
148.750000
 30
0.0
 10
65.536003
 20
148.750000
 30
0.0
 10
71.900002
 20
148.750000
 30
0.0
 10
71.900002
 20
150.063995
 30
0.0
  0
LWPOLYLINE
  5
104
100
AcDbEntity
  8
0
 62
7
100
AcDbPolyline
 90
37
 70
1
 10
-24.850000
 20
191.049999
 30
0.0
 10
-24.850000
 20
182.831997
 30
0.0
 10
-24.850000
 20
181.299999
 30
0.0
 10
-24.850000
 20
181.000000
 30
0.0
 10
-27.850000
 20
181.000000
 30
0.0
 10
-27.850000
 20
166.447998
 30
0.0
 10
-27.850000
 20
164.799999
 30
0.0
 10
-24.850000
 20
164.799999
 30
0.0
 10
-24.850000
 20
154.750000
 30
0.0
 10
-27.850000
 20
154.750000
 30
0.0
 10
-32.768002
 20
154.750000
 30
0.0
 10
-37.900002
 20
154.750000
 30
0.0
 10
-37.900002
 20
157.750000
 30
0.0
 10
-54.099998
 20
157.750000
 30
0.0
 10
-54.099998
 20
154.750000
 30
0.0
 10
-65.536003
 20
154.750000
 30
0.0
 10
-70.900002
 20
154.750000
 30
0.0
 10
-70.900002
 20
157.750000
 30
0.0
 10
-87.099998
 20
157.750000
 30
0.0
 10
-87.099998
 20
154.750000
 30
0.0
 10
-100.150002
 20
154.750000
 30
0.0
 10
-100.150002
 20
157.750000
 30
0.0
 10
-100.150002
 20
164.799999
 30
0.0
 10
-97.150002
 20
164.799999
 30
0.0
 10
-97.150002
 20
181.000000
 30
0.0
 10
-100.150002
 20
181.000000
 30
0.0
 10
-100.150002
 20
182.831997
 30
0.0
 10
-100.150002
 20
191.049999
 30
0.0
 10
-87.099998
 20
191.049999
 30
0.0
 10
-87.099998
 20
188.049999
 30
0.0
 10
-70.900002
 20
188.049999
 30
0.0
 10
-70.900002
 20
191.049999
 30
0.0
 10
-65.536003
 20
191.049999
 30
0.0
 10
-54.099998
 20
191.049999
 30
0.0
 10
-54.099998
 20
188.049999
 30
0.0
 10
-37.900002
 20
188.049999
 30
0.0
 10
-37.900002
 20
191.049999
 30
0.0
  0
LWPOLYLINE
  5
105
100
AcDbEntity
  8
0
 62
7
100
AcDbPolyline
 90
59
 70
1
 10
-24.850000
 20
151.750000
 30
0.0
 10
-24.850000
 20
150.063995
 30
0.0
 10
-24.850000
 20
141.699997
 30
0.0
 10
-27.850000
 20
141.699997
 30
0.0
 10
-27.850000
 20
125.500000
 30
0.0
 10
-24.850000
 20
125.500000
 30
0.0
 10
-24.850000
 20
125.199997
 30
0.0
 10
-24.850000
 20
115.449997
 30
0.0
 10
-32.768002
 20
115.449997
 30
0.0
 10
-37.900002
 20
115.449997
 30
0.0
 10
-37.900002
 20
118.449997
 30
0.0
 10
-39.998001
 20
118.449997
 30
0.0
 10
-42.998001
 20
118.449997
 30
0.0
 10
-46.998001
 20
118.449997
 30
0.0
 10
-49.999001
 20
118.449997
 30
0.0
 10
-53.999001
 20
118.449997
 30
0.0
 10
-54.099998
 20
118.449997
 30
0.0
 10
-54.099998
 20
115.449997
 30
0.0
 10
-65.536003
 20
115.449997
 30
0.0
 10
-70.900002
 20
115.449997
 30
0.0
 10
-70.900002
 20
118.449997
 30
0.0
 10
-71.000999
 20
118.449997
 30
0.0
 10
-75.000999
 20
118.449997
 30
0.0
 10
-78.001999
 20
118.449997
 30
0.0
 10
-82.001999
 20
118.449997
 30
0.0
 10
-85.002998
 20
118.449997
 30
0.0
 10
-87.099998
 20
118.449997
 30
0.0
 10
-87.099998
 20
115.449997
 30
0.0
 10
-100.150002
 20
115.449997
 30
0.0
 10
-100.150002
 20
125.500000
 30
0.0
 10
-97.150002
 20
125.500000
 30
0.0
 10
-97.150002
 20
141.699997
 30
0.0
 10
-100.150002
 20
141.699997
 30
0.0
 10
-100.150002
 20
150.063995
 30
0.0
 10
-100.150002
 20
151.750000
 30
0.0
 10
-87.099998
 20
151.750000
 30
0.0
 10
-87.099998
 20
150.063995
 30
0.0
 10
-87.099998
 20
148.750000
 30
0.0
 10
-85.002998
 20
148.750000
 30
0.0
 10
-82.001999
 20
148.750000
 30
0.0
 10
-78.001999
 20
148.750000
 30
0.0
 10
-75.000999
 20
148.750000
 30
0.0
 10
-71.000999
 20
148.750000
 30
0.0
 10
-70.900002
 20
148.750000
 30
0.0
 10
-70.900002
 20
150.063995
 30
0.0
 10
-70.900002
 20
151.750000
 30
0.0
 10
-65.536003
 20
151.750000
 30
0.0
 10
-54.099998
 20
151.750000
 30
0.0
 10
-54.099998
 20
150.063995
 30
0.0
 10
-54.099998
 20
148.750000
 30
0.0
 10
-53.999001
 20
148.750000
 30
0.0
 10
-49.999001
 20
148.750000
 30
0.0
 10
-46.998001
 20
148.750000
 30
0.0
 10
-42.998001
 20
148.750000
 30
0.0
 10
-39.998001
 20
148.750000
 30
0.0
 10
-37.900002
 20
148.750000
 30
0.0
 10
-37.900002
 20
150.063995
 30
0.0
 10
-37.900002
 20
151.750000
 30
0.0
 10
-32.768002
 20
151.750000
 30
0.0
  0
LWPOLYLINE
  5
106
100
AcDbEntity
  8
0
 62
7
100
AcDbPolyline
 90
55
 70
1
 10
147.332993
 20
292.794998
 30
0.0
 10
147.455994
 20
292.726768
 30
0.0
 10
147.470001
 20
292.719002
 30
0.0
 10
147.615997
 20
292.660995
 30
0.0
 10
147.768005
 20
292.622002
 30
0.0
 10
147.923996
 20
292.601997
 30
0.0
 10
148.080994
 20
292.601997
 30
0.0
 10
148.237000
 20
292.622002
 30
0.0
 10
148.389008
 20
292.660995
 30
0.0
 10
148.535004
 20
292.719002
 30
0.0
 10
148.671997
 20
292.794998
 30
0.0
 10
148.798996
 20
292.887001
 30
0.0
 10
148.914001
 20
292.994995
 30
0.0
 10
149.014008
 20
293.115997
 30
0.0
 10
149.098007
 20
293.249001
 30
0.0
 10
149.164993
 20
293.390999
 30
0.0
 10
149.175568
 20
293.423996
 30
0.0
 10
149.212997
 20
293.541000
 30
0.0
 10
149.242996
 20
293.695000
 30
0.0
 10
149.253006
 20
293.851997
 30
0.0
 10
149.242996
 20
294.008995
 30
0.0
 10
149.212997
 20
294.164001
 30
0.0
 10
149.164993
 20
294.313995
 30
0.0
 10
149.098007
 20
294.456001
 30
0.0
 10
149.014008
 20
294.588997
 30
0.0
 10
148.914001
 20
294.709999
 30
0.0
 10
148.798996
 20
294.818001
 30
0.0
 10
148.671997
 20
294.909996
 30
0.0
 10
148.535004
 20
294.986000
 30
0.0
 10
148.479996
 20
295.007851
 30
0.0
 10
148.389008
 20
295.043999
 30
0.0
 10
148.237000
 20
295.083000
 30
0.0
 10
148.080994
 20
295.102997
 30
0.0
 10
147.923996
 20
295.102997
 30
0.0
 10
147.768005
 20
295.083000
 30
0.0
 10
147.615997
 20
295.043999
 30
0.0
 10
147.470001
 20
294.986000
 30
0.0
 10
147.455994
 20
294.978233
 30
0.0
 10
147.332993
 20
294.909996
 30
0.0
 10
147.205994
 20
294.818001
 30
0.0
 10
147.091003
 20
294.709999
 30
0.0
 10
146.990997
 20
294.588997
 30
0.0
 10
146.906998
 20
294.456001
 30
0.0
 10
146.839996
 20
294.313995
 30
0.0
 10
146.792007
 20
294.164001
 30
0.0
 10
146.761993
 20
294.008995
 30
0.0
 10
146.751999
 20
293.851997
 30
0.0
 10
146.761993
 20
293.695000
 30
0.0
 10
146.792007
 20
293.541000
 30
0.0
 10
146.829437
 20
293.423996
 30
0.0
 10
146.839996
 20
293.390999
 30
0.0
 10
146.906998
 20
293.249001
 30
0.0
 10
146.990997
 20
293.115997
 30
0.0
 10
147.091003
 20
292.994995
 30
0.0
 10
147.205994
 20
292.887001
 30
0.0
  0
LWPOLYLINE
  5
107
100
AcDbEntity
  8
0
 62
7
100
AcDbPolyline
 90
55
 70
1
 10
153.518005
 20
320.122002
 30
0.0
 10
153.600006
 20
320.111488
 30
0.0
 10
153.673996
 20
320.101997
 30
0.0
 10
153.830994
 20
320.101997
 30
0.0
 10
153.987000
 20
320.122002
 30
0.0
 10
154.139008
 20
320.160995
 30
0.0
 10
154.285004
 20
320.219002
 30
0.0
 10
154.421997
 20
320.294998
 30
0.0
 10
154.548996
 20
320.387001
 30
0.0
 10
154.664001
 20
320.494995
 30
0.0
 10
154.764008
 20
320.615997
 30
0.0
 10
154.848007
 20
320.749001
 30
0.0
 10
154.914993
 20
320.890999
 30
0.0
 10
154.962997
 20
321.041000
 30
0.0
 10
154.969040
 20
321.071999
 30
0.0
 10
154.992996
 20
321.195000
 30
0.0
 10
155.003006
 20
321.351997
 30
0.0
 10
154.992996
 20
321.508995
 30
0.0
 10
154.962997
 20
321.664001
 30
0.0
 10
154.914993
 20
321.813995
 30
0.0
 10
154.848007
 20
321.956001
 30
0.0
 10
154.764008
 20
322.088997
 30
0.0
 10
154.758209
 20
322.096001
 30
0.0
 10
154.664001
 20
322.209999
 30
0.0
 10
154.548996
 20
322.318001
 30
0.0
 10
154.421997
 20
322.409996
 30
0.0
 10
154.285004
 20
322.486000
 30
0.0
 10
154.139008
 20
322.543999
 30
0.0
 10
153.987000
 20
322.583000
 30
0.0
 10
153.830994
 20
322.602997
 30
0.0
 10
153.673996
 20
322.602997
 30
0.0
 10
153.518005
 20
322.583000
 30
0.0
 10
153.365997
 20
322.543999
 30
0.0
 10
153.220001
 20
322.486000
 30
0.0
 10
153.082993
 20
322.409996
 30
0.0
 10
152.955994
 20
322.318001
 30
0.0
 10
152.841003
 20
322.209999
 30
0.0
 10
152.746780
 20
322.096001
 30
0.0
 10
152.740997
 20
322.088997
 30
0.0
 10
152.656998
 20
321.956001
 30
0.0
 10
152.589996
 20
321.813995
 30
0.0
 10
152.542007
 20
321.664001
 30
0.0
 10
152.511993
 20
321.508995
 30
0.0
 10
152.501999
 20
321.351997
 30
0.0
 10
152.511993
 20
321.195000
 30
0.0
 10
152.535965
 20
321.071999
 30
0.0
 10
152.542007
 20
321.041000
 30
0.0
 10
152.589996
 20
320.890999
 30
0.0
 10
152.656998
 20
320.749001
 30
0.0
 10
152.740997
 20
320.615997
 30
0.0
 10
152.841003
 20
320.494995
 30
0.0
 10
152.955994
 20
320.387001
 30
0.0
 10
153.082993
 20
320.294998
 30
0.0
 10
153.220001
 20
320.219002
 30
0.0
 10
153.365997
 20
320.160995
 30
0.0
  0
LWPOLYLINE
  5
108
100
AcDbEntity
  8
0
 62
7
100
AcDbPolyline
 90
58
 70
1
 10
153.518005
 20
229.616999
 30
0.0
 10
153.600006
 20
229.607011
 30
0.0
 10
153.673996
 20
229.597999
 30
0.0
 10
153.830994
 20
229.597999
 30
0.0
 10
153.987000
 20
229.616999
 30
0.0
 10
154.139008
 20
229.655998
 30
0.0
 10
154.285004
 20
229.713999
 30
0.0
 10
154.421997
 20
229.789998
 30
0.0
 10
154.548996
 20
229.881998
 30
0.0
 10
154.606506
 20
229.935999
 30
0.0
 10
154.664001
 20
229.989999
 30
0.0
 10
154.764008
 20
230.110998
 30
0.0
 10
154.848007
 20
230.243999
 30
0.0
 10
154.914993
 20
230.385999
 30
0.0
 10
154.962997
 20
230.535998
 30
0.0
 10
154.992996
 20
230.690998
 30
0.0
 10
155.003006
 20
230.847999
 30
0.0
 10
154.995865
 20
230.959998
 30
0.0
 10
154.992996
 20
231.004998
 30
0.0
 10
154.962997
 20
231.158998
 30
0.0
 10
154.914993
 20
231.308998
 30
0.0
 10
154.848007
 20
231.450998
 30
0.0
 10
154.764008
 20
231.583999
 30
0.0
 10
154.664001
 20
231.704998
 30
0.0
 10
154.548996
 20
231.812998
 30
0.0
 10
154.421997
 20
231.904999
 30
0.0
 10
154.285004
 20
231.980999
 30
0.0
 10
154.277451
 20
231.983999
 30
0.0
 10
154.139008
 20
232.038998
 30
0.0
 10
153.987000
 20
232.077999
 30
0.0
 10
153.830994
 20
232.097998
 30
0.0
 10
153.673996
 20
232.097998
 30
0.0
 10
153.600006
 20
232.088511
 30
0.0
 10
153.518005
 20
232.077999
 30
0.0
 10
153.365997
 20
232.038998
 30
0.0
 10
153.227554
 20
231.983999
 30
0.0
 10
153.220001
 20
231.980999
 30
0.0
 10
153.082993
 20
231.904999
 30
0.0
 10
152.955994
 20
231.812998
 30
0.0
 10
152.841003
 20
231.704998
 30
0.0
 10
152.740997
 20
231.583999
 30
0.0
 10
152.656998
 20
231.450998
 30
0.0
 10
152.589996
 20
231.308998
 30
0.0
 10
152.542007
 20
231.158998
 30
0.0
 10
152.511993
 20
231.004998
 30
0.0
 10
152.509140
 20
230.959998
 30
0.0
 10
152.501999
 20
230.847999
 30
0.0
 10
152.511993
 20
230.690998
 30
0.0
 10
152.542007
 20
230.535998
 30
0.0
 10
152.589996
 20
230.385999
 30
0.0
 10
152.656998
 20
230.243999
 30
0.0
 10
152.740997
 20
230.110998
 30
0.0
 10
152.841003
 20
229.989999
 30
0.0
 10
152.898499
 20
229.935999
 30
0.0
 10
152.955994
 20
229.881998
 30
0.0
 10
153.082993
 20
229.789998
 30
0.0
 10
153.220001
 20
229.713999
 30
0.0
 10
153.365997
 20
229.655998
 30
0.0
  0
LWPOLYLINE
  5
109
100
AcDbEntity
  8
0
 62
7
100
AcDbPolyline
 90
58
 70
1
 10
147.332993
 20
234.789999
 30
0.0
 10
147.455994
 20
234.721766
 30
0.0
 10
147.470001
 20
234.713999
 30
0.0
 10
147.615997
 20
234.655998
 30
0.0
 10
147.768005
 20
234.616999
 30
0.0
 10
147.923996
 20
234.597998
 30
0.0
 10
148.080994
 20
234.597998
 30
0.0
 10
148.237000
 20
234.616999
 30
0.0
 10
148.389008
 20
234.655998
 30
0.0
 10
148.479996
 20
234.692148
 30
0.0
 10
148.535004
 20
234.713999
 30
0.0
 10
148.671997
 20
234.789999
 30
0.0
 10
148.798996
 20
234.881998
 30
0.0
 10
148.914001
 20
234.989998
 30
0.0
 10
148.922272
 20
234.999998
 30
0.0
 10
149.014008
 20
235.110998
 30
0.0
 10
149.098007
 20
235.243998
 30
0.0
 10
149.164993
 20
235.386999
 30
0.0
 10
149.212997
 20
235.535999
 30
0.0
 10
149.242996
 20
235.690998
 30
0.0
 10
149.253006
 20
235.847998
 30
0.0
 10
149.242996
 20
236.004999
 30
0.0
 10
149.228394
 20
236.079998
 30
0.0
 10
149.212997
 20
236.158998
 30
0.0
 10
149.164993
 20
236.308998
 30
0.0
 10
149.098007
 20
236.450998
 30
0.0
 10
149.014008
 20
236.583998
 30
0.0
 10
148.914001
 20
236.704998
 30
0.0
 10
148.798996
 20
236.812998
 30
0.0
 10
148.671997
 20
236.904999
 30
0.0
 10
148.535004
 20
236.980999
 30
0.0
 10
148.479996
 20
237.002848
 30
0.0
 10
148.389008
 20
237.038998
 30
0.0
 10
148.237000
 20
237.077999
 30
0.0
 10
148.080994
 20
237.097998
 30
0.0
 10
147.923996
 20
237.097998
 30
0.0
 10
147.768005
 20
237.077999
 30
0.0
 10
147.615997
 20
237.038998
 30
0.0
 10
147.470001
 20
236.980999
 30
0.0
 10
147.455994
 20
236.973232
 30
0.0
 10
147.332993
 20
236.904999
 30
0.0
 10
147.205994
 20
236.812998
 30
0.0
 10
147.091003
 20
236.704998
 30
0.0
 10
146.990997
 20
236.583998
 30
0.0
 10
146.906998
 20
236.450998
 30
0.0
 10
146.839996
 20
236.308998
 30
0.0
 10
146.792007
 20
236.158998
 30
0.0
 10
146.776611
 20
236.079998
 30
0.0
 10
146.761993
 20
236.004999
 30
0.0
 10
146.751999
 20
235.847998
 30
0.0
 10
146.761993
 20
235.690998
 30
0.0
 10
146.792007
 20
235.535999
 30
0.0
 10
146.839996
 20
235.386999
 30
0.0
 10
146.906998
 20
235.243998
 30
0.0
 10
146.990997
 20
235.110998
 30
0.0
 10
147.082733
 20
234.999998
 30
0.0
 10
147.091003
 20
234.989998
 30
0.0
 10
147.205994
 20
234.881998
 30
0.0
  0
LWPOLYLINE
  5
10a
100
AcDbEntity
  8
0
 62
7
100
AcDbPolyline
 90
56
 70
1
 10
92.007004
 20
321.508995
 30
0.0
 10
91.998001
 20
321.351997
 30
0.0
 10
92.007004
 20
321.195000
 30
0.0
 10
92.037003
 20
321.041000
 30
0.0
 10
92.084999
 20
320.890999
 30
0.0
 10
92.152000
 20
320.749001
 30
0.0
 10
92.160004
 20
320.736328
 30
0.0
 10
92.236000
 20
320.615997
 30
0.0
 10
92.335999
 20
320.494995
 30
0.0
 10
92.450996
 20
320.387001
 30
0.0
 10
92.578003
 20
320.294998
 30
0.0
 10
92.714996
 20
320.219002
 30
0.0
 10
92.861000
 20
320.160995
 30
0.0
 10
93.013000
 20
320.122002
 30
0.0
 10
93.168999
 20
320.101997
 30
0.0
 10
93.183998
 20
320.101997
 30
0.0
 10
93.325996
 20
320.101997
 30
0.0
 10
93.482002
 20
320.122002
 30
0.0
 10
93.634003
 20
320.160995
 30
0.0
 10
93.779999
 20
320.219002
 30
0.0
 10
93.917000
 20
320.294998
 30
0.0
 10
94.043999
 20
320.387001
 30
0.0
 10
94.158997
 20
320.494995
 30
0.0
 10
94.208000
 20
320.554291
 30
0.0
 10
94.259003
 20
320.615997
 30
0.0
 10
94.343002
 20
320.749001
 30
0.0
 10
94.410004
 20
320.890999
 30
0.0
 10
94.458000
 20
321.041000
 30
0.0
 10
94.487999
 20
321.195000
 30
0.0
 10
94.498001
 20
321.351997
 30
0.0
 10
94.487999
 20
321.508995
 30
0.0
 10
94.458000
 20
321.664001
 30
0.0
 10
94.410004
 20
321.813995
 30
0.0
 10
94.343002
 20
321.956001
 30
0.0
 10
94.259003
 20
322.088997
 30
0.0
 10
94.253212
 20
322.096001
 30
0.0
 10
94.158997
 20
322.209999
 30
0.0
 10
94.043999
 20
322.318001
 30
0.0
 10
93.917000
 20
322.409996
 30
0.0
 10
93.779999
 20
322.486000
 30
0.0
 10
93.634003
 20
322.543999
 30
0.0
 10
93.482002
 20
322.583000
 30
0.0
 10
93.325996
 20
322.602997
 30
0.0
 10
93.168999
 20
322.602997
 30
0.0
 10
93.013000
 20
322.583000
 30
0.0
 10
92.861000
 20
322.543999
 30
0.0
 10
92.714996
 20
322.486000
 30
0.0
 10
92.578003
 20
322.409996
 30
0.0
 10
92.450996
 20
322.318001
 30
0.0
 10
92.335999
 20
322.209999
 30
0.0
 10
92.241783
 20
322.096001
 30
0.0
 10
92.236000
 20
322.088997
 30
0.0
 10
92.160004
 20
321.968666
 30
0.0
 10
92.152000
 20
321.956001
 30
0.0
 10
92.084999
 20
321.813995
 30
0.0
 10
92.037003
 20
321.664001
 30
0.0
  0
LWPOLYLINE
  5
10b
100
AcDbEntity
  8
0
 62
7
100
AcDbPolyline
 90
56
 70
1
 10
98.200996
 20
292.887001
 30
0.0
 10
98.304001
 20
292.812386
 30
0.0
 10
98.328003
 20
292.794998
 30
0.0
 10
98.464996
 20
292.719002
 30
0.0
 10
98.611000
 20
292.660995
 30
0.0
 10
98.763000
 20
292.622002
 30
0.0
 10
98.918999
 20
292.601997
 30
0.0
 10
99.075996
 20
292.601997
 30
0.0
 10
99.232002
 20
292.622002
 30
0.0
 10
99.328003
 20
292.646629
 30
0.0
 10
99.384003
 20
292.660995
 30
0.0
 10
99.529999
 20
292.719002
 30
0.0
 10
99.667000
 20
292.794998
 30
0.0
 10
99.793999
 20
292.887001
 30
0.0
 10
99.908997
 20
292.994995
 30
0.0
 10
100.009003
 20
293.115997
 30
0.0
 10
100.093002
 20
293.249001
 30
0.0
 10
100.160004
 20
293.390999
 30
0.0
 10
100.170563
 20
293.423996
 30
0.0
 10
100.208000
 20
293.541000
 30
0.0
 10
100.237999
 20
293.695000
 30
0.0
 10
100.248001
 20
293.851997
 30
0.0
 10
100.237999
 20
294.008995
 30
0.0
 10
100.208000
 20
294.164001
 30
0.0
 10
100.160004
 20
294.313995
 30
0.0
 10
100.093002
 20
294.456001
 30
0.0
 10
100.009003
 20
294.588997
 30
0.0
 10
99.908997
 20
294.709999
 30
0.0
 10
99.793999
 20
294.818001
 30
0.0
 10
99.667000
 20
294.909996
 30
0.0
 10
99.529999
 20
294.986000
 30
0.0
 10
99.384003
 20
295.043999
 30
0.0
 10
99.328003
 20
295.058365
 30
0.0
 10
99.232002
 20
295.083000
 30
0.0
 10
99.075996
 20
295.102997
 30
0.0
 10
98.918999
 20
295.102997
 30
0.0
 10
98.763000
 20
295.083000
 30
0.0
 10
98.611000
 20
295.043999
 30
0.0
 10
98.464996
 20
294.986000
 30
0.0
 10
98.328003
 20
294.909996
 30
0.0
 10
98.304001
 20
294.892616
 30
0.0
 10
98.200996
 20
294.818001
 30
0.0
 10
98.085999
 20
294.709999
 30
0.0
 10
97.986000
 20
294.588997
 30
0.0
 10
97.902000
 20
294.456001
 30
0.0
 10
97.834999
 20
294.313995
 30
0.0
 10
97.787003
 20
294.164001
 30
0.0
 10
97.757004
 20
294.008995
 30
0.0
 10
97.748001
 20
293.851997
 30
0.0
 10
97.757004
 20
293.695000
 30
0.0
 10
97.787003
 20
293.541000
 30
0.0
 10
97.824440
 20
293.423996
 30
0.0
 10
97.834999
 20
293.390999
 30
0.0
 10
97.902000
 20
293.249001
 30
0.0
 10
97.986000
 20
293.115997
 30
0.0
 10
98.085999
 20
292.994995
 30
0.0
  0
LWPOLYLINE
  5
10c
100
AcDbEntity
  8
0
 62
7
100
AcDbPolyline
 90
58
 70
1
 10
94.043999
 20
229.881998
 30
0.0
 10
94.101501
 20
229.935999
 30
0.0
 10
94.158997
 20
229.989999
 30
0.0
 10
94.208000
 20
230.049289
 30
0.0
 10
94.259003
 20
230.110998
 30
0.0
 10
94.343002
 20
230.243999
 30
0.0
 10
94.410004
 20
230.385999
 30
0.0
 10
94.458000
 20
230.535998
 30
0.0
 10
94.487999
 20
230.690998
 30
0.0
 10
94.498001
 20
230.847999
 30
0.0
 10
94.487999
 20
231.004998
 30
0.0
 10
94.458000
 20
231.158998
 30
0.0
 10
94.410004
 20
231.308998
 30
0.0
 10
94.343002
 20
231.450998
 30
0.0
 10
94.259003
 20
231.583999
 30
0.0
 10
94.208000
 20
231.645708
 30
0.0
 10
94.158997
 20
231.704998
 30
0.0
 10
94.043999
 20
231.812998
 30
0.0
 10
93.917000
 20
231.904999
 30
0.0
 10
93.779999
 20
231.980999
 30
0.0
 10
93.772446
 20
231.983999
 30
0.0
 10
93.634003
 20
232.038998
 30
0.0
 10
93.482002
 20
232.077999
 30
0.0
 10
93.325996
 20
232.097998
 30
0.0
 10
93.168999
 20
232.097998
 30
0.0
 10
93.013000
 20
232.077999
 30
0.0
 10
92.861000
 20
232.038998
 30
0.0
 10
92.722549
 20
231.983999
 30
0.0
 10
92.714996
 20
231.980999
 30
0.0
 10
92.578003
 20
231.904999
 30
0.0
 10
92.450996
 20
231.812998
 30
0.0
 10
92.335999
 20
231.704998
 30
0.0
 10
92.236000
 20
231.583999
 30
0.0
 10
92.160004
 20
231.463665
 30
0.0
 10
92.152000
 20
231.450998
 30
0.0
 10
92.084999
 20
231.308998
 30
0.0
 10
92.037003
 20
231.158998
 30
0.0
 10
92.007004
 20
231.004998
 30
0.0
 10
91.998001
 20
230.847999
 30
0.0
 10
92.007004
 20
230.690998
 30
0.0
 10
92.037003
 20
230.535998
 30
0.0
 10
92.084999
 20
230.385999
 30
0.0
 10
92.152000
 20
230.243999
 30
0.0
 10
92.160004
 20
230.231332
 30
0.0
 10
92.236000
 20
230.110998
 30
0.0
 10
92.335999
 20
229.989999
 30
0.0
 10
92.393501
 20
229.935999
 30
0.0
 10
92.450996
 20
229.881998
 30
0.0
 10
92.578003
 20
229.789998
 30
0.0
 10
92.714996
 20
229.713999
 30
0.0
 10
92.861000
 20
229.655998
 30
0.0
 10
93.013000
 20
229.616999
 30
0.0
 10
93.168999
 20
229.597999
 30
0.0
 10
93.325996
 20
229.597999
 30
0.0
 10
93.482002
 20
229.616999
 30
0.0
 10
93.634003
 20
229.655998
 30
0.0
 10
93.779999
 20
229.713999
 30
0.0
 10
93.917000
 20
229.789998
 30
0.0
  0
LWPOLYLINE
  5
10d
100
AcDbEntity
  8
0
 62
7
100
AcDbPolyline
 90
59
 70
1
 10
98.200996
 20
234.881998
 30
0.0
 10
98.304001
 20
234.807384
 30
0.0
 10
98.328003
 20
234.789999
 30
0.0
 10
98.464996
 20
234.713999
 30
0.0
 10
98.611000
 20
234.655998
 30
0.0
 10
98.763000
 20
234.616999
 30
0.0
 10
98.918999
 20
234.597998
 30
0.0
 10
99.075996
 20
234.597998
 30
0.0
 10
99.199997
 20
234.613102
 30
0.0
 10
99.232002
 20
234.616999
 30
0.0
 10
99.328003
 20
234.641630
 30
0.0
 10
99.384003
 20
234.655998
 30
0.0
 10
99.529999
 20
234.713999
 30
0.0
 10
99.667000
 20
234.789999
 30
0.0
 10
99.793999
 20
234.881998
 30
0.0
 10
99.908997
 20
234.989998
 30
0.0
 10
100.009003
 20
235.110998
 30
0.0
 10
100.093002
 20
235.243998
 30
0.0
 10
100.160004
 20
235.386999
 30
0.0
 10
100.208000
 20
235.535999
 30
0.0
 10
100.237999
 20
235.690998
 30
0.0
 10
100.248001
 20
235.847998
 30
0.0
 10
100.237999
 20
236.004999
 30
0.0
 10
100.223389
 20
236.079998
 30
0.0
 10
100.208000
 20
236.158998
 30
0.0
 10
100.160004
 20
236.308998
 30
0.0
 10
100.093002
 20
236.450998
 30
0.0
 10
100.009003
 20
236.583998
 30
0.0
 10
99.908997
 20
236.704998
 30
0.0
 10
99.793999
 20
236.812998
 30
0.0
 10
99.667000
 20
236.904999
 30
0.0
 10
99.529999
 20
236.980999
 30
0.0
 10
99.384003
 20
237.038998
 30
0.0
 10
99.328003
 20
237.053368
 30
0.0
 10
99.232002
 20
237.077999
 30
0.0
 10
99.199997
 20
237.082102
 30
0.0
 10
99.075996
 20
237.097998
 30
0.0
 10
98.918999
 20
237.097998
 30
0.0
 10
98.763000
 20
237.077999
 30
0.0
 10
98.611000
 20
237.038998
 30
0.0
 10
98.464996
 20
236.980999
 30
0.0
 10
98.328003
 20
236.904999
 30
0.0
 10
98.304001
 20
236.887613
 30
0.0
 10
98.200996
 20
236.812998
 30
0.0
 10
98.085999
 20
236.704998
 30
0.0
 10
97.986000
 20
236.583998
 30
0.0
 10
97.902000
 20
236.450998
 30
0.0
 10
97.834999
 20
236.308998
 30
0.0
 10
97.787003
 20
236.158998
 30
0.0
 10
97.771614
 20
236.079998
 30
0.0
 10
97.757004
 20
236.004999
 30
0.0
 10
97.748001
 20
235.847998
 30
0.0
 10
97.757004
 20
235.690998
 30
0.0
 10
97.787003
 20
235.535999
 30
0.0
 10
97.834999
 20
235.386999
 30
0.0
 10
97.902000
 20
235.243998
 30
0.0
 10
97.986000
 20
235.110998
 30
0.0
 10
98.077736
 20
234.999998
 30
0.0
 10
98.085999
 20
234.989998
 30
0.0
  0
LWPOLYLINE
  5
10e
100
AcDbEntity
  8
0
 62
7
100
AcDbPolyline
 90
56
 70
1
 10
153.518005
 20
121.616997
 30
0.0
 10
153.600006
 20
121.606483
 30
0.0
 10
153.673996
 20
121.597000
 30
0.0
 10
153.830994
 20
121.597000
 30
0.0
 10
153.987000
 20
121.616997
 30
0.0
 10
154.139008
 20
121.655998
 30
0.0
 10
154.285004
 20
121.713997
 30
0.0
 10
154.421997
 20
121.790001
 30
0.0
 10
154.548996
 20
121.881996
 30
0.0
 10
154.664001
 20
121.989998
 30
0.0
 10
154.764008
 20
122.111000
 30
0.0
 10
154.848007
 20
122.243996
 30
0.0
 10
154.914993
 20
122.386002
 30
0.0
 10
154.924606
 20
122.416000
 30
0.0
 10
154.962997
 20
122.535995
 30
0.0
 10
154.992996
 20
122.691002
 30
0.0
 10
155.003006
 20
122.848000
 30
0.0
 10
154.992996
 20
123.004997
 30
0.0
 10
154.962997
 20
123.158997
 30
0.0
 10
154.914993
 20
123.308998
 30
0.0
 10
154.853195
 20
123.439995
 30
0.0
 10
154.848007
 20
123.450996
 30
0.0
 10
154.764008
 20
123.584000
 30
0.0
 10
154.664001
 20
123.705002
 30
0.0
 10
154.548996
 20
123.812996
 30
0.0
 10
154.421997
 20
123.904999
 30
0.0
 10
154.285004
 20
123.980995
 30
0.0
 10
154.139008
 20
124.039001
 30
0.0
 10
153.987000
 20
124.077995
 30
0.0
 10
153.830994
 20
124.098000
 30
0.0
 10
153.673996
 20
124.098000
 30
0.0
 10
153.600006
 20
124.088509
 30
0.0
 10
153.518005
 20
124.077995
 30
0.0
 10
153.365997
 20
124.039001
 30
0.0
 10
153.220001
 20
123.980995
 30
0.0
 10
153.082993
 20
123.904999
 30
0.0
 10
152.955994
 20
123.812996
 30
0.0
 10
152.841003
 20
123.705002
 30
0.0
 10
152.740997
 20
123.584000
 30
0.0
 10
152.656998
 20
123.450996
 30
0.0
 10
152.651810
 20
123.439995
 30
0.0
 10
152.589996
 20
123.308998
 30
0.0
 10
152.542007
 20
123.158997
 30
0.0
 10
152.511993
 20
123.004997
 30
0.0
 10
152.501999
 20
122.848000
 30
0.0
 10
152.511993
 20
122.691002
 30
0.0
 10
152.542007
 20
122.535995
 30
0.0
 10
152.580399
 20
122.416000
 30
0.0
 10
152.589996
 20
122.386002
 30
0.0
 10
152.656998
 20
122.243996
 30
0.0
 10
152.740997
 20
122.111000
 30
0.0
 10
152.841003
 20
121.989998
 30
0.0
 10
152.955994
 20
121.881996
 30
0.0
 10
153.082993
 20
121.790001
 30
0.0
 10
153.220001
 20
121.713997
 30
0.0
 10
153.365997
 20
121.655998
 30
0.0
  0
LWPOLYLINE
  5
10f
100
AcDbEntity
  8
0
 62
7
100
AcDbPolyline
 90
55
 70
1
 10
152.511993
 20
213.508998
 30
0.0
 10
152.501999
 20
213.351999
 30
0.0
 10
152.511993
 20
213.194999
 30
0.0
 10
152.542007
 20
213.040998
 30
0.0
 10
152.589996
 20
212.890998
 30
0.0
 10
152.656998
 20
212.748998
 30
0.0
 10
152.740997
 20
212.615999
 30
0.0
 10
152.841003
 20
212.494998
 30
0.0
 10
152.955994
 20
212.386998
 30
0.0
 10
153.082993
 20
212.294998
 30
0.0
 10
153.220001
 20
212.218998
 30
0.0
 10
153.365997
 20
212.160999
 30
0.0
 10
153.518005
 20
212.121999
 30
0.0
 10
153.600006
 20
212.111486
 30
0.0
 10
153.673996
 20
212.101999
 30
0.0
 10
153.830994
 20
212.101999
 30
0.0
 10
153.987000
 20
212.121999
 30
0.0
 10
154.139008
 20
212.160999
 30
0.0
 10
154.285004
 20
212.218998
 30
0.0
 10
154.421997
 20
212.294998
 30
0.0
 10
154.548996
 20
212.386998
 30
0.0
 10
154.664001
 20
212.494998
 30
0.0
 10
154.691269
 20
212.527998
 30
0.0
 10
154.764008
 20
212.615999
 30
0.0
 10
154.848007
 20
212.748998
 30
0.0
 10
154.914993
 20
212.890998
 30
0.0
 10
154.962997
 20
213.040998
 30
0.0
 10
154.992996
 20
213.194999
 30
0.0
 10
155.003006
 20
213.351999
 30
0.0
 10
154.992996
 20
213.508998
 30
0.0
 10
154.984680
 20
213.551998
 30
0.0
 10
154.962997
 20
213.663998
 30
0.0
 10
154.914993
 20
213.813998
 30
0.0
 10
154.848007
 20
213.955998
 30
0.0
 10
154.764008
 20
214.088998
 30
0.0
 10
154.664001
 20
214.209998
 30
0.0
 10
154.548996
 20
214.317999
 30
0.0
 10
154.421997
 20
214.409998
 30
0.0
 10
154.285004
 20
214.485999
 30
0.0
 10
154.139008
 20
214.543998
 30
0.0
 10
153.987000
 20
214.582999
 30
0.0
 10
153.830994
 20
214.601998
 30
0.0
 10
153.673996
 20
214.601998
 30
0.0
 10
153.600006
 20
214.592986
 30
0.0
 10
153.518005
 20
214.582999
 30
0.0
 10
153.365997
 20
214.543998
 30
0.0
 10
153.220001
 20
214.485999
 30
0.0
 10
153.082993
 20
214.409998
 30
0.0
 10
152.955994
 20
214.317999
 30
0.0
 10
152.841003
 20
214.209998
 30
0.0
 10
152.740997
 20
214.088998
 30
0.0
 10
152.656998
 20
213.955998
 30
0.0
 10
152.589996
 20
213.813998
 30
0.0
 10
152.542007
 20
213.663998
 30
0.0
 10
152.520325
 20
213.551998
 30
0.0
  0
LWPOLYLINE
  5
110
100
AcDbEntity
  8
0
 62
7
100
AcDbPolyline
 90
58
 70
1
 10
92.007004
 20
213.508998
 30
0.0
 10
91.998001
 20
213.351999
 30
0.0
 10
92.007004
 20
213.194999
 30
0.0
 10
92.037003
 20
213.040998
 30
0.0
 10
92.084999
 20
212.890998
 30
0.0
 10
92.152000
 20
212.748998
 30
0.0
 10
92.160004
 20
212.736332
 30
0.0
 10
92.236000
 20
212.615999
 30
0.0
 10
92.335999
 20
212.494998
 30
0.0
 10
92.450996
 20
212.386998
 30
0.0
 10
92.578003
 20
212.294998
 30
0.0
 10
92.714996
 20
212.218998
 30
0.0
 10
92.861000
 20
212.160999
 30
0.0
 10
93.013000
 20
212.121999
 30
0.0
 10
93.168999
 20
212.101999
 30
0.0
 10
93.183998
 20
212.101999
 30
0.0
 10
93.325996
 20
212.101999
 30
0.0
 10
93.482002
 20
212.121999
 30
0.0
 10
93.634003
 20
212.160999
 30
0.0
 10
93.779999
 20
212.218998
 30
0.0
 10
93.917000
 20
212.294998
 30
0.0
 10
94.043999
 20
212.386998
 30
0.0
 10
94.158997
 20
212.494998
 30
0.0
 10
94.208000
 20
212.554288
 30
0.0
 10
94.259003
 20
212.615999
 30
0.0
 10
94.343002
 20
212.748998
 30
0.0
 10
94.410004
 20
212.890998
 30
0.0
 10
94.458000
 20
213.040998
 30
0.0
 10
94.487999
 20
213.194999
 30
0.0
 10
94.498001
 20
213.351999
 30
0.0
 10
94.487999
 20
213.508998
 30
0.0
 10
94.479675
 20
213.551998
 30
0.0
 10
94.458000
 20
213.663998
 30
0.0
 10
94.410004
 20
213.813998
 30
0.0
 10
94.343002
 20
213.955998
 30
0.0
 10
94.259003
 20
214.088998
 30
0.0
 10
94.208000
 20
214.150708
 30
0.0
 10
94.158997
 20
214.209998
 30
0.0
 10
94.043999
 20
214.317999
 30
0.0
 10
93.917000
 20
214.409998
 30
0.0
 10
93.779999
 20
214.485999
 30
0.0
 10
93.634003
 20
214.543998
 30
0.0
 10
93.482002
 20
214.582999
 30
0.0
 10
93.325996
 20
214.601998
 30
0.0
 10
93.183998
 20
214.601998
 30
0.0
 10
93.168999
 20
214.601998
 30
0.0
 10
93.013000
 20
214.582999
 30
0.0
 10
92.861000
 20
214.543998
 30
0.0
 10
92.714996
 20
214.485999
 30
0.0
 10
92.578003
 20
214.409998
 30
0.0
 10
92.450996
 20
214.317999
 30
0.0
 10
92.335999
 20
214.209998
 30
0.0
 10
92.236000
 20
214.088998
 30
0.0
 10
92.160004
 20
213.968665
 30
0.0
 10
92.152000
 20
213.955998
 30
0.0
 10
92.084999
 20
213.813998
 30
0.0
 10
92.037003
 20
213.663998
 30
0.0
 10
92.015320
 20
213.551998
 30
0.0
  0
LWPOLYLINE
  5
111
100
AcDbEntity
  8
0
 62
7
100
AcDbPolyline
 90
10
 70
1
 10
71.900002
 20
177.601997
 30
0.0
 10
65.536003
 20
177.601997
 30
0.0
 10
22.700001
 20
177.601997
 30
0.0
 10
7.498000
 20
177.601997
 30
0.0
 10
7.498000
 20
162.597000
 30
0.0
 10
22.700001
 20
162.597000
 30
0.0
 10
65.536003
 20
162.597000
 30
0.0
 10
71.900002
 20
162.597000
 30
0.0
 10
72.502998
 20
162.597000
 30
0.0
 10
72.502998
 20
177.601997
 30
0.0
  0
LWPOLYLINE
  5
112
100
AcDbEntity
  8
0
 62
7
100
AcDbPolyline
 90
58
 70
1
 10
92.007004
 20
123.004997
 30
0.0
 10
91.998001
 20
122.848000
 30
0.0
 10
92.007004
 20
122.691002
 30
0.0
 10
92.037003
 20
122.535995
 30
0.0
 10
92.084999
 20
122.386002
 30
0.0
 10
92.152000
 20
122.243996
 30
0.0
 10
92.160004
 20
122.231331
 30
0.0
 10
92.236000
 20
122.111000
 30
0.0
 10
92.335999
 20
121.989998
 30
0.0
 10
92.450996
 20
121.881996
 30
0.0
 10
92.578003
 20
121.790001
 30
0.0
 10
92.714996
 20
121.713997
 30
0.0
 10
92.861000
 20
121.655998
 30
0.0
 10
93.013000
 20
121.616997
 30
0.0
 10
93.168999
 20
121.597000
 30
0.0
 10
93.183998
 20
121.597000
 30
0.0
 10
93.325996
 20
121.597000
 30
0.0
 10
93.482002
 20
121.616997
 30
0.0
 10
93.634003
 20
121.655998
 30
0.0
 10
93.779999
 20
121.713997
 30
0.0
 10
93.917000
 20
121.790001
 30
0.0
 10
94.043999
 20
121.881996
 30
0.0
 10
94.158997
 20
121.989998
 30
0.0
 10
94.208000
 20
122.049286
 30
0.0
 10
94.259003
 20
122.111000
 30
0.0
 10
94.343002
 20
122.243996
 30
0.0
 10
94.410004
 20
122.386002
 30
0.0
 10
94.458000
 20
122.535995
 30
0.0
 10
94.487999
 20
122.691002
 30
0.0
 10
94.498001
 20
122.848000
 30
0.0
 10
94.487999
 20
123.004997
 30
0.0
 10
94.458000
 20
123.158997
 30
0.0
 10
94.410004
 20
123.308998
 30
0.0
 10
94.348190
 20
123.439995
 30
0.0
 10
94.343002
 20
123.450996
 30
0.0
 10
94.259003
 20
123.584000
 30
0.0
 10
94.208000
 20
123.645706
 30
0.0
 10
94.158997
 20
123.705002
 30
0.0
 10
94.043999
 20
123.812996
 30
0.0
 10
93.917000
 20
123.904999
 30
0.0
 10
93.779999
 20
123.980995
 30
0.0
 10
93.634003
 20
124.039001
 30
0.0
 10
93.482002
 20
124.077995
 30
0.0
 10
93.325996
 20
124.098000
 30
0.0
 10
93.183998
 20
124.098000
 30
0.0
 10
93.168999
 20
124.098000
 30
0.0
 10
93.013000
 20
124.077995
 30
0.0
 10
92.861000
 20
124.039001
 30
0.0
 10
92.714996
 20
123.980995
 30
0.0
 10
92.578003
 20
123.904999
 30
0.0
 10
92.450996
 20
123.812996
 30
0.0
 10
92.335999
 20
123.705002
 30
0.0
 10
92.236000
 20
123.584000
 30
0.0
 10
92.160004
 20
123.463669
 30
0.0
 10
92.152000
 20
123.450996
 30
0.0
 10
92.146812
 20
123.439995
 30
0.0
 10
92.084999
 20
123.308998
 30
0.0
 10
92.037003
 20
123.158997
 30
0.0
  0
LWPOLYLINE
  5
113
100
AcDbEntity
  8
0
 62
7
100
AcDbPolyline
 90
6
 70
1
 10
0.003000
 20
140.601997
 30
0.0
 10
0.000000
 20
140.601997
 30
0.0
 10
-3.003000
 20
140.601997
 30
0.0
 10
-3.003000
 20
126.597000
 30
0.0
 10
0.000000
 20
126.597000
 30
0.0
 10
0.003000
 20
126.597000
 30
0.0
  0
LWPOLYLINE
  5
114
100
AcDbEntity
  8
0
 62
7
100
AcDbPolyline
 90
7
 70
1
 10
-34.998001
 20
182.601997
 30
0.0
 10
-65.536003
 20
182.601997
 30
0.0
 10
-90.002998
 20
182.601997
 30
0.0
 10
-90.002998
 20
164.799999
 30
0.0
 10
-90.002998
 20
162.597000
 30
0.0
 10
-65.536003
 20
162.597000
 30
0.0
 10
-34.998001
 20
162.597000
 30
0.0
  0
LWPOLYLINE
  5
115
100
AcDbEntity
  8
0
 62
7
100
AcDbPolyline
 90
8
 70
1
 10
132.199997
 20
295.601997
 30
0.0
 10
141.003006
 20
295.601997
 30
0.0
 10
141.003006
 20
298.602997
 30
0.0
 10
132.199997
 20
298.602997
 30
0.0
 10
131.072006
 20
298.602997
 30
0.0
 10
105.998001
 20
298.602997
 30
0.0
 10
105.998001
 20
295.601997
 30
0.0
 10
131.072006
 20
295.601997
 30
0.0
  0
LWPOLYLINE
  5
116
100
AcDbEntity
  8
0
 62
7
100
AcDbPolyline
 90
8
 70
1
 10
132.199997
 20
284.600998
 30
0.0
 10
131.072006
 20
284.600998
 30
0.0
 10
105.998001
 20
284.600998
 30
0.0
 10
105.998001
 20
281.600998
 30
0.0
 10
131.072006
 20
281.600998
 30
0.0
 10
132.199997
 20
281.600998
 30
0.0
 10
141.003006
 20
281.600998
 30
0.0
 10
141.003006
 20
284.600998
 30
0.0
  0
LWPOLYLINE
  5
117
100
AcDbEntity
  8
0
 62
7
100
AcDbPolyline
 90
8
 70
1
 10
141.003006
 20
288.600998
 30
0.0
 10
141.003006
 20
291.601997
 30
0.0
 10
132.199997
 20
291.601997
 30
0.0
 10
131.072006
 20
291.601997
 30
0.0
 10
105.998001
 20
291.601997
 30
0.0
 10
105.998001
 20
288.600998
 30
0.0
 10
131.072006
 20
288.600998
 30
0.0
 10
132.199997
 20
288.600998
 30
0.0
  0
LWPOLYLINE
  5
118
100
AcDbEntity
  8
0
 62
7
100
AcDbPolyline
 90
6
 70
1
 10
141.003006
 20
256.598000
 30
0.0
 10
131.072006
 20
256.598000
 30
0.0
 10
105.998001
 20
256.598000
 30
0.0
 10
105.998001
 20
253.598000
 30
0.0
 10
131.072006
 20
253.598000
 30
0.0
 10
141.003006
 20
253.598000
 30
0.0
  0
LWPOLYLINE
  5
119
100
AcDbEntity
  8
0
 62
7
100
AcDbPolyline
 90
6
 70
1
 10
141.003006
 20
263.598999
 30
0.0
 10
131.072006
 20
263.598999
 30
0.0
 10
105.998001
 20
263.598999
 30
0.0
 10
105.998001
 20
260.598000
 30
0.0
 10
131.072006
 20
260.598000
 30
0.0
 10
141.003006
 20
260.598000
 30
0.0
  0
LWPOLYLINE
  5
11a
100
AcDbEntity
  8
0
 62
7
100
AcDbPolyline
 90
8
 70
1
 10
141.003006
 20
267.598999
 30
0.0
 10
141.003006
 20
268.000000
 30
0.0
 10
141.003006
 20
270.598999
 30
0.0
 10
131.072006
 20
270.598999
 30
0.0
 10
105.998001
 20
270.598999
 30
0.0
 10
105.998001
 20
268.000000
 30
0.0
 10
105.998001
 20
267.598999
 30
0.0
 10
131.072006
 20
267.598999
 30
0.0
  0
LWPOLYLINE
  5
11b
100
AcDbEntity
  8
0
 62
7
100
AcDbPolyline
 90
6
 70
1
 10
141.003006
 20
277.599998
 30
0.0
 10
131.072006
 20
277.599998
 30
0.0
 10
105.998001
 20
277.599998
 30
0.0
 10
105.998001
 20
274.599998
 30
0.0
 10
131.072006
 20
274.599998
 30
0.0
 10
141.003006
 20
274.599998
 30
0.0
  0
LWPOLYLINE
  5
11c
100
AcDbEntity
  8
0
 62
7
100
AcDbPolyline
 90
4
 70
1
 10
68.498001
 20
140.601997
 30
0.0
 10
68.498001
 20
126.597000
 30
0.0
 10
71.502998
 20
126.597000
 30
0.0
 10
71.502998
 20
140.601997
 30
0.0
  0
LWPOLYLINE
  5
11d
100
AcDbEntity
  8
0
 62
7
100
AcDbPolyline
 90
4
 70
1
 10
3.998000
 20
140.601997
 30
0.0
 10
3.998000
 20
126.597000
 30
0.0
 10
7.003000
 20
126.597000
 30
0.0
 10
7.003000
 20
140.601997
 30
0.0
  0
LWPOLYLINE
  5
11e
100
AcDbEntity
  8
0
 62
7
100
AcDbPolyline
 90
4
 70
1
 10
22.497999
 20
140.601997
 30
0.0
 10
22.497999
 20
126.597000
 30
0.0
 10
25.503000
 20
126.597000
 30
0.0
 10
25.503000
 20
140.601997
 30
0.0
  0
LWPOLYLINE
  5
11f
100
AcDbEntity
  8
0
 62
7
100
AcDbPolyline
 90
4
 70
1
 10
29.497999
 20
140.601997
 30
0.0
 10
29.497999
 20
126.597000
 30
0.0
 10
32.501999
 20
126.597000
 30
0.0
 10
32.501999
 20
140.601997
 30
0.0
  0
LWPOLYLINE
  5
120
100
AcDbEntity
  8
0
 62
7
100
AcDbPolyline
 90
6
 70
1
 10
36.498001
 20
140.601997
 30
0.0
 10
36.498001
 20
126.597000
 30
0.0
 10
38.900002
 20
126.597000
 30
0.0
 10
39.502998
 20
126.597000
 30
0.0
 10
39.502998
 20
140.601997
 30
0.0
 10
38.900002
 20
140.601997
 30
0.0
  0
LWPOLYLINE
  5
121
100
AcDbEntity
  8
0
 62
7
100
AcDbPolyline
 90
4
 70
1
 10
57.502998
 20
140.601997
 30
0.0
 10
54.498001
 20
140.601997
 30
0.0
 10
54.498001
 20
126.597000
 30
0.0
 10
57.502998
 20
126.597000
 30
0.0
  0
LWPOLYLINE
  5
122
100
AcDbEntity
  8
0
 62
7
100
AcDbPolyline
 90
4
 70
1
 10
64.502998
 20
140.601997
 30
0.0
 10
61.498001
 20
140.601997
 30
0.0
 10
61.498001
 20
126.597000
 30
0.0
 10
64.502998
 20
126.597000
 30
0.0
  0
LWPOLYLINE
  5
123
100
AcDbEntity
  8
0
 62
7
100
AcDbPolyline
 90
4
 70
1
 10
-6.998000
 20
140.601997
 30
0.0
 10
-10.003000
 20
140.601997
 30
0.0
 10
-10.003000
 20
126.597000
 30
0.0
 10
-6.998000
 20
126.597000
 30
0.0
  0
LWPOLYLINE
  5
124
100
AcDbEntity
  8
0
 62
7
100
AcDbPolyline
 90
4
 70
1
 10
-42.998001
 20
140.601997
 30
0.0
 10
-42.998001
 20
126.597000
 30
0.0
 10
-39.998001
 20
126.597000
 30
0.0
 10
-39.998001
 20
140.601997
 30
0.0
  0
LWPOLYLINE
  5
125
100
AcDbEntity
  8
0
 62
7
100
AcDbPolyline
 90
4
 70
1
 10
-56.999001
 20
140.601997
 30
0.0
 10
-56.999001
 20
126.597000
 30
0.0
 10
-53.999001
 20
126.597000
 30
0.0
 10
-53.999001
 20
140.601997
 30
0.0
  0
LWPOLYLINE
  5
126
100
AcDbEntity
  8
0
 62
7
100
AcDbPolyline
 90
4
 70
1
 10
-49.999001
 20
140.601997
 30
0.0
 10
-49.999001
 20
126.597000
 30
0.0
 10
-46.998001
 20
126.597000
 30
0.0
 10
-46.998001
 20
140.601997
 30
0.0
  0
LWPOLYLINE
  5
127
100
AcDbEntity
  8
0
 62
7
100
AcDbPolyline
 90
4
 70
1
 10
-71.000999
 20
140.601997
 30
0.0
 10
-71.000999
 20
126.597000
 30
0.0
 10
-68.000999
 20
126.597000
 30
0.0
 10
-68.000999
 20
140.601997
 30
0.0
  0
LWPOLYLINE
  5
128
100
AcDbEntity
  8
0
 62
7
100
AcDbPolyline
 90
4
 70
1
 10
-85.002998
 20
140.601997
 30
0.0
 10
-85.002998
 20
126.597000
 30
0.0
 10
-82.001999
 20
126.597000
 30
0.0
 10
-82.001999
 20
140.601997
 30
0.0
  0
LWPOLYLINE
  5
129
100
AcDbEntity
  8
0
 62
7
100
AcDbPolyline
 90
5
 70
1
 10
-78.001999
 20
140.601997
 30
0.0
 10
-78.001999
 20
126.597000
 30
0.0
 10
-75.000999
 20
126.597000
 30
0.0
 10
-75.000999
 20
140.601997
 30
0.0
 10
-78.001999
 20
140.601997
 30
0.0
  0
ENDSEC
  0
SECTION
  2
OBJECTS
  0
DICTIONARY
  5
C
330
0
100
AcDbDictionary
  3
ACAD_GROUP
350
D
  3
ACAD_MLINESTYLE
350
17
  0
DICTIONARY
  5
D
330
C
100
AcDbDictionary
  0
DICTIONARY
  5
1A
330
C
100
AcDbDictionary
  0
DICTIONARY
  5
17
330
C
100
AcDbDictionary
  3
STANDARD
350
18
  0
DICTIONARY
  5
19
330
C
100
AcDbDictionary
  0
ENDSEC
  0
EOF
