  0
SECTION
  2
HEADER
  9
$ACADVER
  1
AC1014
  9
$HANDSEED
  5
FFFF
  9
$INSUNITS
 70
     4
  9
$MEASUREMENT
 70
     1
  0
ENDSEC
  0
SECTION
  2
TABLES
  0
TABLE
  2
VPORT
  5
8
330
0
100
AcDbSymbolTable
 70
     4
  0
VPORT
  5
2E
330
8
100
AcDbSymbolTableRecord
100
AcDbViewportTableRecord
  2
*ACTIVE
 70
     0
 10
0.0
 20
0.0
 11
1.0
 21
1.0
 12
210.0
 22
148.5
 13
0.0
 23
0.0
 14
10.0
 24
10.0
 15
10.0
 25
10.0
 16
0.0
 26
0.0
 36
1.0
 17
0.0
 27
0.0
 37
0.0
 40
341.0
 41
1.24
 42
50.0
 43
0.0
 44
0.0
 50
0.0
 51
0.0
 71
     0
 72
   100
 73
     1
 74
     3
 75
     0
 76
     0
 77
     0
 78
     0
  0
ENDTAB
  0
TABLE
  2
LTYPE
  5
5
330
0
100
AcDbSymbolTable
 70
     1
  0
LTYPE
  5
14
330
5
100
AcDbSymbolTableRecord
100
AcDbLinetypeTableRecord
  2
BYBLOCK
 70
     0
  3

 72
    65
 73
     0
 40
0.0
  0
LTYPE
  5
15
330
5
100
AcDbSymbolTableRecord
100
AcDbLinetypeTableRecord
  2
BYLAYER
 70
     0
  3

 72
    65
 73
     0
 40
0.0
  0
LTYPE
  5
16
330
5
100
AcDbSymbolTableRecord
100
AcDbLinetypeTableRecord
  2
CONTINUOUS
 70
     0
  3
Solid line
 72
    65
 73
     0
 40
0.0
  0
ENDTAB
  0
TABLE
  2
LAYER
  5
2
100
AcDbSymbolTable
 70
1
  0
LAYER
  5
50
100
AcDbSymbolTableRecord
100
AcDbLayerTableRecord
  2
0
 70
0
  6
CONTINUOUS
  0
ENDTAB
  0
TABLE
  2
STYLE
  5
3
330
0
100
AcDbSymbolTable
 70
     1
  0
STYLE
  5
11
330
3
100
AcDbSymbolTableRecord
100
AcDbTextStyleTableRecord
  2
STANDARD
 70
     0
 40
0.0
 41
1.0
 50
0.0
 71
     0
 42
2.5
  3
txt
  4

  0
ENDTAB
  0
TABLE
  2
VIEW
  5
6
330
0
100
AcDbSymbolTable
 70
     0
  0
ENDTAB
  0
TABLE
  2
UCS
  5
7
330
0
100
AcDbSymbolTable
 70
     0
  0
ENDTAB
  0
TABLE
  2
APPID
  5
9
330
0
100
AcDbSymbolTable
 70
     2
  0
APPID
  5
12
330
9
100
AcDbSymbolTableRecord
100
AcDbRegAppTableRecord
  2
ACAD
 70
     0
  0
ENDTAB
  0
TABLE
  2
DIMSTYLE
  5
A
330
0
100
AcDbSymbolTable
 70
     1
  0
DIMSTYLE
105
27
330
A
100
AcDbSymbolTableRecord
100
AcDbDimStyleTableRecord
  2
ISO-25
 70
     0
  3

  4

  5

  6

  7

 40
1.0
 41
2.5
 42
0.625
 43
3.75
 44
1.25
 45
0.0
 46
0.0
 47
0.0
 48
0.0
140
2.5
141
2.5
142
0.0
143
0.03937007874016
144
1.0
145
0.0
146
1.0
147
0.625
 71
     0
 72
     0
 73
     0
 74
     0
 75
     0
 76
     0
 77
     1
 78
     8
170
     0
171
     3
172
     1
173
     0
174
     0
175
     0
176
     0
177
     0
178
     0
270
     2
271
     2
272
     2
273
     2
274
     3
340
11
275
     0
280
     0
281
     0
282
     0
283
     0
284
     8
285
     0
286
     0
287
     3
288
     0
  0
ENDTAB
  0
TABLE
  2
BLOCK_RECORD
  5
1
330
0
100
AcDbSymbolTable
 70
     1
  0
BLOCK_RECORD
  5
1F
330
1
100
AcDbSymbolTableRecord
100
AcDbBlockTableRecord
  2
*MODEL_SPACE
  0
BLOCK_RECORD
  5
1B
330
1
100
AcDbSymbolTableRecord
100
AcDbBlockTableRecord
  2
*PAPER_SPACE
  0
ENDTAB
  0
ENDSEC
  0
SECTION
  2
BLOCKS
  0
BLOCK
  5
20
330
1F
100
AcDbEntity
  8
0
100
AcDbBlockBegin
  2
*MODEL_SPACE
 70
     0
 10
0.0
 20
0.0
 30
0.0
  3
*MODEL_SPACE
  1

  0
ENDBLK
  5
21
330
1F
100
AcDbEntity
  8
0
100
AcDbBlockEnd
  0
BLOCK
  5
1C
330
1B
100
AcDbEntity
 67
     1
  8
0
100
AcDbBlockBegin
  2
*PAPER_SPACE
  1

  0
ENDBLK
  5
1D
330
1B
100
AcDbEntity
 67
     1
  8
0
100
AcDbBlockEnd
  0
ENDSEC
  0
SECTION
  2
ENTITIES
  0
LWPOLYLINE
  5
100
100
AcDbEntity
  8
0
 62
7
100
AcDbPolyline
 90
58
 70
1
 10
149.149994
 20
329.260002
 30
0.0
 10
149.149994
 20
326.260002
 30
0.0
 10
153.251999
 20
326.260002
 30
0.0
 10
155.753006
 20
326.260002
 30
0.0
 10
158.899994
 20
326.260002
 30
0.0
 10
158.899994
 20
320.722000
 30
0.0
 10
158.899994
 20
318.010002
 30
0.0
 10
161.899994
 20
318.010002
 30
0.0
 10
161.899994
 20
301.150002
 30
0.0
 10
158.899994
 20
301.150002
 30
0.0
 10
158.899994
 20
285.010002
 30
0.0
 10
161.899994
 20
285.010002
 30
0.0
 10
161.899994
 20
281.256004
 30
0.0
 10
161.899994
 20
268.150002
 30
0.0
 10
158.899994
 20
268.150002
 30
0.0
 10
158.899994
 20
257.718002
 30
0.0
 10
158.899994
 20
252.010002
 30
0.0
 10
161.899994
 20
252.010002
 30
0.0
 10
161.899994
 20
235.150002
 30
0.0
 10
158.899994
 20
235.150002
 30
0.0
 10
158.899994
 20
229.968001
 30
0.0
 10
158.899994
 20
226.900002
 30
0.0
 10
153.251999
 20
226.900002
 30
0.0
 10
149.149994
 20
226.900002
 30
0.0
 10
149.149994
 20
223.900002
 30
0.0
 10
132.289993
 20
223.900002
 30
0.0
 10
132.289993
 20
226.900002
 30
0.0
 10
131.072006
 20
226.900002
 30
0.0
 10
116.150002
 20
226.900002
 30
0.0
 10
116.150002
 20
223.900002
 30
0.0
 10
99.290001
 20
223.900002
 30
0.0
 10
99.290001
 20
226.900002
 30
0.0
 10
93.248001
 20
226.900002
 30
0.0
 10
89.540001
 20
226.900002
 30
0.0
 10
89.540001
 20
235.150002
 30
0.0
 10
86.540001
 20
235.150002
 30
0.0
 10
86.540001
 20
248.488003
 30
0.0
 10
86.540001
 20
252.010002
 30
0.0
 10
89.540001
 20
252.010002
 30
0.0
 10
89.540001
 20
268.150002
 30
0.0
 10
86.540001
 20
268.150002
 30
0.0
 10
86.540001
 20
281.256004
 30
0.0
 10
86.540001
 20
285.010002
 30
0.0
 10
89.540001
 20
285.010002
 30
0.0
 10
89.540001
 20
301.150002
 30
0.0
 10
86.540001
 20
301.150002
 30
0.0
 10
86.540001
 20
318.010002
 30
0.0
 10
89.540001
 20
318.010002
 30
0.0
 10
89.540001
 20
326.260002
 30
0.0
 10
93.248001
 20
326.260002
 30
0.0
 10
95.748001
 20
326.260002
 30
0.0
 10
99.290001
 20
326.260002
 30
0.0
 10
99.290001
 20
329.260002
 30
0.0
 10
116.150002
 20
329.260002
 30
0.0
 10
116.150002
 20
326.260002
 30
0.0
 10
131.072006
 20
326.260002
 30
0.0
 10
132.289993
 20
326.260002
 30
0.0
 10
132.289993
 20
329.260002
 30
0.0
  0
LWPOLYLINE
  5
101
100
AcDbEntity
  8
0
 62
7
100
AcDbPolyline
 90
61
 70
1
 10
158.899994
 20
217.900001
 30
0.0
 10
158.899994
 20
215.720001
 30
0.0
 10
158.899994
 20
212.472001
 30
0.0
 10
158.899994
 20
209.650001
 30
0.0
 10
161.899994
 20
209.650001
 30
0.0
 10
161.899994
 20
192.790001
 30
0.0
 10
158.899994
 20
192.790001
 30
0.0
 10
158.899994
 20
176.650002
 30
0.0
 10
161.899994
 20
176.650002
 30
0.0
 10
161.899994
 20
159.790001
 30
0.0
 10
158.899994
 20
159.790001
 30
0.0
 10
158.899994
 20
143.650002
 30
0.0
 10
161.899994
 20
143.650002
 30
0.0
 10
161.899994
 20
129.217003
 30
0.0
 10
161.899994
 20
126.790001
 30
0.0
 10
158.899994
 20
126.790001
 30
0.0
 10
158.899994
 20
121.717003
 30
0.0
 10
158.899994
 20
118.540001
 30
0.0
 10
153.001999
 20
118.540001
 30
0.0
 10
149.149994
 20
118.540001
 30
0.0
 10
149.149994
 20
115.540001
 30
0.0
 10
132.289993
 20
115.540001
 30
0.0
 10
132.289993
 20
118.540001
 30
0.0
 10
131.072006
 20
118.540001
 30
0.0
 10
120.998001
 20
118.540001
 30
0.0
 10
116.150002
 20
118.540001
 30
0.0
 10
116.150002
 20
115.540001
 30
0.0
 10
100.997002
 20
115.540001
 30
0.0
 10
99.290001
 20
115.540001
 30
0.0
 10
99.290001
 20
118.540001
 30
0.0
 10
98.304001
 20
118.540001
 30
0.0
 10
92.998001
 20
118.540001
 30
0.0
 10
89.540001
 20
118.540001
 30
0.0
 10
89.540001
 20
125.290001
 30
0.0
 10
89.540001
 20
126.790001
 30
0.0
 10
86.540001
 20
126.790001
 30
0.0
 10
86.540001
 20
143.650002
 30
0.0
 10
89.540001
 20
143.650002
 30
0.0
 10
89.540001
 20
148.900002
 30
0.0
 10
89.540001
 20
150.183998
 30
0.0
 10
89.540001
 20
159.790001
 30
0.0
 10
86.540001
 20
159.790001
 30
0.0
 10
86.540001
 20
176.650002
 30
0.0
 10
89.540001
 20
176.650002
 30
0.0
 10
89.540001
 20
182.952000
 30
0.0
 10
89.540001
 20
191.260002
 30
0.0
 10
89.540001
 20
192.790001
 30
0.0
 10
86.540001
 20
192.790001
 30
0.0
 10
86.540001
 20
209.650001
 30
0.0
 10
89.540001
 20
209.650001
 30
0.0
 10
89.540001
 20
215.720001
 30
0.0
 10
89.540001
 20
217.900001
 30
0.0
 10
99.290001
 20
217.900001
 30
0.0
 10
99.290001
 20
220.900001
 30
0.0
 10
116.150002
 20
220.900001
 30
0.0
 10
116.150002
 20
217.900001
 30
0.0
 10
131.072006
 20
217.900001
 30
0.0
 10
132.289993
 20
217.900001
 30
0.0
 10
132.289993
 20
220.900001
 30
0.0
 10
149.149994
 20
220.900001
 30
0.0
 10
149.149994
 20
217.900001
 30
0.0
  0
LWPOLYLINE
  5
102
100
AcDbEntity
  8
0
 62
7
100
AcDbPolyline
 90
59
 70
1
 10
80.540001
 20
191.260002
 30
0.0
 10
80.540001
 20
182.952000
 30
0.0
 10
80.540001
 20
181.510002
 30
0.0
 10
83.540001
 20
181.510002
 30
0.0
 10
83.540001
 20
176.650002
 30
0.0
 10
83.540001
 20
164.650002
 30
0.0
 10
80.540001
 20
164.650002
 30
0.0
 10
80.540001
 20
154.900002
 30
0.0
 10
71.930000
 20
154.900002
 30
0.0
 10
71.930000
 20
157.900002
 30
0.0
 10
71.502998
 20
157.900002
 30
0.0
 10
68.501999
 20
157.900002
 30
0.0
 10
65.536003
 20
157.900002
 30
0.0
 10
64.501999
 20
157.900002
 30
0.0
 10
61.501999
 20
157.900002
 30
0.0
 10
57.501999
 20
157.900002
 30
0.0
 10
55.790001
 20
157.900002
 30
0.0
 10
55.790001
 20
154.900002
 30
0.0
 10
38.930000
 20
154.900002
 30
0.0
 10
38.930000
 20
157.900002
 30
0.0
 10
36.500000
 20
157.900002
 30
0.0
 10
32.500000
 20
157.900002
 30
0.0
 10
29.500000
 20
157.900002
 30
0.0
 10
25.500000
 20
157.900002
 30
0.0
 10
22.790001
 20
157.900002
 30
0.0
 10
22.790001
 20
154.900002
 30
0.0
 10
22.499001
 20
154.900002
 30
0.0
 10
6.999000
 20
154.900002
 30
0.0
 10
5.930000
 20
154.900002
 30
0.0
 10
5.930000
 20
157.900002
 30
0.0
 10
3.998000
 20
157.900002
 30
0.0
 10
0.000000
 20
157.900002
 30
0.0
 10
-10.210000
 20
157.900002
 30
0.0
 10
-10.210000
 20
154.900002
 30
0.0
 10
-18.820000
 20
154.900002
 30
0.0
 10
-18.820000
 20
157.900002
 30
0.0
 10
-18.820000
 20
164.650002
 30
0.0
 10
-21.820000
 20
164.650002
 30
0.0
 10
-21.820000
 20
165.010002
 30
0.0
 10
-21.820000
 20
166.568001
 30
0.0
 10
-21.820000
 20
181.510002
 30
0.0
 10
-18.820000
 20
181.510002
 30
0.0
 10
-18.820000
 20
182.952000
 30
0.0
 10
-18.820000
 20
188.260002
 30
0.0
 10
-18.820000
 20
191.260002
 30
0.0
 10
-10.210000
 20
191.260002
 30
0.0
 10
-10.210000
 20
188.260002
 30
0.0
 10
0.000000
 20
188.260002
 30
0.0
 10
5.930000
 20
188.260002
 30
0.0
 10
5.930000
 20
191.260002
 30
0.0
 10
22.790001
 20
191.260002
 30
0.0
 10
22.790001
 20
188.260002
 30
0.0
 10
38.930000
 20
188.260002
 30
0.0
 10
38.930000
 20
191.260002
 30
0.0
 10
55.790001
 20
191.260002
 30
0.0
 10
55.790001
 20
188.260002
 30
0.0
 10
65.536003
 20
188.260002
 30
0.0
 10
71.930000
 20
188.260002
 30
0.0
 10
71.930000
 20
191.260002
 30
0.0
  0
LWPOLYLINE
  5
103
100
AcDbEntity
  8
0
 62
7
100
AcDbPolyline
 90
79
 70
1
 10
71.930000
 20
151.900002
 30
0.0
 10
80.540001
 20
151.900002
 30
0.0
 10
80.540001
 20
150.183998
 30
0.0
 10
80.540001
 20
148.900002
 30
0.0
 10
80.540001
 20
143.650002
 30
0.0
 10
80.540001
 20
142.150002
 30
0.0
 10
83.540001
 20
142.150002
 30
0.0
 10
83.540001
 20
125.290001
 30
0.0
 10
80.540001
 20
125.290001
 30
0.0
 10
80.540001
 20
118.540001
 30
0.0
 10
80.540001
 20
115.540001
 30
0.0
 10
71.930000
 20
115.540001
 30
0.0
 10
71.930000
 20
118.540001
 30
0.0
 10
65.536003
 20
118.540001
 30
0.0
 10
64.501999
 20
118.540001
 30
0.0
 10
61.501999
 20
118.540001
 30
0.0
 10
57.501999
 20
118.540001
 30
0.0
 10
55.790001
 20
118.540001
 30
0.0
 10
55.790001
 20
115.540001
 30
0.0
 10
38.930000
 20
115.540001
 30
0.0
 10
38.930000
 20
118.540001
 30
0.0
 10
36.500000
 20
118.540001
 30
0.0
 10
32.500000
 20
118.540001
 30
0.0
 10
29.500000
 20
118.540001
 30
0.0
 10
25.500000
 20
118.540001
 30
0.0
 10
22.790001
 20
118.540001
 30
0.0
 10
22.790001
 20
115.540001
 30
0.0
 10
5.930000
 20
115.540001
 30
0.0
 10
5.930000
 20
118.540001
 30
0.0
 10
3.998000
 20
118.540001
 30
0.0
 10
0.000000
 20
118.540001
 30
0.0
 10
-0.002000
 20
118.540001
 30
0.0
 10
-3.002000
 20
118.540001
 30
0.0
 10
-7.002000
 20
118.540001
 30
0.0
 10
-10.003000
 20
118.540001
 30
0.0
 10
-10.210000
 20
118.540001
 30
0.0
 10
-10.210000
 20
115.540001
 30
0.0
 10
-18.820000
 20
115.540001
 30
0.0
 10
-18.820000
 20
118.540001
 30
0.0
 10
-18.820000
 20
125.290001
 30
0.0
 10
-21.820000
 20
125.290001
 30
0.0
 10
-21.820000
 20
125.650002
 30
0.0
 10
-21.820000
 20
141.790001
 30
0.0
 10
-21.820000
 20
142.150002
 30
0.0
 10
-18.820000
 20
142.150002
 30
0.0
 10
-18.820000
 20
148.900002
 30
0.0
 10
-18.820000
 20
150.183998
 30
0.0
 10
-18.820000
 20
151.900002
 30
0.0
 10
-10.210000
 20
151.900002
 30
0.0
 10
-10.210000
 20
150.183998
 30
0.0
 10
-10.210000
 20
148.900002
 30
0.0
 10
-10.003000
 20
148.900002
 30
0.0
 10
-7.002000
 20
148.900002
 30
0.0
 10
-3.002000
 20
148.900002
 30
0.0
 10
-0.002000
 20
148.900002
 30
0.0
 10
0.000000
 20
148.900002
 30
0.0
 10
3.998000
 20
148.900002
 30
0.0
 10
5.930000
 20
148.900002
 30
0.0
 10
5.930000
 20
150.183998
 30
0.0
 10
5.930000
 20
151.900002
 30
0.0
 10
22.790001
 20
151.900002
 30
0.0
 10
22.790001
 20
150.183998
 30
0.0
 10
22.790001
 20
148.900002
 30
0.0
 10
25.500000
 20
148.900002
 30
0.0
 10
29.500000
 20
148.900002
 30
0.0
 10
32.500000
 20
148.900002
 30
0.0
 10
36.500000
 20
148.900002
 30
0.0
 10
38.930000
 20
148.900002
 30
0.0
 10
38.930000
 20
150.183998
 30
0.0
 10
38.930000
 20
151.900002
 30
0.0
 10
55.790001
 20
151.900002
 30
0.0
 10
55.790001
 20
150.183998
 30
0.0
 10
55.790001
 20
148.900002
 30
0.0
 10
57.501999
 20
148.900002
 30
0.0
 10
61.501999
 20
148.900002
 30
0.0
 10
64.501999
 20
148.900002
 30
0.0
 10
65.536003
 20
148.900002
 30
0.0
 10
71.930000
 20
148.900002
 30
0.0
 10
71.930000
 20
150.183998
 30
0.0
  0
LWPOLYLINE
  5
104
100
AcDbEntity
  8
0
 62
7
100
AcDbPolyline
 90
39
 70
1
 10
-54.070000
 20
191.260002
 30
0.0
 10
-54.070000
 20
188.260002
 30
0.0
 10
-37.930000
 20
188.260002
 30
0.0
 10
-37.930000
 20
191.260002
 30
0.0
 10
-24.820000
 20
191.260002
 30
0.0
 10
-24.820000
 20
188.260002
 30
0.0
 10
-24.820000
 20
182.952000
 30
0.0
 10
-24.820000
 20
181.510002
 30
0.0
 10
-24.820000
 20
181.150002
 30
0.0
 10
-27.820000
 20
181.150002
 30
0.0
 10
-27.820000
 20
166.568001
 30
0.0
 10
-27.820000
 20
165.010002
 30
0.0
 10
-24.820000
 20
165.010002
 30
0.0
 10
-24.820000
 20
154.900002
 30
0.0
 10
-27.820000
 20
154.900002
 30
0.0
 10
-32.768002
 20
154.900002
 30
0.0
 10
-37.498001
 20
154.900002
 30
0.0
 10
-37.930000
 20
154.900002
 30
0.0
 10
-37.930000
 20
157.900002
 30
0.0
 10
-54.070000
 20
157.900002
 30
0.0
 10
-54.070000
 20
154.900002
 30
0.0
 10
-65.536003
 20
154.900002
 30
0.0
 10
-70.930000
 20
154.900002
 30
0.0
 10
-70.930000
 20
157.900002
 30
0.0
 10
-87.070000
 20
157.900002
 30
0.0
 10
-87.070000
 20
154.900002
 30
0.0
 10
-100.180000
 20
154.900002
 30
0.0
 10
-100.180000
 20
157.900002
 30
0.0
 10
-100.180000
 20
165.010002
 30
0.0
 10
-97.180000
 20
165.010002
 30
0.0
 10
-97.180000
 20
181.150002
 30
0.0
 10
-100.180000
 20
181.150002
 30
0.0
 10
-100.180000
 20
182.952000
 30
0.0
 10
-100.180000
 20
191.260002
 30
0.0
 10
-87.070000
 20
191.260002
 30
0.0
 10
-87.070000
 20
188.260002
 30
0.0
 10
-70.930000
 20
188.260002
 30
0.0
 10
-70.930000
 20
191.260002
 30
0.0
 10
-65.536003
 20
191.260002
 30
0.0
  0
LWPOLYLINE
  5
105
100
AcDbEntity
  8
0
 62
7
100
AcDbPolyline
 90
59
 70
1
 10
-24.820000
 20
151.900002
 30
0.0
 10
-24.820000
 20
150.183998
 30
0.0
 10
-24.820000
 20
141.790001
 30
0.0
 10
-27.820000
 20
141.790001
 30
0.0
 10
-27.820000
 20
125.650002
 30
0.0
 10
-24.820000
 20
125.650002
 30
0.0
 10
-24.820000
 20
125.290001
 30
0.0
 10
-24.820000
 20
115.540001
 30
0.0
 10
-32.768002
 20
115.540001
 30
0.0
 10
-37.930000
 20
115.540001
 30
0.0
 10
-37.930000
 20
118.540001
 30
0.0
 10
-39.998001
 20
118.540001
 30
0.0
 10
-42.998001
 20
118.540001
 30
0.0
 10
-46.998001
 20
118.540001
 30
0.0
 10
-49.999001
 20
118.540001
 30
0.0
 10
-53.999001
 20
118.540001
 30
0.0
 10
-54.070000
 20
118.540001
 30
0.0
 10
-54.070000
 20
115.540001
 30
0.0
 10
-65.536003
 20
115.540001
 30
0.0
 10
-70.930000
 20
115.540001
 30
0.0
 10
-70.930000
 20
118.540001
 30
0.0
 10
-71.000999
 20
118.540001
 30
0.0
 10
-75.000999
 20
118.540001
 30
0.0
 10
-78.001999
 20
118.540001
 30
0.0
 10
-82.001999
 20
118.540001
 30
0.0
 10
-85.002998
 20
118.540001
 30
0.0
 10
-87.070000
 20
118.540001
 30
0.0
 10
-87.070000
 20
115.540001
 30
0.0
 10
-100.180000
 20
115.540001
 30
0.0
 10
-100.180000
 20
125.650002
 30
0.0
 10
-97.180000
 20
125.650002
 30
0.0
 10
-97.180000
 20
141.790001
 30
0.0
 10
-100.180000
 20
141.790001
 30
0.0
 10
-100.180000
 20
150.183998
 30
0.0
 10
-100.180000
 20
151.900002
 30
0.0
 10
-87.070000
 20
151.900002
 30
0.0
 10
-87.070000
 20
150.183998
 30
0.0
 10
-87.070000
 20
148.900002
 30
0.0
 10
-85.002998
 20
148.900002
 30
0.0
 10
-82.001999
 20
148.900002
 30
0.0
 10
-78.001999
 20
148.900002
 30
0.0
 10
-75.000999
 20
148.900002
 30
0.0
 10
-71.000999
 20
148.900002
 30
0.0
 10
-70.930000
 20
148.900002
 30
0.0
 10
-70.930000
 20
150.183998
 30
0.0
 10
-70.930000
 20
151.900002
 30
0.0
 10
-65.536003
 20
151.900002
 30
0.0
 10
-54.070000
 20
151.900002
 30
0.0
 10
-54.070000
 20
150.183998
 30
0.0
 10
-54.070000
 20
148.900002
 30
0.0
 10
-53.999001
 20
148.900002
 30
0.0
 10
-49.999001
 20
148.900002
 30
0.0
 10
-46.998001
 20
148.900002
 30
0.0
 10
-42.998001
 20
148.900002
 30
0.0
 10
-39.998001
 20
148.900002
 30
0.0
 10
-37.930000
 20
148.900002
 30
0.0
 10
-37.930000
 20
150.183998
 30
0.0
 10
-37.930000
 20
151.900002
 30
0.0
 10
-32.768002
 20
151.900002
 30
0.0
  0
LWPOLYLINE
  5
106
100
AcDbEntity
  8
0
 62
7
100
AcDbPolyline
 90
58
 70
1
 10
153.261993
 20
322.128998
 30
0.0
 10
153.251999
 20
321.972000
 30
0.0
 10
153.261993
 20
321.815002
 30
0.0
 10
153.292007
 20
321.661003
 30
0.0
 10
153.339996
 20
321.511002
 30
0.0
 10
153.406998
 20
321.369003
 30
0.0
 10
153.490997
 20
321.236000
 30
0.0
 10
153.591003
 20
321.114998
 30
0.0
 10
153.600006
 20
321.106552
 30
0.0
 10
153.705994
 20
321.007004
 30
0.0
 10
153.832993
 20
320.915001
 30
0.0
 10
153.970001
 20
320.839005
 30
0.0
 10
154.115997
 20
320.780998
 30
0.0
 10
154.268005
 20
320.742004
 30
0.0
 10
154.423996
 20
320.722000
 30
0.0
 10
154.580994
 20
320.722000
 30
0.0
 10
154.623993
 20
320.727516
 30
0.0
 10
154.737000
 20
320.742004
 30
0.0
 10
154.889008
 20
320.780998
 30
0.0
 10
155.035004
 20
320.839005
 30
0.0
 10
155.171997
 20
320.915001
 30
0.0
 10
155.298996
 20
321.007004
 30
0.0
 10
155.414001
 20
321.114998
 30
0.0
 10
155.514008
 20
321.236000
 30
0.0
 10
155.598007
 20
321.369003
 30
0.0
 10
155.647995
 20
321.474968
 30
0.0
 10
155.664993
 20
321.511002
 30
0.0
 10
155.712997
 20
321.661003
 30
0.0
 10
155.742996
 20
321.815002
 30
0.0
 10
155.753006
 20
321.972000
 30
0.0
 10
155.742996
 20
322.128998
 30
0.0
 10
155.726166
 20
322.216003
 30
0.0
 10
155.712997
 20
322.284004
 30
0.0
 10
155.664993
 20
322.433998
 30
0.0
 10
155.647995
 20
322.470032
 30
0.0
 10
155.598007
 20
322.576004
 30
0.0
 10
155.514008
 20
322.709000
 30
0.0
 10
155.414001
 20
322.830002
 30
0.0
 10
155.298996
 20
322.938004
 30
0.0
 10
155.171997
 20
323.029999
 30
0.0
 10
155.035004
 20
323.106003
 30
0.0
 10
154.889008
 20
323.164001
 30
0.0
 10
154.737000
 20
323.203003
 30
0.0
 10
154.623993
 20
323.217491
 30
0.0
 10
154.580994
 20
323.223000
 30
0.0
 10
154.423996
 20
323.223000
 30
0.0
 10
154.268005
 20
323.203003
 30
0.0
 10
154.115997
 20
323.164001
 30
0.0
 10
153.970001
 20
323.106003
 30
0.0
 10
153.832993
 20
323.029999
 30
0.0
 10
153.705994
 20
322.938004
 30
0.0
 10
153.600006
 20
322.838455
 30
0.0
 10
153.591003
 20
322.830002
 30
0.0
 10
153.490997
 20
322.709000
 30
0.0
 10
153.406998
 20
322.576004
 30
0.0
 10
153.339996
 20
322.433998
 30
0.0
 10
153.292007
 20
322.284004
 30
0.0
 10
153.278839
 20
322.216003
 30
0.0
  0
LWPOLYLINE
  5
107
100
AcDbEntity
  8
0
 62
7
100
AcDbPolyline
 90
58
 70
1
 10
153.261993
 20
231.375001
 30
0.0
 10
153.251999
 20
231.218001
 30
0.0
 10
153.261993
 20
231.061001
 30
0.0
 10
153.292007
 20
230.906001
 30
0.0
 10
153.339996
 20
230.756001
 30
0.0
 10
153.406998
 20
230.614001
 30
0.0
 10
153.490997
 20
230.481001
 30
0.0
 10
153.591003
 20
230.360002
 30
0.0
 10
153.600006
 20
230.351549
 30
0.0
 10
153.705994
 20
230.252001
 30
0.0
 10
153.832993
 20
230.160001
 30
0.0
 10
153.970001
 20
230.084002
 30
0.0
 10
154.040482
 20
230.056002
 30
0.0
 10
154.115997
 20
230.026001
 30
0.0
 10
154.268005
 20
229.987001
 30
0.0
 10
154.423996
 20
229.968001
 30
0.0
 10
154.580994
 20
229.968001
 30
0.0
 10
154.737000
 20
229.987001
 30
0.0
 10
154.889008
 20
230.026001
 30
0.0
 10
154.964523
 20
230.056002
 30
0.0
 10
155.035004
 20
230.084002
 30
0.0
 10
155.171997
 20
230.160001
 30
0.0
 10
155.298996
 20
230.252001
 30
0.0
 10
155.414001
 20
230.360002
 30
0.0
 10
155.514008
 20
230.481001
 30
0.0
 10
155.598007
 20
230.614001
 30
0.0
 10
155.647995
 20
230.719972
 30
0.0
 10
155.664993
 20
230.756001
 30
0.0
 10
155.712997
 20
230.906001
 30
0.0
 10
155.742996
 20
231.061001
 30
0.0
 10
155.753006
 20
231.218001
 30
0.0
 10
155.742996
 20
231.375001
 30
0.0
 10
155.712997
 20
231.529001
 30
0.0
 10
155.664993
 20
231.679001
 30
0.0
 10
155.647995
 20
231.715031
 30
0.0
 10
155.598007
 20
231.821001
 30
0.0
 10
155.514008
 20
231.954000
 30
0.0
 10
155.414001
 20
232.075001
 30
0.0
 10
155.383118
 20
232.104002
 30
0.0
 10
155.298996
 20
232.183001
 30
0.0
 10
155.171997
 20
232.275002
 30
0.0
 10
155.035004
 20
232.351002
 30
0.0
 10
154.889008
 20
232.409000
 30
0.0
 10
154.737000
 20
232.448002
 30
0.0
 10
154.580994
 20
232.468000
 30
0.0
 10
154.423996
 20
232.468000
 30
0.0
 10
154.268005
 20
232.448002
 30
0.0
 10
154.115997
 20
232.409000
 30
0.0
 10
153.970001
 20
232.351002
 30
0.0
 10
153.832993
 20
232.275002
 30
0.0
 10
153.705994
 20
232.183001
 30
0.0
 10
153.621887
 20
232.104002
 30
0.0
 10
153.600006
 20
232.083454
 30
0.0
 10
153.591003
 20
232.075001
 30
0.0
 10
153.490997
 20
231.954000
 30
0.0
 10
153.406998
 20
231.821001
 30
0.0
 10
153.339996
 20
231.679001
 30
0.0
 10
153.292007
 20
231.529001
 30
0.0
  0
LWPOLYLINE
  5
108
100
AcDbEntity
  8
0
 62
7
100
AcDbPolyline
 90
53
 70
1
 10
134.136002
 20
258.219002
 30
0.0
 10
134.143997
 20
258.207054
 30
0.0
 10
134.209000
 20
258.110001
 30
0.0
 10
134.294998
 20
258.011002
 30
0.0
 10
134.393005
 20
257.925003
 30
0.0
 10
134.501999
 20
257.852001
 30
0.0
 10
134.619995
 20
257.794003
 30
0.0
 10
134.742996
 20
257.752003
 30
0.0
 10
134.871994
 20
257.726002
 30
0.0
 10
135.001999
 20
257.718002
 30
0.0
 10
135.132996
 20
257.726002
 30
0.0
 10
135.167999
 20
257.733112
 30
0.0
 10
135.261002
 20
257.752003
 30
0.0
 10
135.384995
 20
257.794003
 30
0.0
 10
135.501999
 20
257.852001
 30
0.0
 10
135.610992
 20
257.925003
 30
0.0
 10
135.710007
 20
258.011002
 30
0.0
 10
135.796005
 20
258.110001
 30
0.0
 10
135.869003
 20
258.219002
 30
0.0
 10
135.925995
 20
258.336002
 30
0.0
 10
135.968002
 20
258.461002
 30
0.0
 10
135.994003
 20
258.589001
 30
0.0
 10
136.003006
 20
258.720001
 30
0.0
 10
136.002457
 20
258.728001
 30
0.0
 10
135.994003
 20
258.851002
 30
0.0
 10
135.968002
 20
258.979000
 30
0.0
 10
135.925995
 20
259.104000
 30
0.0
 10
135.869003
 20
259.221001
 30
0.0
 10
135.796005
 20
259.330002
 30
0.0
 10
135.710007
 20
259.429001
 30
0.0
 10
135.610992
 20
259.514999
 30
0.0
 10
135.501999
 20
259.588001
 30
0.0
 10
135.384995
 20
259.646000
 30
0.0
 10
135.261002
 20
259.688000
 30
0.0
 10
135.167999
 20
259.706890
 30
0.0
 10
135.132996
 20
259.714001
 30
0.0
 10
135.001999
 20
259.723000
 30
0.0
 10
134.871994
 20
259.714001
 30
0.0
 10
134.742996
 20
259.688000
 30
0.0
 10
134.619995
 20
259.646000
 30
0.0
 10
134.501999
 20
259.588001
 30
0.0
 10
134.393005
 20
259.514999
 30
0.0
 10
134.294998
 20
259.429001
 30
0.0
 10
134.209000
 20
259.330002
 30
0.0
 10
134.136002
 20
259.221001
 30
0.0
 10
134.078003
 20
259.104000
 30
0.0
 10
134.035995
 20
258.979000
 30
0.0
 10
134.011002
 20
258.851002
 30
0.0
 10
134.002548
 20
258.728001
 30
0.0
 10
134.001999
 20
258.720001
 30
0.0
 10
134.011002
 20
258.589001
 30
0.0
 10
134.035995
 20
258.461002
 30
0.0
 10
134.078003
 20
258.336002
 30
0.0
  0
LWPOLYLINE
  5
109
100
AcDbEntity
  8
0
 62
7
100
AcDbPolyline
 90
55
 70
1
 10
93.257004
 20
322.128998
 30
0.0
 10
93.248001
 20
321.972000
 30
0.0
 10
93.257004
 20
321.815002
 30
0.0
 10
93.287003
 20
321.661003
 30
0.0
 10
93.334999
 20
321.511002
 30
0.0
 10
93.402000
 20
321.369003
 30
0.0
 10
93.486000
 20
321.236000
 30
0.0
 10
93.585999
 20
321.114998
 30
0.0
 10
93.700996
 20
321.007004
 30
0.0
 10
93.828003
 20
320.915001
 30
0.0
 10
93.964996
 20
320.839005
 30
0.0
 10
94.111000
 20
320.780998
 30
0.0
 10
94.208000
 20
320.756111
 30
0.0
 10
94.263000
 20
320.742004
 30
0.0
 10
94.418999
 20
320.722000
 30
0.0
 10
94.575996
 20
320.722000
 30
0.0
 10
94.732002
 20
320.742004
 30
0.0
 10
94.884003
 20
320.780998
 30
0.0
 10
95.029999
 20
320.839005
 30
0.0
 10
95.167000
 20
320.915001
 30
0.0
 10
95.232002
 20
320.962090
 30
0.0
 10
95.293999
 20
321.007004
 30
0.0
 10
95.408997
 20
321.114998
 30
0.0
 10
95.509003
 20
321.236000
 30
0.0
 10
95.593002
 20
321.369003
 30
0.0
 10
95.660004
 20
321.511002
 30
0.0
 10
95.708000
 20
321.661003
 30
0.0
 10
95.737999
 20
321.815002
 30
0.0
 10
95.748001
 20
321.972000
 30
0.0
 10
95.737999
 20
322.128998
 30
0.0
 10
95.721161
 20
322.216003
 30
0.0
 10
95.708000
 20
322.284004
 30
0.0
 10
95.660004
 20
322.433998
 30
0.0
 10
95.593002
 20
322.576004
 30
0.0
 10
95.509003
 20
322.709000
 30
0.0
 10
95.408997
 20
322.830002
 30
0.0
 10
95.293999
 20
322.938004
 30
0.0
 10
95.167000
 20
323.029999
 30
0.0
 10
95.029999
 20
323.106003
 30
0.0
 10
94.884003
 20
323.164001
 30
0.0
 10
94.732002
 20
323.203003
 30
0.0
 10
94.575996
 20
323.223000
 30
0.0
 10
94.418999
 20
323.223000
 30
0.0
 10
94.263000
 20
323.203003
 30
0.0
 10
94.208000
 20
323.188889
 30
0.0
 10
94.111000
 20
323.164001
 30
0.0
 10
93.964996
 20
323.106003
 30
0.0
 10
93.828003
 20
323.029999
 30
0.0
 10
93.700996
 20
322.938004
 30
0.0
 10
93.585999
 20
322.830002
 30
0.0
 10
93.486000
 20
322.709000
 30
0.0
 10
93.402000
 20
322.576004
 30
0.0
 10
93.334999
 20
322.433998
 30
0.0
 10
93.287003
 20
322.284004
 30
0.0
 10
93.273842
 20
322.216003
 30
0.0
  0
LWPOLYLINE
  5
10a
100
AcDbEntity
  8
0
 62
7
100
AcDbPolyline
 90
54
 70
1
 10
113.614998
 20
257.794003
 30
0.0
 10
113.664001
 20
257.777405
 30
0.0
 10
113.738998
 20
257.752003
 30
0.0
 10
113.866997
 20
257.726002
 30
0.0
 10
113.998001
 20
257.718002
 30
0.0
 10
114.127998
 20
257.726002
 30
0.0
 10
114.257004
 20
257.752003
 30
0.0
 10
114.379997
 20
257.794003
 30
0.0
 10
114.498001
 20
257.852001
 30
0.0
 10
114.607002
 20
257.925003
 30
0.0
 10
114.688004
 20
257.996082
 30
0.0
 10
114.705002
 20
258.011002
 30
0.0
 10
114.791000
 20
258.110001
 30
0.0
 10
114.863998
 20
258.219002
 30
0.0
 10
114.921997
 20
258.336002
 30
0.0
 10
114.963997
 20
258.461002
 30
0.0
 10
114.988998
 20
258.589001
 30
0.0
 10
114.998001
 20
258.720001
 30
0.0
 10
114.997452
 20
258.728001
 30
0.0
 10
114.988998
 20
258.851002
 30
0.0
 10
114.963997
 20
258.979000
 30
0.0
 10
114.921997
 20
259.104000
 30
0.0
 10
114.863998
 20
259.221001
 30
0.0
 10
114.791000
 20
259.330002
 30
0.0
 10
114.705002
 20
259.429001
 30
0.0
 10
114.688004
 20
259.443920
 30
0.0
 10
114.607002
 20
259.514999
 30
0.0
 10
114.498001
 20
259.588001
 30
0.0
 10
114.379997
 20
259.646000
 30
0.0
 10
114.257004
 20
259.688000
 30
0.0
 10
114.127998
 20
259.714001
 30
0.0
 10
113.998001
 20
259.723000
 30
0.0
 10
113.866997
 20
259.714001
 30
0.0
 10
113.738998
 20
259.688000
 30
0.0
 10
113.664001
 20
259.662598
 30
0.0
 10
113.614998
 20
259.646000
 30
0.0
 10
113.498001
 20
259.588001
 30
0.0
 10
113.389000
 20
259.514999
 30
0.0
 10
113.290001
 20
259.429001
 30
0.0
 10
113.204002
 20
259.330002
 30
0.0
 10
113.132004
 20
259.221001
 30
0.0
 10
113.073997
 20
259.104000
 30
0.0
 10
113.031998
 20
258.979000
 30
0.0
 10
113.005997
 20
258.851002
 30
0.0
 10
112.998489
 20
258.728001
 30
0.0
 10
112.998001
 20
258.720001
 30
0.0
 10
113.005997
 20
258.589001
 30
0.0
 10
113.031998
 20
258.461002
 30
0.0
 10
113.073997
 20
258.336002
 30
0.0
 10
113.132004
 20
258.219002
 30
0.0
 10
113.204002
 20
258.110001
 30
0.0
 10
113.290001
 20
258.011002
 30
0.0
 10
113.389000
 20
257.925003
 30
0.0
 10
113.498001
 20
257.852001
 30
0.0
  0
LWPOLYLINE
  5
10b
100
AcDbEntity
  8
0
 62
7
100
AcDbPolyline
 90
57
 70
1
 10
93.964996
 20
230.084002
 30
0.0
 10
94.035484
 20
230.056002
 30
0.0
 10
94.111000
 20
230.026001
 30
0.0
 10
94.208000
 20
230.001113
 30
0.0
 10
94.263000
 20
229.987001
 30
0.0
 10
94.418999
 20
229.968001
 30
0.0
 10
94.575996
 20
229.968001
 30
0.0
 10
94.732002
 20
229.987001
 30
0.0
 10
94.884003
 20
230.026001
 30
0.0
 10
94.959518
 20
230.056002
 30
0.0
 10
95.029999
 20
230.084002
 30
0.0
 10
95.167000
 20
230.160001
 30
0.0
 10
95.293999
 20
230.252001
 30
0.0
 10
95.408997
 20
230.360002
 30
0.0
 10
95.509003
 20
230.481001
 30
0.0
 10
95.593002
 20
230.614001
 30
0.0
 10
95.660004
 20
230.756001
 30
0.0
 10
95.708000
 20
230.906001
 30
0.0
 10
95.737999
 20
231.061001
 30
0.0
 10
95.739212
 20
231.080001
 30
0.0
 10
95.748001
 20
231.218001
 30
0.0
 10
95.737999
 20
231.375001
 30
0.0
 10
95.708000
 20
231.529001
 30
0.0
 10
95.660004
 20
231.679001
 30
0.0
 10
95.593002
 20
231.821001
 30
0.0
 10
95.509003
 20
231.954000
 30
0.0
 10
95.408997
 20
232.075001
 30
0.0
 10
95.378120
 20
232.104002
 30
0.0
 10
95.293999
 20
232.183001
 30
0.0
 10
95.167000
 20
232.275002
 30
0.0
 10
95.029999
 20
232.351002
 30
0.0
 10
94.884003
 20
232.409000
 30
0.0
 10
94.732002
 20
232.448002
 30
0.0
 10
94.575996
 20
232.468000
 30
0.0
 10
94.418999
 20
232.468000
 30
0.0
 10
94.263000
 20
232.448002
 30
0.0
 10
94.111000
 20
232.409000
 30
0.0
 10
93.964996
 20
232.351002
 30
0.0
 10
93.828003
 20
232.275002
 30
0.0
 10
93.700996
 20
232.183001
 30
0.0
 10
93.616882
 20
232.104002
 30
0.0
 10
93.585999
 20
232.075001
 30
0.0
 10
93.486000
 20
231.954000
 30
0.0
 10
93.402000
 20
231.821001
 30
0.0
 10
93.334999
 20
231.679001
 30
0.0
 10
93.287003
 20
231.529001
 30
0.0
 10
93.257004
 20
231.375001
 30
0.0
 10
93.248001
 20
231.218001
 30
0.0
 10
93.255913
 20
231.080001
 30
0.0
 10
93.257004
 20
231.061001
 30
0.0
 10
93.287003
 20
230.906001
 30
0.0
 10
93.334999
 20
230.756001
 30
0.0
 10
93.402000
 20
230.614001
 30
0.0
 10
93.486000
 20
230.481001
 30
0.0
 10
93.585999
 20
230.360002
 30
0.0
 10
93.700996
 20
230.252001
 30
0.0
 10
93.828003
 20
230.160001
 30
0.0
  0
LWPOLYLINE
  5
10c
100
AcDbEntity
  8
0
 62
7
100
AcDbPolyline
 90
56
 70
1
 10
153.011993
 20
123.125000
 30
0.0
 10
153.001999
 20
122.968002
 30
0.0
 10
153.011993
 20
122.811005
 30
0.0
 10
153.042007
 20
122.655998
 30
0.0
 10
153.089996
 20
122.506004
 30
0.0
 10
153.156998
 20
122.363998
 30
0.0
 10
153.240997
 20
122.231003
 30
0.0
 10
153.341003
 20
122.110001
 30
0.0
 10
153.455994
 20
122.001999
 30
0.0
 10
153.582993
 20
121.910004
 30
0.0
 10
153.600006
 20
121.900574
 30
0.0
 10
153.720001
 20
121.834000
 30
0.0
 10
153.865997
 20
121.776001
 30
0.0
 10
154.018005
 20
121.737000
 30
0.0
 10
154.173996
 20
121.717003
 30
0.0
 10
154.330994
 20
121.717003
 30
0.0
 10
154.487000
 20
121.737000
 30
0.0
 10
154.623993
 20
121.772156
 30
0.0
 10
154.639008
 20
121.776001
 30
0.0
 10
154.785004
 20
121.834000
 30
0.0
 10
154.921997
 20
121.910004
 30
0.0
 10
155.048996
 20
122.001999
 30
0.0
 10
155.164001
 20
122.110001
 30
0.0
 10
155.264008
 20
122.231003
 30
0.0
 10
155.348007
 20
122.363998
 30
0.0
 10
155.414993
 20
122.506004
 30
0.0
 10
155.424606
 20
122.536003
 30
0.0
 10
155.462997
 20
122.655998
 30
0.0
 10
155.492996
 20
122.811005
 30
0.0
 10
155.503006
 20
122.968002
 30
0.0
 10
155.492996
 20
123.125000
 30
0.0
 10
155.462997
 20
123.278999
 30
0.0
 10
155.414993
 20
123.429001
 30
0.0
 10
155.353195
 20
123.559998
 30
0.0
 10
155.348007
 20
123.570999
 30
0.0
 10
155.264008
 20
123.704002
 30
0.0
 10
155.164001
 20
123.825005
 30
0.0
 10
155.048996
 20
123.932999
 30
0.0
 10
154.921997
 20
124.025002
 30
0.0
 10
154.785004
 20
124.100998
 30
0.0
 10
154.639008
 20
124.159004
 30
0.0
 10
154.487000
 20
124.197998
 30
0.0
 10
154.330994
 20
124.218002
 30
0.0
 10
154.173996
 20
124.218002
 30
0.0
 10
154.018005
 20
124.197998
 30
0.0
 10
153.865997
 20
124.159004
 30
0.0
 10
153.720001
 20
124.100998
 30
0.0
 10
153.600006
 20
124.034431
 30
0.0
 10
153.582993
 20
124.025002
 30
0.0
 10
153.455994
 20
123.932999
 30
0.0
 10
153.341003
 20
123.825005
 30
0.0
 10
153.240997
 20
123.704002
 30
0.0
 10
153.156998
 20
123.570999
 30
0.0
 10
153.151810
 20
123.559998
 30
0.0
 10
153.089996
 20
123.429001
 30
0.0
 10
153.042007
 20
123.278999
 30
0.0
  0
LWPOLYLINE
  5
10d
100
AcDbEntity
  8
0
 62
7
100
AcDbPolyline
 90
23
 70
1
 10
154.487000
 20
129.456001
 30
0.0
 10
154.735001
 20
129.704002
 30
0.0
 10
154.764008
 20
129.733002
 30
0.0
 10
154.940994
 20
130.081001
 30
0.0
 10
155.003006
 20
130.468002
 30
0.0
 10
154.940994
 20
130.854004
 30
0.0
 10
154.764008
 20
131.202003
 30
0.0
 10
154.487000
 20
131.479004
 30
0.0
 10
154.139008
 20
131.655998
 30
0.0
 10
153.751999
 20
131.718002
 30
0.0
 10
153.600006
 20
131.693588
 30
0.0
 10
153.365997
 20
131.655998
 30
0.0
 10
153.016998
 20
131.479004
 30
0.0
 10
152.740997
 20
131.202003
 30
0.0
 10
152.563004
 20
130.854004
 30
0.0
 10
152.501999
 20
130.468002
 30
0.0
 10
152.563004
 20
130.081001
 30
0.0
 10
152.740997
 20
129.733002
 30
0.0
 10
152.769897
 20
129.704002
 30
0.0
 10
153.016998
 20
129.456001
 30
0.0
 10
153.365997
 20
129.278999
 30
0.0
 10
153.751999
 20
129.217003
 30
0.0
 10
154.139008
 20
129.278999
 30
0.0
  0
LWPOLYLINE
  5
10e
100
AcDbEntity
  8
0
 62
7
100
AcDbPolyline
 90
56
 70
1
 10
153.582993
 20
212.665001
 30
0.0
 10
153.600006
 20
212.655571
 30
0.0
 10
153.720001
 20
212.589001
 30
0.0
 10
153.865997
 20
212.531001
 30
0.0
 10
154.018005
 20
212.492001
 30
0.0
 10
154.173996
 20
212.472001
 30
0.0
 10
154.330994
 20
212.472001
 30
0.0
 10
154.487000
 20
212.492001
 30
0.0
 10
154.623993
 20
212.527153
 30
0.0
 10
154.639008
 20
212.531001
 30
0.0
 10
154.785004
 20
212.589001
 30
0.0
 10
154.921997
 20
212.665001
 30
0.0
 10
155.048996
 20
212.757001
 30
0.0
 10
155.164001
 20
212.865001
 30
0.0
 10
155.264008
 20
212.986001
 30
0.0
 10
155.348007
 20
213.119001
 30
0.0
 10
155.414993
 20
213.261001
 30
0.0
 10
155.462997
 20
213.411001
 30
0.0
 10
155.492996
 20
213.565001
 30
0.0
 10
155.499817
 20
213.672001
 30
0.0
 10
155.503006
 20
213.722001
 30
0.0
 10
155.492996
 20
213.879001
 30
0.0
 10
155.462997
 20
214.034001
 30
0.0
 10
155.414993
 20
214.184001
 30
0.0
 10
155.348007
 20
214.326001
 30
0.0
 10
155.264008
 20
214.459001
 30
0.0
 10
155.164001
 20
214.580001
 30
0.0
 10
155.048996
 20
214.688001
 30
0.0
 10
154.921997
 20
214.780001
 30
0.0
 10
154.785004
 20
214.856001
 30
0.0
 10
154.639008
 20
214.914001
 30
0.0
 10
154.623993
 20
214.917850
 30
0.0
 10
154.487000
 20
214.953001
 30
0.0
 10
154.330994
 20
214.972001
 30
0.0
 10
154.173996
 20
214.972001
 30
0.0
 10
154.018005
 20
214.953001
 30
0.0
 10
153.865997
 20
214.914001
 30
0.0
 10
153.720001
 20
214.856001
 30
0.0
 10
153.600006
 20
214.789432
 30
0.0
 10
153.582993
 20
214.780001
 30
0.0
 10
153.455994
 20
214.688001
 30
0.0
 10
153.341003
 20
214.580001
 30
0.0
 10
153.240997
 20
214.459001
 30
0.0
 10
153.156998
 20
214.326001
 30
0.0
 10
153.089996
 20
214.184001
 30
0.0
 10
153.042007
 20
214.034001
 30
0.0
 10
153.011993
 20
213.879001
 30
0.0
 10
153.001999
 20
213.722001
 30
0.0
 10
153.005188
 20
213.672001
 30
0.0
 10
153.011993
 20
213.565001
 30
0.0
 10
153.042007
 20
213.411001
 30
0.0
 10
153.089996
 20
213.261001
 30
0.0
 10
153.156998
 20
213.119001
 30
0.0
 10
153.240997
 20
212.986001
 30
0.0
 10
153.341003
 20
212.865001
 30
0.0
 10
153.455994
 20
212.757001
 30
0.0
  0
LWPOLYLINE
  5
10f
100
AcDbEntity
  8
0
 62
7
100
AcDbPolyline
 90
22
 70
1
 10
152.563004
 20
206.359001
 30
0.0
 10
152.501999
 20
205.972001
 30
0.0
 10
152.563004
 20
205.586001
 30
0.0
 10
152.740997
 20
205.238001
 30
0.0
 10
153.016998
 20
204.961001
 30
0.0
 10
153.365997
 20
204.784001
 30
0.0
 10
153.600006
 20
204.746416
 30
0.0
 10
153.751999
 20
204.722001
 30
0.0
 10
154.139008
 20
204.784001
 30
0.0
 10
154.487000
 20
204.961001
 30
0.0
 10
154.764008
 20
205.238001
 30
0.0
 10
154.940994
 20
205.586001
 30
0.0
 10
155.003006
 20
205.972001
 30
0.0
 10
154.940994
 20
206.359001
 30
0.0
 10
154.764008
 20
206.707002
 30
0.0
 10
154.487000
 20
206.984001
 30
0.0
 10
154.139008
 20
207.161001
 30
0.0
 10
153.751999
 20
207.222001
 30
0.0
 10
153.600006
 20
207.197981
 30
0.0
 10
153.365997
 20
207.161001
 30
0.0
 10
153.016998
 20
206.984001
 30
0.0
 10
152.740997
 20
206.707002
 30
0.0
  0
LWPOLYLINE
  5
110
100
AcDbEntity
  8
0
 62
7
100
AcDbPolyline
 90
54
 70
1
 10
94.013000
 20
212.492001
 30
0.0
 10
94.168999
 20
212.472001
 30
0.0
 10
94.208000
 20
212.472001
 30
0.0
 10
94.325996
 20
212.472001
 30
0.0
 10
94.482002
 20
212.492001
 30
0.0
 10
94.634003
 20
212.531001
 30
0.0
 10
94.779999
 20
212.589001
 30
0.0
 10
94.917000
 20
212.665001
 30
0.0
 10
95.043999
 20
212.757001
 30
0.0
 10
95.158997
 20
212.865001
 30
0.0
 10
95.259003
 20
212.986001
 30
0.0
 10
95.343002
 20
213.119001
 30
0.0
 10
95.410004
 20
213.261001
 30
0.0
 10
95.458000
 20
213.411001
 30
0.0
 10
95.487999
 20
213.565001
 30
0.0
 10
95.494812
 20
213.672001
 30
0.0
 10
95.498001
 20
213.722001
 30
0.0
 10
95.487999
 20
213.879001
 30
0.0
 10
95.458000
 20
214.034001
 30
0.0
 10
95.410004
 20
214.184001
 30
0.0
 10
95.343002
 20
214.326001
 30
0.0
 10
95.259003
 20
214.459001
 30
0.0
 10
95.158997
 20
214.580001
 30
0.0
 10
95.043999
 20
214.688001
 30
0.0
 10
94.917000
 20
214.780001
 30
0.0
 10
94.779999
 20
214.856001
 30
0.0
 10
94.634003
 20
214.914001
 30
0.0
 10
94.482002
 20
214.953001
 30
0.0
 10
94.325996
 20
214.972001
 30
0.0
 10
94.208000
 20
214.972001
 30
0.0
 10
94.168999
 20
214.972001
 30
0.0
 10
94.013000
 20
214.953001
 30
0.0
 10
93.861000
 20
214.914001
 30
0.0
 10
93.714996
 20
214.856001
 30
0.0
 10
93.578003
 20
214.780001
 30
0.0
 10
93.450996
 20
214.688001
 30
0.0
 10
93.335999
 20
214.580001
 30
0.0
 10
93.236000
 20
214.459001
 30
0.0
 10
93.152000
 20
214.326001
 30
0.0
 10
93.084999
 20
214.184001
 30
0.0
 10
93.037003
 20
214.034001
 30
0.0
 10
93.007004
 20
213.879001
 30
0.0
 10
92.998001
 20
213.722001
 30
0.0
 10
93.000870
 20
213.672001
 30
0.0
 10
93.007004
 20
213.565001
 30
0.0
 10
93.037003
 20
213.411001
 30
0.0
 10
93.084999
 20
213.261001
 30
0.0
 10
93.152000
 20
213.119001
 30
0.0
 10
93.236000
 20
212.986001
 30
0.0
 10
93.335999
 20
212.865001
 30
0.0
 10
93.450996
 20
212.757001
 30
0.0
 10
93.578003
 20
212.665001
 30
0.0
 10
93.714996
 20
212.589001
 30
0.0
 10
93.861000
 20
212.531001
 30
0.0
  0
LWPOLYLINE
  5
111
100
AcDbEntity
  8
0
 62
7
100
AcDbPolyline
 90
22
 70
1
 10
121.861000
 20
204.784001
 30
0.0
 10
122.248001
 20
204.722001
 30
0.0
 10
122.634003
 20
204.784001
 30
0.0
 10
122.983002
 20
204.961001
 30
0.0
 10
123.259003
 20
205.238001
 30
0.0
 10
123.382782
 20
205.480001
 30
0.0
 10
123.436996
 20
205.586001
 30
0.0
 10
123.498001
 20
205.972001
 30
0.0
 10
123.436996
 20
206.359001
 30
0.0
 10
123.259003
 20
206.707002
 30
0.0
 10
122.983002
 20
206.984001
 30
0.0
 10
122.634003
 20
207.161001
 30
0.0
 10
122.248001
 20
207.222001
 30
0.0
 10
121.861000
 20
207.161001
 30
0.0
 10
121.513000
 20
206.984001
 30
0.0
 10
121.236000
 20
206.707002
 30
0.0
 10
121.058998
 20
206.359001
 30
0.0
 10
120.998001
 20
205.972001
 30
0.0
 10
121.058998
 20
205.586001
 30
0.0
 10
121.112915
 20
205.480001
 30
0.0
 10
121.236000
 20
205.238001
 30
0.0
 10
121.513000
 20
204.961001
 30
0.0
  0
LWPOLYLINE
  5
112
100
AcDbEntity
  8
0
 62
7
100
AcDbPolyline
 90
53
 70
1
 10
106.248001
 20
199.187000
 30
0.0
 10
106.472084
 20
199.336000
 30
0.0
 10
106.496002
 20
199.351902
 30
0.0
 10
106.629997
 20
199.441002
 30
0.0
 10
106.974998
 20
199.743001
 30
0.0
 10
107.278000
 20
200.088001
 30
0.0
 10
107.531998
 20
200.469001
 30
0.0
 10
107.735001
 20
200.880001
 30
0.0
 10
107.883003
 20
201.313002
 30
0.0
 10
107.972000
 20
201.763001
 30
0.0
 10
108.002998
 20
202.220001
 30
0.0
 10
107.972000
 20
202.677001
 30
0.0
 10
107.883003
 20
203.127001
 30
0.0
 10
107.735001
 20
203.560001
 30
0.0
 10
107.531998
 20
203.971002
 30
0.0
 10
107.278000
 20
204.352001
 30
0.0
 10
106.974998
 20
204.697001
 30
0.0
 10
106.629997
 20
204.999002
 30
0.0
 10
106.496002
 20
205.088100
 30
0.0
 10
106.248001
 20
205.253001
 30
0.0
 10
105.836998
 20
205.456001
 30
0.0
 10
105.402000
 20
205.603002
 30
0.0
 10
104.952003
 20
205.693001
 30
0.0
 10
104.494003
 20
205.722001
 30
0.0
 10
104.036003
 20
205.693001
 30
0.0
 10
103.585999
 20
205.603002
 30
0.0
 10
103.152000
 20
205.456001
 30
0.0
 10
102.739998
 20
205.253001
 30
0.0
 10
102.358002
 20
204.999002
 30
0.0
 10
102.013000
 20
204.697001
 30
0.0
 10
101.710999
 20
204.352001
 30
0.0
 10
101.456001
 20
203.971002
 30
0.0
 10
101.252998
 20
203.560001
 30
0.0
 10
101.209251
 20
203.432001
 30
0.0
 10
101.105003
 20
203.127001
 30
0.0
 10
101.015999
 20
202.677001
 30
0.0
 10
100.986000
 20
202.220001
 30
0.0
 10
101.015999
 20
201.763001
 30
0.0
 10
101.105003
 20
201.313002
 30
0.0
 10
101.252998
 20
200.880001
 30
0.0
 10
101.456001
 20
200.469001
 30
0.0
 10
101.710999
 20
200.088001
 30
0.0
 10
102.013000
 20
199.743001
 30
0.0
 10
102.358002
 20
199.441002
 30
0.0
 10
102.515915
 20
199.336000
 30
0.0
 10
102.739998
 20
199.187000
 30
0.0
 10
103.152000
 20
198.984001
 30
0.0
 10
103.585999
 20
198.837002
 30
0.0
 10
104.036003
 20
198.747002
 30
0.0
 10
104.494003
 20
198.717001
 30
0.0
 10
104.952003
 20
198.747002
 30
0.0
 10
105.402000
 20
198.837002
 30
0.0
 10
105.836998
 20
198.984001
 30
0.0
  0
LWPOLYLINE
  5
113
100
AcDbEntity
  8
0
 62
7
100
AcDbPolyline
 90
23
 70
1
 10
121.861000
 20
129.278999
 30
0.0
 10
122.248001
 20
129.217003
 30
0.0
 10
122.634003
 20
129.278999
 30
0.0
 10
122.983002
 20
129.456001
 30
0.0
 10
123.230103
 20
129.704002
 30
0.0
 10
123.259003
 20
129.733002
 30
0.0
 10
123.436996
 20
130.081001
 30
0.0
 10
123.498001
 20
130.468002
 30
0.0
 10
123.436996
 20
130.854004
 30
0.0
 10
123.259003
 20
131.202003
 30
0.0
 10
122.983002
 20
131.479004
 30
0.0
 10
122.879997
 20
131.531242
 30
0.0
 10
122.634003
 20
131.655998
 30
0.0
 10
122.248001
 20
131.718002
 30
0.0
 10
121.861000
 20
131.655998
 30
0.0
 10
121.513000
 20
131.479004
 30
0.0
 10
121.236000
 20
131.202003
 30
0.0
 10
121.058998
 20
130.854004
 30
0.0
 10
120.998001
 20
130.468002
 30
0.0
 10
121.058998
 20
130.081001
 30
0.0
 10
121.236000
 20
129.733002
 30
0.0
 10
121.264999
 20
129.704002
 30
0.0
 10
121.513000
 20
129.456001
 30
0.0
  0
LWPOLYLINE
  5
114
100
AcDbEntity
  8
0
 62
7
100
AcDbPolyline
 90
53
 70
1
 10
102.370003
 20
131.441002
 30
0.0
 10
102.400002
 20
131.421051
 30
0.0
 10
102.751999
 20
131.187004
 30
0.0
 10
103.163002
 20
130.984001
 30
0.0
 10
103.598000
 20
130.836998
 30
0.0
 10
104.047997
 20
130.747002
 30
0.0
 10
104.505997
 20
130.717003
 30
0.0
 10
104.963997
 20
130.747002
 30
0.0
 10
105.414001
 20
130.836998
 30
0.0
 10
105.848000
 20
130.984001
 30
0.0
 10
106.260002
 20
131.187004
 30
0.0
 10
106.496002
 20
131.343925
 30
0.0
 10
106.641998
 20
131.441002
 30
0.0
 10
106.987000
 20
131.743004
 30
0.0
 10
107.289001
 20
132.087997
 30
0.0
 10
107.543999
 20
132.469002
 30
0.0
 10
107.747002
 20
132.880005
 30
0.0
 10
107.894997
 20
133.313004
 30
0.0
 10
107.984001
 20
133.763000
 30
0.0
 10
108.014000
 20
134.220001
 30
0.0
 10
107.984001
 20
134.677002
 30
0.0
 10
107.894997
 20
135.126999
 30
0.0
 10
107.747002
 20
135.559998
 30
0.0
 10
107.543999
 20
135.971001
 30
0.0
 10
107.289001
 20
136.352005
 30
0.0
 10
106.987000
 20
136.696999
 30
0.0
 10
106.641998
 20
136.999001
 30
0.0
 10
106.496002
 20
137.096077
 30
0.0
 10
106.260002
 20
137.252998
 30
0.0
 10
105.848000
 20
137.456001
 30
0.0
 10
105.414001
 20
137.603004
 30
0.0
 10
104.963997
 20
137.693001
 30
0.0
 10
104.505997
 20
137.722000
 30
0.0
 10
104.047997
 20
137.693001
 30
0.0
 10
103.598000
 20
137.603004
 30
0.0
 10
103.163002
 20
137.456001
 30
0.0
 10
102.751999
 20
137.252998
 30
0.0
 10
102.400002
 20
137.018951
 30
0.0
 10
102.370003
 20
136.999001
 30
0.0
 10
102.025002
 20
136.696999
 30
0.0
 10
101.722000
 20
136.352005
 30
0.0
 10
101.468002
 20
135.971001
 30
0.0
 10
101.264999
 20
135.559998
 30
0.0
 10
101.116997
 20
135.126999
 30
0.0
 10
101.028000
 20
134.677002
 30
0.0
 10
100.997002
 20
134.220001
 30
0.0
 10
101.025490
 20
133.800003
 30
0.0
 10
101.028000
 20
133.763000
 30
0.0
 10
101.116997
 20
133.313004
 30
0.0
 10
101.264999
 20
132.880005
 30
0.0
 10
101.468002
 20
132.469002
 30
0.0
 10
101.722000
 20
132.087997
 30
0.0
 10
102.025002
 20
131.743004
 30
0.0
  0
LWPOLYLINE
  5
115
100
AcDbEntity
  8
0
 62
7
100
AcDbPolyline
 90
56
 70
1
 10
94.013000
 20
121.737000
 30
0.0
 10
94.168999
 20
121.717003
 30
0.0
 10
94.208000
 20
121.717003
 30
0.0
 10
94.325996
 20
121.717003
 30
0.0
 10
94.482002
 20
121.737000
 30
0.0
 10
94.634003
 20
121.776001
 30
0.0
 10
94.779999
 20
121.834000
 30
0.0
 10
94.917000
 20
121.910004
 30
0.0
 10
95.043999
 20
122.001999
 30
0.0
 10
95.158997
 20
122.110001
 30
0.0
 10
95.259003
 20
122.231003
 30
0.0
 10
95.343002
 20
122.363998
 30
0.0
 10
95.410004
 20
122.506004
 30
0.0
 10
95.419601
 20
122.536003
 30
0.0
 10
95.458000
 20
122.655998
 30
0.0
 10
95.487999
 20
122.811005
 30
0.0
 10
95.498001
 20
122.968002
 30
0.0
 10
95.487999
 20
123.125000
 30
0.0
 10
95.458000
 20
123.278999
 30
0.0
 10
95.410004
 20
123.429001
 30
0.0
 10
95.348190
 20
123.559998
 30
0.0
 10
95.343002
 20
123.570999
 30
0.0
 10
95.259003
 20
123.704002
 30
0.0
 10
95.158997
 20
123.825005
 30
0.0
 10
95.043999
 20
123.932999
 30
0.0
 10
94.917000
 20
124.025002
 30
0.0
 10
94.779999
 20
124.100998
 30
0.0
 10
94.634003
 20
124.159004
 30
0.0
 10
94.482002
 20
124.197998
 30
0.0
 10
94.325996
 20
124.218002
 30
0.0
 10
94.208000
 20
124.218002
 30
0.0
 10
94.168999
 20
124.218002
 30
0.0
 10
94.013000
 20
124.197998
 30
0.0
 10
93.861000
 20
124.159004
 30
0.0
 10
93.714996
 20
124.100998
 30
0.0
 10
93.578003
 20
124.025002
 30
0.0
 10
93.450996
 20
123.932999
 30
0.0
 10
93.335999
 20
123.825005
 30
0.0
 10
93.236000
 20
123.704002
 30
0.0
 10
93.152000
 20
123.570999
 30
0.0
 10
93.146812
 20
123.559998
 30
0.0
 10
93.084999
 20
123.429001
 30
0.0
 10
93.037003
 20
123.278999
 30
0.0
 10
93.007004
 20
123.125000
 30
0.0
 10
92.998001
 20
122.968002
 30
0.0
 10
93.007004
 20
122.811005
 30
0.0
 10
93.037003
 20
122.655998
 30
0.0
 10
93.075401
 20
122.536003
 30
0.0
 10
93.084999
 20
122.506004
 30
0.0
 10
93.152000
 20
122.363998
 30
0.0
 10
93.236000
 20
122.231003
 30
0.0
 10
93.335999
 20
122.110001
 30
0.0
 10
93.450996
 20
122.001999
 30
0.0
 10
93.578003
 20
121.910004
 30
0.0
 10
93.714996
 20
121.834000
 30
0.0
 10
93.861000
 20
121.776001
 30
0.0
  0
LWPOLYLINE
  5
116
100
AcDbEntity
  8
0
 62
7
100
AcDbPolyline
 90
9
 70
1
 10
-37.930000
 20
182.722000
 30
0.0
 10
-65.536003
 20
182.722000
 30
0.0
 10
-87.502998
 20
182.722000
 30
0.0
 10
-87.502998
 20
165.010002
 30
0.0
 10
-87.502998
 20
162.717003
 30
0.0
 10
-65.536003
 20
162.717003
 30
0.0
 10
-37.930000
 20
162.717003
 30
0.0
 10
-37.498001
 20
162.717003
 30
0.0
 10
-37.498001
 20
182.722000
 30
0.0
  0
LWPOLYLINE
  5
117
100
AcDbEntity
  8
0
 62
7
100
AcDbPolyline
 90
4
 70
1
 10
95.998001
 20
200.969001
 30
0.0
 10
96.998001
 20
200.969001
 30
0.0
 10
96.998001
 20
203.471002
 30
0.0
 10
95.998001
 20
203.471002
 30
0.0
  0
LWPOLYLINE
  5
118
100
AcDbEntity
  8
0
 62
7
100
AcDbPolyline
 90
4
 70
1
 10
68.501999
 20
179.722000
 30
0.0
 10
68.501999
 20
165.717003
 30
0.0
 10
71.502998
 20
165.717003
 30
0.0
 10
71.502998
 20
179.722000
 30
0.0
  0
LWPOLYLINE
  5
119
100
AcDbEntity
  8
0
 62
7
100
AcDbPolyline
 90
4
 70
1
 10
112.001999
 20
135.471001
 30
0.0
 10
112.001999
 20
132.969002
 30
0.0
 10
113.002998
 20
132.969002
 30
0.0
 10
113.002998
 20
135.471001
 30
0.0
  0
LWPOLYLINE
  5
11a
100
AcDbEntity
  8
0
 62
7
100
AcDbPolyline
 90
4
 70
1
 10
68.501999
 20
140.722000
 30
0.0
 10
68.501999
 20
126.717003
 30
0.0
 10
71.502998
 20
126.717003
 30
0.0
 10
71.502998
 20
140.722000
 30
0.0
  0
LWPOLYLINE
  5
11b
100
AcDbEntity
  8
0
 62
7
100
AcDbPolyline
 90
6
 70
1
 10
3.998000
 20
179.722000
 30
0.0
 10
3.998000
 20
165.717003
 30
0.0
 10
5.930000
 20
165.717003
 30
0.0
 10
6.999000
 20
165.717003
 30
0.0
 10
6.999000
 20
179.722000
 30
0.0
 10
5.930000
 20
179.722000
 30
0.0
  0
LWPOLYLINE
  5
11c
100
AcDbEntity
  8
0
 62
7
100
AcDbPolyline
 90
6
 70
1
 10
22.790001
 20
179.722000
 30
0.0
 10
22.499001
 20
179.722000
 30
0.0
 10
22.499001
 20
165.717003
 30
0.0
 10
22.790001
 20
165.717003
 30
0.0
 10
25.500000
 20
165.717003
 30
0.0
 10
25.500000
 20
179.722000
 30
0.0
  0
LWPOLYLINE
  5
11d
100
AcDbEntity
  8
0
 62
7
100
AcDbPolyline
 90
4
 70
1
 10
29.500000
 20
179.722000
 30
0.0
 10
29.500000
 20
165.717003
 30
0.0
 10
32.500000
 20
165.717003
 30
0.0
 10
32.500000
 20
179.722000
 30
0.0
  0
LWPOLYLINE
  5
11e
100
AcDbEntity
  8
0
 62
7
100
AcDbPolyline
 90
4
 70
1
 10
61.501999
 20
179.722000
 30
0.0
 10
61.501999
 20
165.717003
 30
0.0
 10
64.501999
 20
165.717003
 30
0.0
 10
64.501999
 20
179.722000
 30
0.0
  0
LWPOLYLINE
  5
11f
100
AcDbEntity
  8
0
 62
7
100
AcDbPolyline
 90
4
 70
1
 10
54.500999
 20
179.722000
 30
0.0
 10
54.500999
 20
165.717003
 30
0.0
 10
57.501999
 20
165.717003
 30
0.0
 10
57.501999
 20
179.722000
 30
0.0
  0
LWPOLYLINE
  5
120
100
AcDbEntity
  8
0
 62
7
100
AcDbPolyline
 90
4
 70
1
 10
36.500000
 20
179.722000
 30
0.0
 10
36.500000
 20
165.717003
 30
0.0
 10
39.500999
 20
165.717003
 30
0.0
 10
39.500999
 20
179.722000
 30
0.0
  0
LWPOLYLINE
  5
121
100
AcDbEntity
  8
0
 62
7
100
AcDbPolyline
 90
4
 70
1
 10
3.998000
 20
140.722000
 30
0.0
 10
3.998000
 20
126.717003
 30
0.0
 10
6.999000
 20
126.717003
 30
0.0
 10
6.999000
 20
140.722000
 30
0.0
  0
LWPOLYLINE
  5
122
100
AcDbEntity
  8
0
 62
7
100
AcDbPolyline
 90
4
 70
1
 10
22.499001
 20
140.722000
 30
0.0
 10
22.499001
 20
126.717003
 30
0.0
 10
25.500000
 20
126.717003
 30
0.0
 10
25.500000
 20
140.722000
 30
0.0
  0
LWPOLYLINE
  5
123
100
AcDbEntity
  8
0
 62
7
100
AcDbPolyline
 90
4
 70
1
 10
29.500000
 20
140.722000
 30
0.0
 10
29.500000
 20
126.717003
 30
0.0
 10
32.500000
 20
126.717003
 30
0.0
 10
32.500000
 20
140.722000
 30
0.0
  0
LWPOLYLINE
  5
124
100
AcDbEntity
  8
0
 62
7
100
AcDbPolyline
 90
6
 70
1
 10
36.500000
 20
140.722000
 30
0.0
 10
36.500000
 20
126.717003
 30
0.0
 10
38.930000
 20
126.717003
 30
0.0
 10
39.500999
 20
126.717003
 30
0.0
 10
39.500999
 20
140.722000
 30
0.0
 10
38.930000
 20
140.722000
 30
0.0
  0
LWPOLYLINE
  5
125
100
AcDbEntity
  8
0
 62
7
100
AcDbPolyline
 90
4
 70
1
 10
64.501999
 20
140.722000
 30
0.0
 10
61.501999
 20
140.722000
 30
0.0
 10
61.501999
 20
126.717003
 30
0.0
 10
64.501999
 20
126.717003
 30
0.0
  0
LWPOLYLINE
  5
126
100
AcDbEntity
  8
0
 62
7
100
AcDbPolyline
 90
4
 70
1
 10
57.501999
 20
140.722000
 30
0.0
 10
54.500999
 20
140.722000
 30
0.0
 10
54.500999
 20
126.717003
 30
0.0
 10
57.501999
 20
126.717003
 30
0.0
  0
LWPOLYLINE
  5
127
100
AcDbEntity
  8
0
 62
7
100
AcDbPolyline
 90
6
 70
1
 10
-10.003000
 20
179.722000
 30
0.0
 10
-10.003000
 20
166.568001
 30
0.0
 10
-10.003000
 20
165.717003
 30
0.0
 10
-7.002000
 20
165.717003
 30
0.0
 10
-7.002000
 20
166.568001
 30
0.0
 10
-7.002000
 20
179.722000
 30
0.0
  0
LWPOLYLINE
  5
128
100
AcDbEntity
  8
0
 62
7
100
AcDbPolyline
 90
6
 70
1
 10
-3.002000
 20
179.722000
 30
0.0
 10
-3.002000
 20
166.568001
 30
0.0
 10
-3.002000
 20
165.717003
 30
0.0
 10
-0.002000
 20
165.717003
 30
0.0
 10
-0.002000
 20
166.568001
 30
0.0
 10
-0.002000
 20
179.722000
 30
0.0
  0
LWPOLYLINE
  5
129
100
AcDbEntity
  8
0
 62
7
100
AcDbPolyline
 90
4
 70
1
 10
-10.003000
 20
140.722000
 30
0.0
 10
-10.003000
 20
126.717003
 30
0.0
 10
-7.002000
 20
126.717003
 30
0.0
 10
-7.002000
 20
140.722000
 30
0.0
  0
LWPOLYLINE
  5
12a
100
AcDbEntity
  8
0
 62
7
100
AcDbPolyline
 90
4
 70
1
 10
-3.002000
 20
140.722000
 30
0.0
 10
-3.002000
 20
126.717003
 30
0.0
 10
-0.002000
 20
126.717003
 30
0.0
 10
-0.002000
 20
140.722000
 30
0.0
  0
LWPOLYLINE
  5
12b
100
AcDbEntity
  8
0
 62
7
100
AcDbPolyline
 90
4
 70
1
 10
-42.998001
 20
140.722000
 30
0.0
 10
-42.998001
 20
126.717003
 30
0.0
 10
-39.998001
 20
126.717003
 30
0.0
 10
-39.998001
 20
140.722000
 30
0.0
  0
LWPOLYLINE
  5
12c
100
AcDbEntity
  8
0
 62
7
100
AcDbPolyline
 90
4
 70
1
 10
-49.999001
 20
140.722000
 30
0.0
 10
-49.999001
 20
126.717003
 30
0.0
 10
-46.998001
 20
126.717003
 30
0.0
 10
-46.998001
 20
140.722000
 30
0.0
  0
LWPOLYLINE
  5
12d
100
AcDbEntity
  8
0
 62
7
100
AcDbPolyline
 90
4
 70
1
 10
-56.999001
 20
140.722000
 30
0.0
 10
-56.999001
 20
126.717003
 30
0.0
 10
-53.999001
 20
126.717003
 30
0.0
 10
-53.999001
 20
140.722000
 30
0.0
  0
LWPOLYLINE
  5
12e
100
AcDbEntity
  8
0
 62
7
100
AcDbPolyline
 90
4
 70
1
 10
-71.000999
 20
140.722000
 30
0.0
 10
-71.000999
 20
126.717003
 30
0.0
 10
-68.000999
 20
126.717003
 30
0.0
 10
-68.000999
 20
140.722000
 30
0.0
  0
LWPOLYLINE
  5
12f
100
AcDbEntity
  8
0
 62
7
100
AcDbPolyline
 90
4
 70
1
 10
-78.001999
 20
140.722000
 30
0.0
 10
-78.001999
 20
126.717003
 30
0.0
 10
-75.000999
 20
126.717003
 30
0.0
 10
-75.000999
 20
140.722000
 30
0.0
  0
LWPOLYLINE
  5
130
100
AcDbEntity
  8
0
 62
7
100
AcDbPolyline
 90
5
 70
1
 10
-85.002998
 20
140.722000
 30
0.0
 10
-85.002998
 20
126.717003
 30
0.0
 10
-82.001999
 20
126.717003
 30
0.0
 10
-82.001999
 20
140.722000
 30
0.0
 10
-85.002998
 20
140.722000
 30
0.0
  0
ENDSEC
  0
SECTION
  2
OBJECTS
  0
DICTIONARY
  5
C
330
0
100
AcDbDictionary
  3
ACAD_GROUP
350
D
  3
ACAD_MLINESTYLE
350
17
  0
DICTIONARY
  5
D
330
C
100
AcDbDictionary
  0
DICTIONARY
  5
1A
330
C
100
AcDbDictionary
  0
DICTIONARY
  5
17
330
C
100
AcDbDictionary
  3
STANDARD
350
18
  0
DICTIONARY
  5
19
330
C
100
AcDbDictionary
  0
ENDSEC
  0
EOF
