<?xml version="1.0" standalone="no"?>
<!DOCTYPE svg PUBLIC "-//W3C//DTD SVG 1.1//EN"
  "http://www.w3.org/Graphics/SVG/1.1/DTD/svg11.dtd">
<svg width="157mm" height="71.99999999999999mm" viewBox="-31 -30.999999999999993 157 71.99999999999999" xmlns="http://www.w3.org/2000/svg" version="1.1">
	<title>svgOutput</title>
	<desc>made with tinkercad</desc>
<path d="M -3.9100000858306885 -3.999999999999999 L -3.9100000858306885 -0.9999999999999997 L 0 -0.9999999999999997 L 0 35.99999999999999 L 0 36.99999999999999 L -3.9100000858306885 36.99999999999999 L -3.9100000858306885 39.99999999999999 L -26.09000015258789 39.99999999999999 L -26.09000015258789 36.99999999999999 L -30 36.99999999999999 L -30 35.99999999999999 L -30 -0.9999999999999997 L -26.09000015258789 -0.9999999999999997 L -26.09000015258789 -3.999999999999999 L -3.9100000858306885 -3.999999999999999 M 29.09000015258789 -3.999999999999999 L 29.09000015258789 -0.9999999999999997 L 33 -0.9999999999999997 L 33 35.99999999999999 L 33 36.99999999999999 L 29.09000015258789 36.99999999999999 L 29.09000015258789 39.99999999999999 L 6.909999847412109 39.99999999999999 L 6.909999847412109 36.99999999999999 L 3 36.99999999999999 L 3 35.99999999999999 L 3 -0.9999999999999997 L 6.909999847412109 -0.9999999999999997 L 6.909999847412109 -3.999999999999999 L 29.09000015258789 -3.999999999999999 M 37 35.99999999999999 L 37 35.84000015258788 L 37 34.81600189208984 L 37 33.791999816894524 L 37 32.76800155639648 L 37 31.743999481201165 L 37 30.719999313354485 L 37 29.695999145507805 L 37 28.67200088500976 L 37 24.57600021362304 L 37 19.999999999999996 L 37 -0.9980000257492062 L 37 -0.9999999999999997 L 37 -3.999999999999999 L 37 -9.999999999999998 L 37 -16.38400077819824 L 37 -18.431999206542965 L 37 -19.455999374389645 L 37 -20.479999542236325 L 37 -21.503999710083004 L 37 -22.527999877929684 L 37 -23.552000045776364 L 37 -24.57600021362304 L 37 -25.60000038146972 L 37 -26.6240005493164 L 37 -27.64800071716308 L 37 -27.999999999999993 L 37.00600051879883 -28.156999588012688 L 37.00636672973633 -28.159999847412102 L 37.025001525878906 -28.31299972534179 L 37.05500030517578 -28.46699905395507 L 37.097999572753906 -28.61800003051757 L 37.117835998535156 -28.67200088500976 L 37.152000427246094 -28.76499938964843 L 37.21799850463867 -28.908000946044915 L 37.29499816894531 -29.045000076293938 L 37.375999450683594 -29.166965484619134 L 37.38199996948242 -29.176000595092766 L 37.388309478759766 -29.184000015258782 L 37.479000091552734 -29.298999786376946 L 37.58599853515625 -29.41399955749511 L 37.70100021362305 -29.52099990844726 L 37.82400131225586 -29.61800003051757 L 37.88800048828125 -29.660503387451165 L 37.94144821166992 -29.695999145507805 L 37.95500183105469 -29.704999923706048 L 38.09199905395508 -29.781999588012688 L 38.23500061035156 -29.8479995727539 L 38.38199996948242 -29.902000427246087 L 38.400001525878906 -29.907125473022454 L 38.53300094604492 -29.94499969482421 L 38.6870002746582 -29.97500038146972 L 38.84299850463867 -29.993999481201165 L 38.9119987487793 -29.996637344360344 L 39 -29.999999999999993 L 39.42399978637695 -29.999999999999993 L 39.93600082397461 -29.999999999999993 L 40.959999084472656 -29.999999999999993 L 41.98400115966797 -29.999999999999993 L 43.007999420166016 -29.999999999999993 L 44.03200149536133 -29.999999999999993 L 45.055999755859375 -29.999999999999993 L 46.08000183105469 -29.999999999999993 L 47 -29.999999999999993 L 65.55060577392578 -29.999999999999993 L 77.99800109863281 -29.999999999999993 L 87 -29.999999999999993 L 92 -29.999999999999993 L 92.16000366210938 -29.999999999999993 L 93.18399810791016 -29.999999999999993 L 94.20800018310547 -29.999999999999993 L 95.23200225830078 -29.999999999999993 L 96.25599670410156 -29.999999999999993 L 97.27999877929688 -29.999999999999993 L 98.30400085449219 -29.999999999999993 L 99.3280029296875 -29.999999999999993 L 100.35199737548828 -29.999999999999993 L 101.3759994506836 -29.999999999999993 L 102.4000015258789 -29.999999999999993 L 103.42400360107422 -29.999999999999993 L 104.447998046875 -29.999999999999993 L 104.95999908447266 -29.999999999999993 L 105 -29.999999999999993 L 105.15699768066406 -29.993999481201165 L 105.31300354003906 -29.97500038146972 L 105.46700286865234 -29.94499969482421 L 105.47200012207031 -29.943576812744134 L 105.61799621582031 -29.902000427246087 L 105.76499938964844 -29.8479995727539 L 105.90799713134766 -29.781999588012688 L 105.98400115966797 -29.739284515380852 L 106.04499816894531 -29.704999923706048 L 106.05854797363281 -29.695999145507805 L 106.1760025024414 -29.61800003051757 L 106.29900360107422 -29.52099990844726 L 106.41400146484375 -29.41399955749511 L 106.49600219726562 -29.325868606567376 L 106.52100372314453 -29.298999786376946 L 106.6116943359375 -29.184000015258782 L 106.61799621582031 -29.176000595092766 L 106.70500183105469 -29.045000076293938 L 106.78199768066406 -28.908000946044915 L 106.8479995727539 -28.76499938964843 L 106.88216400146484 -28.67200088500976 L 106.9020004272461 -28.61800003051757 L 106.94499969482422 -28.46699905395507 L 106.9749984741211 -28.31299972534179 L 106.99363708496094 -28.159999847412102 L 106.99400329589844 -28.156999588012688 L 107 -27.999999999999993 L 107 -27.64800071716308 L 107 -26.6240005493164 L 107 -24.57600021362304 L 107 -22.527999877929684 L 107 -20.479999542236325 L 107 -19.999999999999996 L 107 -19.455999374389645 L 107 -18.94400024414062 L 107 -18.431999206542965 L 107 -17.999999999999996 L 107 -17.92000007629394 L 107 -17.40800094604492 L 107 -16.38400077819824 L 107 -14.33600044250488 L 107 -12.28800010681152 L 107 -10.239999771118162 L 107 -9.999999999999998 L 107 -8.19200038909912 L 107 -6.14400005340576 L 107 -4.09600019454956 L 107 -3.999999999999999 L 107 -2.04800009727478 L 107 -1.9999999999999996 L 106.99400329589844 -1.8430000543594356 L 106.9749984741211 -1.6870000362396236 L 106.94558715820312 -1.53600001335144 L 106.94499969482422 -1.532999992370605 L 106.9020004272461 -1.3819999694824214 L 106.8479995727539 -1.2350000143051143 L 106.78199768066406 -1.092000007629394 L 106.74378204345703 -1.0240000486373897 L 106.70500183105469 -0.9549999833106991 L 106.61799621582031 -0.824000000953674 L 106.52100372314453 -0.7009999752044676 L 106.49600219726562 -0.674130856990814 L 106.41400146484375 -0.5860000252723692 L 106.33446502685547 -0.5120000243186948 L 106.29900360107422 -0.479000002145767 L 106.1760025024414 -0.38199999928474404 L 106.04499816894531 -0.294999986886978 L 105.98400115966797 -0.2607153356075285 L 105.90799713134766 -0.2179999947547911 L 105.76499938964844 -0.151999995112419 L 105.61799621582031 -0.09799999743700014 L 105.47200012207031 -0.05642384290695178 L 105.46700286865234 -0.05499999970197665 L 105.31300354003906 -0.025000000372528912 L 105.15699768066406 -0.006000000052153951 L 105 1.1102230246251565e-16 L 104.95999908447266 1.1102230246251565e-16 L 104.447998046875 1.1102230246251565e-16 L 102.4000015258789 1.1102230246251565e-16 L 100.44200134277344 1.1102230246251565e-16 L 100.44200134277344 -1.0240000486373897 L 100.44200134277344 -2.04800009727478 L 100.44200134277344 -4.09600019454956 L 100.44200134277344 -5.9790000915527335 L 100.44200134277344 -6.002999782562254 L 100.37606048583984 -6.002999782562254 L 98.30400085449219 -6.757181167602537 L 94.36193084716797 -8.19200038909912 L 87 -10.871566772460936 L 77.99800109863281 -14.148079872131344 L 75 -15.23928070068359 L 61.9119987487793 -20.00300025939941 L 55 -1.0124175548553462 L 54.9947509765625 -0.9980000257492062 L 49.53593063354492 13.999999999999996 L 47.35211181640625 19.999999999999996 L 47 20.96742248535156 L 45.686588287353516 24.57600021362304 L 42.7049446105957 32.76800155639648 L 41.21412658691406 36.86399841308593 L 40.959999084472656 37.562202453613274 L 40.8414192199707 37.88800048828124 L 40.46871566772461 38.91199874877929 L 40.072715759277344 39.99999999999999 L 39.93600082397461 39.99999999999999 L 39 39.99999999999999 L 38.9119987487793 39.99663543701171 L 38.84299850463867 39.993999481201165 L 38.6870002746582 39.97499847412109 L 38.53300094604492 39.94499969482421 L 38.50139617919922 39.9360008239746 L 38.400001525878906 39.90712738037109 L 38.38199996948242 39.90200042724609 L 38.23500061035156 39.8479995727539 L 38.09199905395508 39.78200149536132 L 37.95500183105469 39.70500183105468 L 37.88800048828125 39.660503387451165 L 37.82400131225586 39.61800003051757 L 37.70100021362305 39.52099990844726 L 37.59674835205078 39.423999786376946 L 37.58599853515625 39.41400146484374 L 37.479000091552734 39.298999786376946 L 37.38199996948242 39.17599868774413 L 37.375999450683594 39.16696548461913 L 37.29499816894531 39.044998168945305 L 37.22024917602539 38.91199874877929 L 37.21799850463867 38.908000946044915 L 37.152000427246094 38.76499938964843 L 37.097999572753906 38.61800003051757 L 37.05500030517578 38.46699905395507 L 37.04194641113281 38.4000015258789 L 37.025001525878906 38.31299972534179 L 37.00600051879883 38.15700149536132 L 37 37.99999999999999 L 37 37.88800048828124 L 37 36.99999999999999 L 37 36.86399841308593 L 37 35.99999999999999 M 61.623939514160156 16.00300025939941 L 62.670711517333984 16.38400077819824 L 65.53600311279297 17.42689704895019 L 75 20.871566772460934 L 84.00299835205078 24.14844322204589 L 87 25.239280700683587 L 100.07975769042969 29.999999999999993 L 100.08799743652344 30.003000259399407 L 100.0890884399414 29.999999999999993 L 107.00543975830078 10.998000144958494 L 111.00849151611328 1.1102230246251565e-16 L 112.46440887451172 -3.999999999999999 L 114.6482925415039 -9.999999999999998 L 115 -10.966281890869139 L 116.97193908691406 -16.38400077819824 L 119.95366668701172 -24.57600021362304 L 121.44452667236328 -28.67200088500976 L 121.81724548339844 -29.695999145507805 L 121.85600280761719 -29.80248069763183 L 121.92789459228516 -29.999999999999993 L 122.87999725341797 -29.999999999999993 L 123 -29.999999999999993 L 123.15699768066406 -29.993999481201165 L 123.31300354003906 -29.97500038146972 L 123.39199829101562 -29.959609985351555 L 123.46700286865234 -29.94499969482421 L 123.61799621582031 -29.902000427246087 L 123.76499938964844 -29.8479995727539 L 123.90399932861328 -29.78384590148925 L 123.90799713134766 -29.781999588012688 L 124.04499816894531 -29.704999923706048 L 124.05854797363281 -29.695999145507805 L 124.1760025024414 -29.61800003051757 L 124.29900360107422 -29.52099990844726 L 124.41400146484375 -29.41399955749511 L 124.41600036621094 -29.41184997558593 L 124.52100372314453 -29.298999786376946 L 124.6116943359375 -29.184000015258782 L 124.61799621582031 -29.176000595092766 L 124.70500183105469 -29.045000076293938 L 124.78199768066406 -28.908000946044915 L 124.8479995727539 -28.76499938964843 L 124.88216400146484 -28.67200088500976 L 124.9020004272461 -28.61800003051757 L 124.9280014038086 -28.52669715881347 L 124.94499969482422 -28.46699905395507 L 124.9749984741211 -28.31299972534179 L 124.99363708496094 -28.159999847412102 L 124.99400329589844 -28.156999588012688 L 125 -27.999999999999993 L 125 -27.64800071716308 L 125 -26.6240005493164 L 125 -24.57600021362304 L 125 -22.527999877929684 L 125 -20.479999542236325 L 125 -18.431999206542965 L 125 -16.38400077819824 L 125 -9.999999999999998 L 125 1.1102230246251565e-16 L 125 10.998000144958494 L 125 19.999999999999996 L 125 29.999999999999993 L 125 30.719999313354485 L 125 32.76800155639648 L 125 34.81600189208984 L 125 36.86399841308593 L 125 37.88800048828124 L 125 37.99999999999999 L 124.99400329589844 38.15700149536132 L 124.9749984741211 38.31299972534179 L 124.95805358886719 38.4000015258789 L 124.94499969482422 38.46699905395507 L 124.9280014038086 38.5266990661621 L 124.9020004272461 38.61800003051757 L 124.8479995727539 38.76499938964843 L 124.78199768066406 38.908000946044915 L 124.77975463867188 38.91199874877929 L 124.70500183105469 39.044998168945305 L 124.61799621582031 39.17599868774413 L 124.52100372314453 39.298999786376946 L 124.41600036621094 39.41184997558593 L 124.41400146484375 39.41400146484374 L 124.40325164794922 39.423999786376946 L 124.29900360107422 39.52099990844726 L 124.1760025024414 39.61800003051757 L 124.04499816894531 39.70500183105468 L 123.90799713134766 39.78200149536132 L 123.90399932861328 39.78384780883788 L 123.76499938964844 39.8479995727539 L 123.61799621582031 39.90200042724609 L 123.49860382080078 39.9360008239746 L 123.46700286865234 39.94499969482421 L 123.39199829101562 39.959609985351555 L 123.31300354003906 39.97499847412109 L 123.15699768066406 39.993999481201165 L 123 39.99999999999999 L 122.87999725341797 39.99999999999999 L 120.83200073242188 39.99999999999999 L 118.78399658203125 39.99999999999999 L 116.73600006103516 39.99999999999999 L 115 39.99999999999999 L 96.44929504394531 39.99999999999999 L 87 39.99999999999999 L 84.00299835205078 39.99999999999999 L 70 39.99999999999999 L 69.63200378417969 39.99999999999999 L 67.58399963378906 39.99999999999999 L 65.53600311279297 39.99999999999999 L 63.487998962402344 39.99999999999999 L 61.439998626708984 39.99999999999999 L 59.391998291015625 39.99999999999999 L 57.34400177001953 39.99999999999999 L 57 39.99999999999999 L 56.84299850463867 39.993999481201165 L 56.832000732421875 39.99266052246093 L 56.6870002746582 39.97499847412109 L 56.53300094604492 39.94499969482421 L 56.50139617919922 39.9360008239746 L 56.38199996948242 39.90200042724609 L 56.31999969482422 39.87922286987304 L 56.23500061035156 39.8479995727539 L 56.09199905395508 39.78200149536132 L 55.95500183105469 39.70500183105468 L 55.82400131225586 39.61800003051757 L 55.80799865722656 39.60538101196288 L 55.70100021362305 39.52099990844726 L 55.59674835205078 39.423999786376946 L 55.58599853515625 39.41400146484374 L 55.479000091552734 39.298999786376946 L 55.38199996948242 39.17599868774413 L 55.29600143432617 39.04650497436523 L 55.29499816894531 39.044998168945305 L 55.22024917602539 38.91199874877929 L 55.21799850463867 38.908000946044915 L 55.152000427246094 38.76499938964843 L 55.097999572753906 38.61800003051757 L 55.05500030517578 38.46699905395507 L 55.04194641113281 38.4000015258789 L 55.025001525878906 38.31299972534179 L 55.00600051879883 38.15700149536132 L 55 37.99999999999999 L 55 37.88800048828124 L 55 36.86399841308593 L 55 34.81600189208984 L 55 32.76800155639648 L 55 30.719999313354485 L 55 29.999999999999993 L 55 29.695999145507805 L 55 29.184000015258782 L 55 28.67200088500976 L 55 28.159999847412102 L 55 27.999999999999993 L 55 27.64800071716308 L 55 26.6240005493164 L 55 24.57600021362304 L 55 22.527999877929684 L 55 20.479999542236325 L 55 19.999999999999996 L 55 18.431999206542965 L 55 16.38400077819824 L 55 14.33600044250488 L 55 13.999999999999996 L 55 12.28800010681152 L 55 11.999999999999996 L 55.00600051879883 11.843000411987303 L 55.01416015625 11.776000022888182 L 55.025001525878906 11.687000274658201 L 55.05500030517578 11.532999992370604 L 55.097999572753906 11.38199996948242 L 55.1413459777832 11.263999938964842 L 55.152000427246094 11.234999656677244 L 55.21799850463867 11.092000007629393 L 55.29499816894531 10.954999923706053 L 55.29600143432617 10.953494071960447 L 55.38199996948242 10.824000358581541 L 55.43878173828125 10.751999855041502 L 55.479000091552734 10.701000213623045 L 55.58599853515625 10.586000442504881 L 55.70100021362305 10.479000091552733 L 55.80799865722656 10.394618034362791 L 55.82400131225586 10.38199996948242 L 55.95500183105469 10.295000076293944 L 56.0528564453125 10.239999771118162 L 56.09199905395508 10.218000411987303 L 56.23500061035156 10.152000427246092 L 56.31999969482422 10.120775222778319 L 56.38199996948242 10.097999572753904 L 56.53300094604492 10.05500030517578 L 56.6870002746582 10.024999618530272 L 56.832000732421875 10.00733947753906 L 56.84299850463867 10.00599956512451 L 57 9.999999999999998 L 57.34400177001953 9.999999999999998 L 59.391998291015625 9.999999999999998 L 61.439998626708984 9.999999999999998 L 61.55799865722656 9.999999999999998 L 61.55799865722656 10.239999771118162 L 61.55799865722656 12.28800010681152 L 61.55799865722656 13.999999999999996 L 61.55799865722656 15.97900009155273 L 61.55799865722656 16.00300025939941 L 61.623939514160156 16.00300025939941 M 77.99800109863281 -19.997999191284176 L 87 -19.997999191284176 L 98.30400085449219 -19.997999191284176 L 100.00299835205078 -19.997999191284176 L 100.00299835205078 -19.999999999999996 L 100.00299835205078 -20.479999542236325 L 100.00299835205078 -23.00300025939941 L 98.30400085449219 -23.00300025939941 L 92 -23.00300025939941 L 87 -23.00300025939941 L 77.99800109863281 -23.00300025939941 L 77.99800109863281 -19.997999191284176 M 114.99800109863281 10.998000144958494 L 114.99800109863281 29.999999999999993 L 114.99800109863281 33.002998352050774 L 115 33.002998352050774 L 118.00299835205078 33.002998352050774 L 118.00299835205078 32.76800155639648 L 118.00299835205078 29.999999999999993 L 118.00299835205078 19.999999999999996 L 118.00299835205078 10.998000144958494 L 115 10.998000144958494 L 114.99800109863281 10.998000144958494 M 43.99800109863281 -23.00300025939941 L 43.99800109863281 -16.38400077819824 L 43.99800109863281 -9.999999999999998 L 43.99800109863281 -0.9980000257492062 L 47 -0.9980000257492062 L 47.00299835205078 -0.9980000257492062 L 47.00299835205078 -23.00300025939941 L 47 -23.00300025939941 L 43.99800109863281 -23.00300025939941 M 69.63200378417969 33.002998352050774 L 70 33.002998352050774 L 84.00299835205078 33.002998352050774 L 84.00299835205078 29.999999999999993 L 84.00299835205078 29.997999191284173 L 75 29.997999191284173 L 65.53600311279297 29.997999191284173 L 61.99800109863281 29.997999191284173 L 61.99800109863281 29.999999999999993 L 61.99800109863281 32.76800155639648 L 61.99800109863281 33.002998352050774 L 65.53600311279297 33.002998352050774 L 69.63200378417969 33.002998352050774 z" fill="none" stroke="rgb(255,0,0)" stroke-width="0.001mm" />
</svg>