<?xml version="1.0" standalone="no"?>
<!DOCTYPE svg PUBLIC "-//W3C//DTD SVG 1.1//EN"
  "http://www.w3.org/Graphics/SVG/1.1/DTD/svg11.dtd">
<svg width="264.07999420166016mm" height="215.72000122070307mm" viewBox="-101.18000030517578 -114.54000091552732 264.07999420166016 215.72000122070307" xmlns="http://www.w3.org/2000/svg" version="1.1">
	<title>svgOutput</title>
	<desc>made with tinkercad</desc>
<path d="M 149.14999389648438 -113.54000091552732 L 149.14999389648438 -110.54000091552732 L 153.2519989013672 -110.54000091552732 L 155.7530059814453 -110.54000091552732 L 158.89999389648438 -110.54000091552732 L 158.89999389648438 -105.00199890136716 L 158.89999389648438 -102.29000091552732 L 161.89999389648438 -102.29000091552732 L 161.89999389648438 -85.43000030517577 L 158.89999389648438 -85.43000030517577 L 158.89999389648438 -69.29000091552733 L 161.89999389648438 -69.29000091552733 L 161.89999389648438 -65.53600311279295 L 161.89999389648438 -52.43000030517577 L 158.89999389648438 -52.43000030517577 L 158.89999389648438 -41.998001098632805 L 158.89999389648438 -36.29000091552734 L 161.89999389648438 -36.29000091552734 L 161.89999389648438 -19.430000305175778 L 158.89999389648438 -19.430000305175778 L 158.89999389648438 -14.248000144958493 L 158.89999389648438 -11.18000030517578 L 153.2519989013672 -11.18000030517578 L 149.14999389648438 -11.18000030517578 L 149.14999389648438 -8.18000030517578 L 132.2899932861328 -8.18000030517578 L 132.2899932861328 -11.18000030517578 L 131.07200622558594 -11.18000030517578 L 116.1500015258789 -11.18000030517578 L 116.1500015258789 -8.18000030517578 L 99.29000091552734 -8.18000030517578 L 99.29000091552734 -11.18000030517578 L 93.24800109863281 -11.18000030517578 L 89.54000091552734 -11.18000030517578 L 89.54000091552734 -19.430000305175778 L 86.54000091552734 -19.430000305175778 L 86.54000091552734 -32.76800155639648 L 86.54000091552734 -36.29000091552734 L 89.54000091552734 -36.29000091552734 L 89.54000091552734 -52.43000030517577 L 86.54000091552734 -52.43000030517577 L 86.54000091552734 -65.53600311279295 L 86.54000091552734 -69.29000091552733 L 89.54000091552734 -69.29000091552733 L 89.54000091552734 -85.43000030517577 L 86.54000091552734 -85.43000030517577 L 86.54000091552734 -102.29000091552732 L 89.54000091552734 -102.29000091552732 L 89.54000091552734 -110.54000091552732 L 93.24800109863281 -110.54000091552732 L 95.74800109863281 -110.54000091552732 L 99.29000091552734 -110.54000091552732 L 99.29000091552734 -113.54000091552732 L 116.1500015258789 -113.54000091552732 L 116.1500015258789 -110.54000091552732 L 131.07200622558594 -110.54000091552732 L 132.2899932861328 -110.54000091552732 L 132.2899932861328 -113.54000091552732 L 149.14999389648438 -113.54000091552732 M 158.89999389648438 -2.1800000667572017 L 158.89999389648438 1.1102230246251565e-16 L 158.89999389648438 3.247999906539916 L 158.89999389648438 6.070000171661375 L 161.89999389648438 6.070000171661375 L 161.89999389648438 22.930000305175778 L 158.89999389648438 22.930000305175778 L 158.89999389648438 39.06999969482421 L 161.89999389648438 39.06999969482421 L 161.89999389648438 55.93000030517577 L 158.89999389648438 55.93000030517577 L 158.89999389648438 72.0699996948242 L 161.89999389648438 72.0699996948242 L 161.89999389648438 86.50299835205077 L 161.89999389648438 88.93000030517577 L 158.89999389648438 88.93000030517577 L 158.89999389648438 94.00299835205077 L 158.89999389648438 97.18000030517575 L 153.0019989013672 97.18000030517575 L 149.14999389648438 97.18000030517575 L 149.14999389648438 100.18000030517575 L 132.2899932861328 100.18000030517575 L 132.2899932861328 97.18000030517575 L 131.07200622558594 97.18000030517575 L 120.99800109863281 97.18000030517575 L 116.1500015258789 97.18000030517575 L 116.1500015258789 100.18000030517575 L 100.99700164794922 100.18000030517575 L 99.29000091552734 100.18000030517575 L 99.29000091552734 97.18000030517575 L 98.30400085449219 97.18000030517575 L 92.99800109863281 97.18000030517575 L 89.54000091552734 97.18000030517575 L 89.54000091552734 90.43000030517577 L 89.54000091552734 88.93000030517577 L 86.54000091552734 88.93000030517577 L 86.54000091552734 72.0699996948242 L 89.54000091552734 72.0699996948242 L 89.54000091552734 66.8199996948242 L 89.54000091552734 65.53600311279295 L 89.54000091552734 55.93000030517577 L 86.54000091552734 55.93000030517577 L 86.54000091552734 39.06999969482421 L 89.54000091552734 39.06999969482421 L 89.54000091552734 32.76800155639648 L 89.54000091552734 24.45999908447265 L 89.54000091552734 22.930000305175778 L 86.54000091552734 22.930000305175778 L 86.54000091552734 6.070000171661375 L 89.54000091552734 6.070000171661375 L 89.54000091552734 1.1102230246251565e-16 L 89.54000091552734 -2.1800000667572017 L 99.29000091552734 -2.1800000667572017 L 99.29000091552734 -5.179999828338622 L 116.1500015258789 -5.179999828338622 L 116.1500015258789 -2.1800000667572017 L 131.07200622558594 -2.1800000667572017 L 132.2899932861328 -2.1800000667572017 L 132.2899932861328 -5.179999828338622 L 149.14999389648438 -5.179999828338622 L 149.14999389648438 -2.1800000667572017 L 158.89999389648438 -2.1800000667572017 M 80.54000091552734 24.45999908447265 L 80.54000091552734 32.76800155639648 L 80.54000091552734 34.20999908447265 L 83.54000091552734 34.20999908447265 L 83.54000091552734 39.06999969482421 L 83.54000091552734 51.069999694824205 L 80.54000091552734 51.069999694824205 L 80.54000091552734 60.819999694824205 L 71.93000030517578 60.819999694824205 L 71.93000030517578 57.819999694824205 L 71.50299835205078 57.819999694824205 L 68.50199890136719 57.819999694824205 L 65.53600311279297 57.819999694824205 L 64.50199890136719 57.819999694824205 L 61.50199890136719 57.819999694824205 L 57.50199890136719 57.819999694824205 L 55.790000915527344 57.819999694824205 L 55.790000915527344 60.819999694824205 L 38.93000030517578 60.819999694824205 L 38.93000030517578 57.819999694824205 L 36.5 57.819999694824205 L 32.5 57.819999694824205 L 29.5 57.819999694824205 L 25.5 57.819999694824205 L 22.790000915527344 57.819999694824205 L 22.790000915527344 60.819999694824205 L 22.499000549316406 60.819999694824205 L 6.999000072479248 60.819999694824205 L 5.929999828338623 60.819999694824205 L 5.929999828338623 57.819999694824205 L 3.997999906539917 57.819999694824205 L 0 57.819999694824205 L -10.210000038146973 57.819999694824205 L -10.210000038146973 60.819999694824205 L -18.81999969482422 60.819999694824205 L -18.81999969482422 57.819999694824205 L -18.81999969482422 51.069999694824205 L -21.81999969482422 51.069999694824205 L -21.81999969482422 50.70999908447264 L -21.81999969482422 49.15200042724608 L -21.81999969482422 34.20999908447265 L -18.81999969482422 34.20999908447265 L -18.81999969482422 32.76800155639648 L -18.81999969482422 27.45999908447265 L -18.81999969482422 24.45999908447265 L -10.210000038146973 24.45999908447265 L -10.210000038146973 27.45999908447265 L 0 27.45999908447265 L 5.929999828338623 27.45999908447265 L 5.929999828338623 24.45999908447265 L 22.790000915527344 24.45999908447265 L 22.790000915527344 27.45999908447265 L 38.93000030517578 27.45999908447265 L 38.93000030517578 24.45999908447265 L 55.790000915527344 24.45999908447265 L 55.790000915527344 27.45999908447265 L 65.53600311279297 27.45999908447265 L 71.93000030517578 27.45999908447265 L 71.93000030517578 24.45999908447265 L 80.54000091552734 24.45999908447265 M 71.93000030517578 63.819999694824205 L 80.54000091552734 63.819999694824205 L 80.54000091552734 65.53600311279295 L 80.54000091552734 66.8199996948242 L 80.54000091552734 72.0699996948242 L 80.54000091552734 73.5699996948242 L 83.54000091552734 73.5699996948242 L 83.54000091552734 90.43000030517577 L 80.54000091552734 90.43000030517577 L 80.54000091552734 97.18000030517575 L 80.54000091552734 100.18000030517575 L 71.93000030517578 100.18000030517575 L 71.93000030517578 97.18000030517575 L 65.53600311279297 97.18000030517575 L 64.50199890136719 97.18000030517575 L 61.50199890136719 97.18000030517575 L 57.50199890136719 97.18000030517575 L 55.790000915527344 97.18000030517575 L 55.790000915527344 100.18000030517575 L 38.93000030517578 100.18000030517575 L 38.93000030517578 97.18000030517575 L 36.5 97.18000030517575 L 32.5 97.18000030517575 L 29.5 97.18000030517575 L 25.5 97.18000030517575 L 22.790000915527344 97.18000030517575 L 22.790000915527344 100.18000030517575 L 5.929999828338623 100.18000030517575 L 5.929999828338623 97.18000030517575 L 3.997999906539917 97.18000030517575 L 0 97.18000030517575 L -0.0020000000949949026 97.18000030517575 L -3.002000093460083 97.18000030517575 L -7.001999855041504 97.18000030517575 L -10.003000259399414 97.18000030517575 L -10.210000038146973 97.18000030517575 L -10.210000038146973 100.18000030517575 L -18.81999969482422 100.18000030517575 L -18.81999969482422 97.18000030517575 L -18.81999969482422 90.43000030517577 L -21.81999969482422 90.43000030517577 L -21.81999969482422 90.0699996948242 L -21.81999969482422 73.93000030517577 L -21.81999969482422 73.5699996948242 L -18.81999969482422 73.5699996948242 L -18.81999969482422 66.8199996948242 L -18.81999969482422 65.53600311279295 L -18.81999969482422 63.819999694824205 L -10.210000038146973 63.819999694824205 L -10.210000038146973 65.53600311279295 L -10.210000038146973 66.8199996948242 L -10.003000259399414 66.8199996948242 L -7.001999855041504 66.8199996948242 L -3.002000093460083 66.8199996948242 L -0.0020000000949949026 66.8199996948242 L 0 66.8199996948242 L 3.997999906539917 66.8199996948242 L 5.929999828338623 66.8199996948242 L 5.929999828338623 65.53600311279295 L 5.929999828338623 63.819999694824205 L 22.790000915527344 63.819999694824205 L 22.790000915527344 65.53600311279295 L 22.790000915527344 66.8199996948242 L 25.5 66.8199996948242 L 29.5 66.8199996948242 L 32.5 66.8199996948242 L 36.5 66.8199996948242 L 38.93000030517578 66.8199996948242 L 38.93000030517578 65.53600311279295 L 38.93000030517578 63.819999694824205 L 55.790000915527344 63.819999694824205 L 55.790000915527344 65.53600311279295 L 55.790000915527344 66.8199996948242 L 57.50199890136719 66.8199996948242 L 61.50199890136719 66.8199996948242 L 64.50199890136719 66.8199996948242 L 65.53600311279297 66.8199996948242 L 71.93000030517578 66.8199996948242 L 71.93000030517578 65.53600311279295 L 71.93000030517578 63.819999694824205 M -54.06999969482422 24.45999908447265 L -54.06999969482422 27.45999908447265 L -37.93000030517578 27.45999908447265 L -37.93000030517578 24.45999908447265 L -24.81999969482422 24.45999908447265 L -24.81999969482422 27.45999908447265 L -24.81999969482422 32.76800155639648 L -24.81999969482422 34.20999908447265 L -24.81999969482422 34.56999969482421 L -27.81999969482422 34.56999969482421 L -27.81999969482422 49.15200042724608 L -27.81999969482422 50.70999908447264 L -24.81999969482422 50.70999908447264 L -24.81999969482422 60.819999694824205 L -27.81999969482422 60.819999694824205 L -32.768001556396484 60.819999694824205 L -37.49800109863281 60.819999694824205 L -37.93000030517578 60.819999694824205 L -37.93000030517578 57.819999694824205 L -54.06999969482422 57.819999694824205 L -54.06999969482422 60.819999694824205 L -65.53600311279297 60.819999694824205 L -70.93000030517578 60.819999694824205 L -70.93000030517578 57.819999694824205 L -87.06999969482422 57.819999694824205 L -87.06999969482422 60.819999694824205 L -100.18000030517578 60.819999694824205 L -100.18000030517578 57.819999694824205 L -100.18000030517578 50.70999908447264 L -97.18000030517578 50.70999908447264 L -97.18000030517578 34.56999969482421 L -100.18000030517578 34.56999969482421 L -100.18000030517578 32.76800155639648 L -100.18000030517578 24.45999908447265 L -87.06999969482422 24.45999908447265 L -87.06999969482422 27.45999908447265 L -70.93000030517578 27.45999908447265 L -70.93000030517578 24.45999908447265 L -65.53600311279297 24.45999908447265 L -54.06999969482422 24.45999908447265 M -24.81999969482422 63.819999694824205 L -24.81999969482422 65.53600311279295 L -24.81999969482422 73.93000030517577 L -27.81999969482422 73.93000030517577 L -27.81999969482422 90.0699996948242 L -24.81999969482422 90.0699996948242 L -24.81999969482422 90.43000030517577 L -24.81999969482422 100.18000030517575 L -32.768001556396484 100.18000030517575 L -37.93000030517578 100.18000030517575 L -37.93000030517578 97.18000030517575 L -39.99800109863281 97.18000030517575 L -42.99800109863281 97.18000030517575 L -46.99800109863281 97.18000030517575 L -49.999000549316406 97.18000030517575 L -53.999000549316406 97.18000030517575 L -54.06999969482422 97.18000030517575 L -54.06999969482422 100.18000030517575 L -65.53600311279297 100.18000030517575 L -70.93000030517578 100.18000030517575 L -70.93000030517578 97.18000030517575 L -71.0009994506836 97.18000030517575 L -75.0009994506836 97.18000030517575 L -78.00199890136719 97.18000030517575 L -82.00199890136719 97.18000030517575 L -85.00299835205078 97.18000030517575 L -87.06999969482422 97.18000030517575 L -87.06999969482422 100.18000030517575 L -100.18000030517578 100.18000030517575 L -100.18000030517578 90.0699996948242 L -97.18000030517578 90.0699996948242 L -97.18000030517578 73.93000030517577 L -100.18000030517578 73.93000030517577 L -100.18000030517578 65.53600311279295 L -100.18000030517578 63.819999694824205 L -87.06999969482422 63.819999694824205 L -87.06999969482422 65.53600311279295 L -87.06999969482422 66.8199996948242 L -85.00299835205078 66.8199996948242 L -82.00199890136719 66.8199996948242 L -78.00199890136719 66.8199996948242 L -75.0009994506836 66.8199996948242 L -71.0009994506836 66.8199996948242 L -70.93000030517578 66.8199996948242 L -70.93000030517578 65.53600311279295 L -70.93000030517578 63.819999694824205 L -65.53600311279297 63.819999694824205 L -54.06999969482422 63.819999694824205 L -54.06999969482422 65.53600311279295 L -54.06999969482422 66.8199996948242 L -53.999000549316406 66.8199996948242 L -49.999000549316406 66.8199996948242 L -46.99800109863281 66.8199996948242 L -42.99800109863281 66.8199996948242 L -39.99800109863281 66.8199996948242 L -37.93000030517578 66.8199996948242 L -37.93000030517578 65.53600311279295 L -37.93000030517578 63.819999694824205 L -32.768001556396484 63.819999694824205 L -24.81999969482422 63.819999694824205 M 153.26199340820312 -106.40899658203122 L 153.2519989013672 -106.25199890136716 L 153.26199340820312 -106.0950012207031 L 153.29200744628906 -105.94100189208982 L 153.33999633789062 -105.79100036621091 L 153.40699768066406 -105.64900207519528 L 153.49099731445312 -105.515998840332 L 153.59100341796875 -105.39499664306638 L 153.60000610351562 -105.38655090332028 L 153.70599365234375 -105.28700256347653 L 153.83299255371094 -105.19499969482419 L 153.97000122070312 -105.11900329589841 L 154.11599731445312 -105.06099700927732 L 154.26800537109375 -105.0220031738281 L 154.4239959716797 -105.00199890136716 L 154.58099365234375 -105.00199890136716 L 154.62399291992188 -105.00751495361325 L 154.73699951171875 -105.0220031738281 L 154.88900756835938 -105.06099700927732 L 155.03500366210938 -105.11900329589841 L 155.1719970703125 -105.19499969482419 L 155.2989959716797 -105.28700256347653 L 155.41400146484375 -105.39499664306638 L 155.51400756835938 -105.515998840332 L 155.59800720214844 -105.64900207519528 L 155.6479949951172 -105.75496673583982 L 155.6649932861328 -105.79100036621091 L 155.71299743652344 -105.94100189208982 L 155.7429962158203 -106.0950012207031 L 155.7530059814453 -106.25199890136716 L 155.7429962158203 -106.40899658203122 L 155.72616577148438 -106.4960021972656 L 155.71299743652344 -106.56400299072263 L 155.6649932861328 -106.713996887207 L 155.6479949951172 -106.7500305175781 L 155.59800720214844 -106.85600280761716 L 155.51400756835938 -106.98899841308591 L 155.41400146484375 -107.11000061035153 L 155.2989959716797 -107.21800231933591 L 155.1719970703125 -107.30999755859372 L 155.03500366210938 -107.38600158691403 L 154.88900756835938 -107.4440002441406 L 154.73699951171875 -107.48300170898435 L 154.62399291992188 -107.49748992919919 L 154.58099365234375 -107.50299835205075 L 154.4239959716797 -107.50299835205075 L 154.26800537109375 -107.48300170898435 L 154.11599731445312 -107.4440002441406 L 153.97000122070312 -107.38600158691403 L 153.83299255371094 -107.30999755859372 L 153.70599365234375 -107.21800231933591 L 153.60000610351562 -107.11845397949216 L 153.59100341796875 -107.11000061035153 L 153.49099731445312 -106.98899841308591 L 153.40699768066406 -106.85600280761716 L 153.33999633789062 -106.713996887207 L 153.29200744628906 -106.56400299072263 L 153.27883911132812 -106.4960021972656 L 153.26199340820312 -106.40899658203122 M 153.26199340820312 -15.654999732971188 L 153.2519989013672 -15.498000144958493 L 153.26199340820312 -15.34099960327148 L 153.29200744628906 -15.18599987030029 L 153.33999633789062 -15.036000251770016 L 153.40699768066406 -14.894000053405758 L 153.49099731445312 -14.760999679565426 L 153.59100341796875 -14.64000034332275 L 153.60000610351562 -14.631547927856442 L 153.70599365234375 -14.531999588012692 L 153.83299255371094 -14.439999580383297 L 153.97000122070312 -14.364000320434567 L 154.0404815673828 -14.33600044250488 L 154.11599731445312 -14.305999755859371 L 154.26800537109375 -14.267000198364254 L 154.4239959716797 -14.248000144958493 L 154.58099365234375 -14.248000144958493 L 154.73699951171875 -14.267000198364254 L 154.88900756835938 -14.305999755859371 L 154.9645233154297 -14.33600044250488 L 155.03500366210938 -14.364000320434567 L 155.1719970703125 -14.439999580383297 L 155.2989959716797 -14.531999588012692 L 155.41400146484375 -14.64000034332275 L 155.51400756835938 -14.760999679565426 L 155.59800720214844 -14.894000053405758 L 155.6479949951172 -14.999970436096188 L 155.6649932861328 -15.036000251770016 L 155.71299743652344 -15.18599987030029 L 155.7429962158203 -15.34099960327148 L 155.7530059814453 -15.498000144958493 L 155.7429962158203 -15.654999732971188 L 155.71299743652344 -15.809000015258786 L 155.6649932861328 -15.958999633789059 L 155.6479949951172 -15.995029449462887 L 155.59800720214844 -16.100999832153317 L 155.51400756835938 -16.233999252319332 L 155.41400146484375 -16.354999542236325 L 155.38311767578125 -16.38400077819824 L 155.2989959716797 -16.462999343872067 L 155.1719970703125 -16.555000305175778 L 155.03500366210938 -16.631000518798825 L 154.88900756835938 -16.688999176025387 L 154.73699951171875 -16.728000640869137 L 154.58099365234375 -16.747999191284176 L 154.4239959716797 -16.747999191284176 L 154.26800537109375 -16.728000640869137 L 154.11599731445312 -16.688999176025387 L 153.97000122070312 -16.631000518798825 L 153.83299255371094 -16.555000305175778 L 153.70599365234375 -16.462999343872067 L 153.62188720703125 -16.38400077819824 L 153.60000610351562 -16.36345291137695 L 153.59100341796875 -16.354999542236325 L 153.49099731445312 -16.233999252319332 L 153.40699768066406 -16.100999832153317 L 153.33999633789062 -15.958999633789059 L 153.29200744628906 -15.809000015258786 L 153.26199340820312 -15.654999732971188 M 134.13600158691406 -42.4990005493164 L 134.1439971923828 -42.48705291748046 L 134.20899963378906 -42.38999938964843 L 134.2949981689453 -42.29100036621093 L 134.39300537109375 -42.20500183105468 L 134.5019989013672 -42.131999969482415 L 134.6199951171875 -42.07400131225585 L 134.7429962158203 -42.03200149536132 L 134.8719940185547 -42.00600051879882 L 135.0019989013672 -41.998001098632805 L 135.13299560546875 -42.00600051879882 L 135.16799926757812 -42.013111114501946 L 135.26100158691406 -42.03200149536132 L 135.38499450683594 -42.07400131225585 L 135.5019989013672 -42.131999969482415 L 135.61099243164062 -42.20500183105468 L 135.7100067138672 -42.29100036621093 L 135.79600524902344 -42.38999938964843 L 135.86900329589844 -42.4990005493164 L 135.92599487304688 -42.61600112915038 L 135.96800231933594 -42.74100112915038 L 135.99400329589844 -42.868999481201165 L 136.0030059814453 -42.99999999999999 L 136.00245666503906 -43.00799942016601 L 135.99400329589844 -43.13100051879882 L 135.96800231933594 -43.2589988708496 L 135.92599487304688 -43.3839988708496 L 135.86900329589844 -43.50099945068359 L 135.79600524902344 -43.610000610351555 L 135.7100067138672 -43.708999633789055 L 135.61099243164062 -43.794998168945305 L 135.5019989013672 -43.86800003051757 L 135.38499450683594 -43.92599868774413 L 135.26100158691406 -43.967998504638665 L 135.16799926757812 -43.98688888549804 L 135.13299560546875 -43.993999481201165 L 135.0019989013672 -44.002998352050774 L 134.8719940185547 -43.993999481201165 L 134.7429962158203 -43.967998504638665 L 134.6199951171875 -43.92599868774413 L 134.5019989013672 -43.86800003051757 L 134.39300537109375 -43.794998168945305 L 134.2949981689453 -43.708999633789055 L 134.20899963378906 -43.610000610351555 L 134.13600158691406 -43.50099945068359 L 134.0780029296875 -43.3839988708496 L 134.03599548339844 -43.2589988708496 L 134.01100158691406 -43.13100051879882 L 134.00254821777344 -43.00799942016601 L 134.0019989013672 -42.99999999999999 L 134.01100158691406 -42.868999481201165 L 134.03599548339844 -42.74100112915038 L 134.0780029296875 -42.61600112915038 L 134.13600158691406 -42.4990005493164 M 93.25700378417969 -106.40899658203122 L 93.24800109863281 -106.25199890136716 L 93.25700378417969 -106.0950012207031 L 93.28700256347656 -105.94100189208982 L 93.33499908447266 -105.79100036621091 L 93.4020004272461 -105.64900207519528 L 93.48600006103516 -105.515998840332 L 93.58599853515625 -105.39499664306638 L 93.70099639892578 -105.28700256347653 L 93.8280029296875 -105.19499969482419 L 93.96499633789062 -105.11900329589841 L 94.11100006103516 -105.06099700927732 L 94.20800018310547 -105.03610992431638 L 94.26300048828125 -105.0220031738281 L 94.41899871826172 -105.00199890136716 L 94.57599639892578 -105.00199890136716 L 94.73200225830078 -105.0220031738281 L 94.88400268554688 -105.06099700927732 L 95.02999877929688 -105.11900329589841 L 95.16699981689453 -105.19499969482419 L 95.23200225830078 -105.24208831787107 L 95.29399871826172 -105.28700256347653 L 95.40899658203125 -105.39499664306638 L 95.50900268554688 -105.515998840332 L 95.59300231933594 -105.64900207519528 L 95.66000366210938 -105.79100036621091 L 95.70800018310547 -105.94100189208982 L 95.73799896240234 -106.0950012207031 L 95.74800109863281 -106.25199890136716 L 95.73799896240234 -106.40899658203122 L 95.72116088867188 -106.4960021972656 L 95.70800018310547 -106.56400299072263 L 95.66000366210938 -106.713996887207 L 95.59300231933594 -106.85600280761716 L 95.50900268554688 -106.98899841308591 L 95.40899658203125 -107.11000061035153 L 95.29399871826172 -107.21800231933591 L 95.16699981689453 -107.30999755859372 L 95.02999877929688 -107.38600158691403 L 94.88400268554688 -107.4440002441406 L 94.73200225830078 -107.48300170898435 L 94.57599639892578 -107.50299835205075 L 94.41899871826172 -107.50299835205075 L 94.26300048828125 -107.48300170898435 L 94.20800018310547 -107.46888732910153 L 94.11100006103516 -107.4440002441406 L 93.96499633789062 -107.38600158691403 L 93.8280029296875 -107.30999755859372 L 93.70099639892578 -107.21800231933591 L 93.58599853515625 -107.11000061035153 L 93.48600006103516 -106.98899841308591 L 93.4020004272461 -106.85600280761716 L 93.33499908447266 -106.713996887207 L 93.28700256347656 -106.56400299072263 L 93.27384185791016 -106.4960021972656 L 93.25700378417969 -106.40899658203122 M 113.61499786376953 -42.07400131225585 L 113.66400146484375 -42.05740356445312 L 113.73899841308594 -42.03200149536132 L 113.86699676513672 -42.00600051879882 L 113.99800109863281 -41.998001098632805 L 114.12799835205078 -42.00600051879882 L 114.25700378417969 -42.03200149536132 L 114.37999725341797 -42.07400131225585 L 114.49800109863281 -42.131999969482415 L 114.60700225830078 -42.20500183105468 L 114.68800354003906 -42.27608108520507 L 114.70500183105469 -42.29100036621093 L 114.79100036621094 -42.38999938964843 L 114.86399841308594 -42.4990005493164 L 114.9219970703125 -42.61600112915038 L 114.96399688720703 -42.74100112915038 L 114.98899841308594 -42.868999481201165 L 114.99800109863281 -42.99999999999999 L 114.99745178222656 -43.00799942016601 L 114.98899841308594 -43.13100051879882 L 114.96399688720703 -43.2589988708496 L 114.9219970703125 -43.3839988708496 L 114.86399841308594 -43.50099945068359 L 114.79100036621094 -43.610000610351555 L 114.70500183105469 -43.708999633789055 L 114.68800354003906 -43.723918914794915 L 114.60700225830078 -43.794998168945305 L 114.49800109863281 -43.86800003051757 L 114.37999725341797 -43.92599868774413 L 114.25700378417969 -43.967998504638665 L 114.12799835205078 -43.993999481201165 L 113.99800109863281 -44.002998352050774 L 113.86699676513672 -43.993999481201165 L 113.73899841308594 -43.967998504638665 L 113.66400146484375 -43.94259643554687 L 113.61499786376953 -43.92599868774413 L 113.49800109863281 -43.86800003051757 L 113.38899993896484 -43.794998168945305 L 113.29000091552734 -43.708999633789055 L 113.2040023803711 -43.610000610351555 L 113.13200378417969 -43.50099945068359 L 113.0739974975586 -43.3839988708496 L 113.03199768066406 -43.2589988708496 L 113.00599670410156 -43.13100051879882 L 112.99848937988281 -43.00799942016601 L 112.99800109863281 -42.99999999999999 L 113.00599670410156 -42.868999481201165 L 113.03199768066406 -42.74100112915038 L 113.0739974975586 -42.61600112915038 L 113.13200378417969 -42.4990005493164 L 113.2040023803711 -42.38999938964843 L 113.29000091552734 -42.29100036621093 L 113.38899993896484 -42.20500183105468 L 113.49800109863281 -42.131999969482415 L 113.61499786376953 -42.07400131225585 M 93.96499633789062 -14.364000320434567 L 94.03548431396484 -14.33600044250488 L 94.11100006103516 -14.305999755859371 L 94.20800018310547 -14.281111717224118 L 94.26300048828125 -14.267000198364254 L 94.41899871826172 -14.248000144958493 L 94.57599639892578 -14.248000144958493 L 94.73200225830078 -14.267000198364254 L 94.88400268554688 -14.305999755859371 L 94.95951843261719 -14.33600044250488 L 95.02999877929688 -14.364000320434567 L 95.16699981689453 -14.439999580383297 L 95.29399871826172 -14.531999588012692 L 95.40899658203125 -14.64000034332275 L 95.50900268554688 -14.760999679565426 L 95.59300231933594 -14.894000053405758 L 95.66000366210938 -15.036000251770016 L 95.70800018310547 -15.18599987030029 L 95.73799896240234 -15.34099960327148 L 95.73921203613281 -15.359999656677243 L 95.74800109863281 -15.498000144958493 L 95.73799896240234 -15.654999732971188 L 95.70800018310547 -15.809000015258786 L 95.66000366210938 -15.958999633789059 L 95.59300231933594 -16.100999832153317 L 95.50900268554688 -16.233999252319332 L 95.40899658203125 -16.354999542236325 L 95.37812042236328 -16.38400077819824 L 95.29399871826172 -16.462999343872067 L 95.16699981689453 -16.555000305175778 L 95.02999877929688 -16.631000518798825 L 94.88400268554688 -16.688999176025387 L 94.73200225830078 -16.728000640869137 L 94.57599639892578 -16.747999191284176 L 94.41899871826172 -16.747999191284176 L 94.26300048828125 -16.728000640869137 L 94.11100006103516 -16.688999176025387 L 93.96499633789062 -16.631000518798825 L 93.8280029296875 -16.555000305175778 L 93.70099639892578 -16.462999343872067 L 93.61688232421875 -16.38400077819824 L 93.58599853515625 -16.354999542236325 L 93.48600006103516 -16.233999252319332 L 93.4020004272461 -16.100999832153317 L 93.33499908447266 -15.958999633789059 L 93.28700256347656 -15.809000015258786 L 93.25700378417969 -15.654999732971188 L 93.24800109863281 -15.498000144958493 L 93.25591278076172 -15.359999656677243 L 93.25700378417969 -15.34099960327148 L 93.28700256347656 -15.18599987030029 L 93.33499908447266 -15.036000251770016 L 93.4020004272461 -14.894000053405758 L 93.48600006103516 -14.760999679565426 L 93.58599853515625 -14.64000034332275 L 93.70099639892578 -14.531999588012692 L 93.8280029296875 -14.439999580383297 L 93.96499633789062 -14.364000320434567 M 153.01199340820312 92.59500122070311 L 153.0019989013672 92.75199890136717 L 153.01199340820312 92.90899658203124 L 153.04200744628906 93.06400299072264 L 153.08999633789062 93.21399688720702 L 153.15699768066406 93.35600280761717 L 153.24099731445312 93.48899841308592 L 153.34100341796875 93.61000061035155 L 153.45599365234375 93.71800231933592 L 153.58299255371094 93.80999755859374 L 153.60000610351562 93.81942749023436 L 153.72000122070312 93.88600158691405 L 153.86599731445312 93.94400024414061 L 154.01800537109375 93.98300170898436 L 154.1739959716797 94.00299835205077 L 154.33099365234375 94.00299835205077 L 154.48699951171875 93.98300170898436 L 154.62399291992188 93.94784545898436 L 154.63900756835938 93.94400024414061 L 154.78500366210938 93.88600158691405 L 154.9219970703125 93.80999755859374 L 155.0489959716797 93.71800231933592 L 155.16400146484375 93.61000061035155 L 155.26400756835938 93.48899841308592 L 155.34800720214844 93.35600280761717 L 155.4149932861328 93.21399688720702 L 155.4246063232422 93.18399810791014 L 155.46299743652344 93.06400299072264 L 155.4929962158203 92.90899658203124 L 155.5030059814453 92.75199890136717 L 155.4929962158203 92.59500122070311 L 155.46299743652344 92.44100189208983 L 155.4149932861328 92.29100036621092 L 155.3531951904297 92.16000366210936 L 155.34800720214844 92.1490020751953 L 155.26400756835938 92.01599884033202 L 155.16400146484375 91.89499664306639 L 155.0489959716797 91.78700256347655 L 154.9219970703125 91.6949996948242 L 154.78500366210938 91.61900329589842 L 154.63900756835938 91.56099700927733 L 154.48699951171875 91.52200317382811 L 154.33099365234375 91.50199890136717 L 154.1739959716797 91.50199890136717 L 154.01800537109375 91.52200317382811 L 153.86599731445312 91.56099700927733 L 153.72000122070312 91.61900329589842 L 153.60000610351562 91.68556976318358 L 153.58299255371094 91.6949996948242 L 153.45599365234375 91.78700256347655 L 153.34100341796875 91.89499664306639 L 153.24099731445312 92.01599884033202 L 153.15699768066406 92.1490020751953 L 153.1518096923828 92.16000366210936 L 153.08999633789062 92.29100036621092 L 153.04200744628906 92.44100189208983 L 153.01199340820312 92.59500122070311 M 154.48699951171875 86.26399993896483 L 154.73500061035156 86.01599884033202 L 154.76400756835938 85.98699951171874 L 154.9409942626953 85.63899993896483 L 155.0030059814453 85.25199890136717 L 154.9409942626953 84.86599731445311 L 154.76400756835938 84.5179977416992 L 154.48699951171875 84.24099731445311 L 154.13900756835938 84.06400299072264 L 153.7519989013672 84.00199890136717 L 153.60000610351562 84.02641296386717 L 153.36599731445312 84.06400299072264 L 153.01699829101562 84.24099731445311 L 152.74099731445312 84.5179977416992 L 152.56300354003906 84.86599731445311 L 152.5019989013672 85.25199890136717 L 152.56300354003906 85.63899993896483 L 152.74099731445312 85.98699951171874 L 152.7698974609375 86.01599884033202 L 153.01699829101562 86.26399993896483 L 153.36599731445312 86.44100189208983 L 153.7519989013672 86.50299835205077 L 154.13900756835938 86.44100189208983 L 154.48699951171875 86.26399993896483 M 153.58299255371094 3.0550000667572013 L 153.60000610351562 3.0644307136535636 L 153.72000122070312 3.131000041961669 L 153.86599731445312 3.188999891281127 L 154.01800537109375 3.2279999256134024 L 154.1739959716797 3.247999906539916 L 154.33099365234375 3.247999906539916 L 154.48699951171875 3.2279999256134024 L 154.62399291992188 3.1928486824035636 L 154.63900756835938 3.188999891281127 L 154.78500366210938 3.131000041961669 L 154.9219970703125 3.0550000667572013 L 155.0489959716797 2.963000059127807 L 155.16400146484375 2.855000019073486 L 155.26400756835938 2.733999967575073 L 155.34800720214844 2.601000070571899 L 155.4149932861328 2.4590001106262203 L 155.46299743652344 2.3090000152587886 L 155.4929962158203 2.15499997138977 L 155.49981689453125 2.04800009727478 L 155.5030059814453 1.998000025749206 L 155.4929962158203 1.8409999608993526 L 155.46299743652344 1.685999989509582 L 155.4149932861328 1.53600001335144 L 155.34800720214844 1.3940000534057617 L 155.26400756835938 1.2610000371932983 L 155.16400146484375 1.1399999856948853 L 155.0489959716797 1.031999945640564 L 154.9219970703125 0.9399999976158141 L 154.78500366210938 0.8640000224113463 L 154.63900756835938 0.805999994277954 L 154.62399291992188 0.802151322364807 L 154.48699951171875 0.7670000195503234 L 154.33099365234375 0.7480000257492065 L 154.1739959716797 0.7480000257492065 L 154.01800537109375 0.7670000195503234 L 153.86599731445312 0.805999994277954 L 153.72000122070312 0.8640000224113463 L 153.60000610351562 0.9305693507194518 L 153.58299255371094 0.9399999976158141 L 153.45599365234375 1.031999945640564 L 153.34100341796875 1.1399999856948853 L 153.24099731445312 1.2610000371932983 L 153.15699768066406 1.3940000534057617 L 153.08999633789062 1.53600001335144 L 153.04200744628906 1.685999989509582 L 153.01199340820312 1.8409999608993526 L 153.0019989013672 1.998000025749206 L 153.00518798828125 2.04800009727478 L 153.01199340820312 2.15499997138977 L 153.04200744628906 2.3090000152587886 L 153.08999633789062 2.4590001106262203 L 153.15699768066406 2.601000070571899 L 153.24099731445312 2.733999967575073 L 153.34100341796875 2.855000019073486 L 153.45599365234375 2.963000059127807 L 153.58299255371094 3.0550000667572013 M 152.56300354003906 9.361000061035154 L 152.5019989013672 9.748000144958494 L 152.56300354003906 10.133999824523924 L 152.74099731445312 10.482000350952147 L 153.01699829101562 10.758999824523924 L 153.36599731445312 10.935999870300291 L 153.60000610351562 10.973585128784178 L 153.7519989013672 10.998000144958494 L 154.13900756835938 10.935999870300291 L 154.48699951171875 10.758999824523924 L 154.76400756835938 10.482000350952147 L 154.9409942626953 10.133999824523924 L 155.0030059814453 9.748000144958494 L 154.9409942626953 9.361000061035154 L 154.76400756835938 9.012999534606932 L 154.48699951171875 8.736000061035154 L 154.13900756835938 8.559000015258787 L 153.7519989013672 8.498000144958494 L 153.60000610351562 8.522020339965819 L 153.36599731445312 8.559000015258787 L 153.01699829101562 8.736000061035154 L 152.74099731445312 9.012999534606932 L 152.56300354003906 9.361000061035154 M 94.01300048828125 3.2279999256134024 L 94.16899871826172 3.247999906539916 L 94.20800018310547 3.247999906539916 L 94.32599639892578 3.247999906539916 L 94.48200225830078 3.2279999256134024 L 94.63400268554688 3.188999891281127 L 94.77999877929688 3.131000041961669 L 94.91699981689453 3.0550000667572013 L 95.04399871826172 2.963000059127807 L 95.15899658203125 2.855000019073486 L 95.25900268554688 2.733999967575073 L 95.34300231933594 2.601000070571899 L 95.41000366210938 2.4590001106262203 L 95.45800018310547 2.3090000152587886 L 95.48799896240234 2.15499997138977 L 95.49481201171875 2.04800009727478 L 95.49800109863281 1.998000025749206 L 95.48799896240234 1.8409999608993526 L 95.45800018310547 1.685999989509582 L 95.41000366210938 1.53600001335144 L 95.34300231933594 1.3940000534057617 L 95.25900268554688 1.2610000371932983 L 95.15899658203125 1.1399999856948853 L 95.04399871826172 1.031999945640564 L 94.91699981689453 0.9399999976158141 L 94.77999877929688 0.8640000224113463 L 94.63400268554688 0.805999994277954 L 94.48200225830078 0.7670000195503234 L 94.32599639892578 0.7480000257492065 L 94.20800018310547 0.7480000257492065 L 94.16899871826172 0.7480000257492065 L 94.01300048828125 0.7670000195503234 L 93.86100006103516 0.805999994277954 L 93.71499633789062 0.8640000224113463 L 93.5780029296875 0.9399999976158141 L 93.45099639892578 1.031999945640564 L 93.33599853515625 1.1399999856948853 L 93.23600006103516 1.2610000371932983 L 93.1520004272461 1.3940000534057617 L 93.08499908447266 1.53600001335144 L 93.03700256347656 1.685999989509582 L 93.00700378417969 1.8409999608993526 L 92.99800109863281 1.998000025749206 L 93.00086975097656 2.04800009727478 L 93.00700378417969 2.15499997138977 L 93.03700256347656 2.3090000152587886 L 93.08499908447266 2.4590001106262203 L 93.1520004272461 2.601000070571899 L 93.23600006103516 2.733999967575073 L 93.33599853515625 2.855000019073486 L 93.45099639892578 2.963000059127807 L 93.5780029296875 3.0550000667572013 L 93.71499633789062 3.131000041961669 L 93.86100006103516 3.188999891281127 L 94.01300048828125 3.2279999256134024 M 121.86100006103516 10.935999870300291 L 122.24800109863281 10.998000144958494 L 122.63400268554688 10.935999870300291 L 122.98300170898438 10.758999824523924 L 123.25900268554688 10.482000350952147 L 123.38278198242188 10.239999771118162 L 123.43699645996094 10.133999824523924 L 123.49800109863281 9.748000144958494 L 123.43699645996094 9.361000061035154 L 123.25900268554688 9.012999534606932 L 122.98300170898438 8.736000061035154 L 122.63400268554688 8.559000015258787 L 122.24800109863281 8.498000144958494 L 121.86100006103516 8.559000015258787 L 121.51300048828125 8.736000061035154 L 121.23600006103516 9.012999534606932 L 121.05899810791016 9.361000061035154 L 120.99800109863281 9.748000144958494 L 121.05899810791016 10.133999824523924 L 121.1129150390625 10.239999771118162 L 121.23600006103516 10.482000350952147 L 121.51300048828125 10.758999824523924 L 121.86100006103516 10.935999870300291 M 106.24800109863281 16.53300094604492 L 106.47208404541016 16.38400077819824 L 106.49600219726562 16.36809921264648 L 106.62999725341797 16.278999328613278 L 106.9749984741211 15.977000236511227 L 107.27799987792969 15.631999969482418 L 107.53199768066406 15.251000404357907 L 107.73500061035156 14.840000152587887 L 107.88300323486328 14.406999588012692 L 107.97200012207031 13.956999778747555 L 108.00299835205078 13.499999999999996 L 107.97200012207031 13.043000221252438 L 107.88300323486328 12.593000411987301 L 107.73500061035156 12.159999847412106 L 107.53199768066406 11.748999595642088 L 107.27799987792969 11.368000030517576 L 106.9749984741211 11.022999763488768 L 106.62999725341797 10.7209997177124 L 106.49600219726562 10.631900787353514 L 106.24800109863281 10.467000007629393 L 105.83699798583984 10.263999938964842 L 105.4020004272461 10.116999626159666 L 104.9520034790039 10.027000427246092 L 104.49400329589844 9.998000144958494 L 104.03600311279297 10.027000427246092 L 103.58599853515625 10.116999626159666 L 103.1520004272461 10.263999938964842 L 102.73999786376953 10.467000007629393 L 102.35800170898438 10.7209997177124 L 102.01300048828125 11.022999763488768 L 101.71099853515625 11.368000030517576 L 101.45600128173828 11.748999595642088 L 101.25299835205078 12.159999847412106 L 101.2092514038086 12.28800010681152 L 101.1050033569336 12.593000411987301 L 101.01599884033203 13.043000221252438 L 100.98600006103516 13.499999999999996 L 101.01599884033203 13.956999778747555 L 101.1050033569336 14.406999588012692 L 101.25299835205078 14.840000152587887 L 101.45600128173828 15.251000404357907 L 101.71099853515625 15.631999969482418 L 102.01300048828125 15.977000236511227 L 102.35800170898438 16.278999328613278 L 102.51591491699219 16.38400077819824 L 102.73999786376953 16.53300094604492 L 103.1520004272461 16.736000061035153 L 103.58599853515625 16.882999420166012 L 104.03600311279297 16.972999572753903 L 104.49400329589844 17.00300025939941 L 104.9520034790039 16.972999572753903 L 105.4020004272461 16.882999420166012 L 105.83699798583984 16.736000061035153 L 106.24800109863281 16.53300094604492 M 121.86100006103516 86.44100189208983 L 122.24800109863281 86.50299835205077 L 122.63400268554688 86.44100189208983 L 122.98300170898438 86.26399993896483 L 123.2301025390625 86.01599884033202 L 123.25900268554688 85.98699951171874 L 123.43699645996094 85.63899993896483 L 123.49800109863281 85.25199890136717 L 123.43699645996094 84.86599731445311 L 123.25900268554688 84.5179977416992 L 122.98300170898438 84.24099731445311 L 122.87999725341797 84.18875885009764 L 122.63400268554688 84.06400299072264 L 122.24800109863281 84.00199890136717 L 121.86100006103516 84.06400299072264 L 121.51300048828125 84.24099731445311 L 121.23600006103516 84.5179977416992 L 121.05899810791016 84.86599731445311 L 120.99800109863281 85.25199890136717 L 121.05899810791016 85.63899993896483 L 121.23600006103516 85.98699951171874 L 121.26499938964844 86.01599884033202 L 121.51300048828125 86.26399993896483 L 121.86100006103516 86.44100189208983 M 102.37000274658203 84.27899932861327 L 102.4000015258789 84.29895019531249 L 102.75199890136719 84.53299713134764 L 103.16300201416016 84.73600006103514 L 103.5979995727539 84.88300323486327 L 104.0479965209961 84.97299957275389 L 104.50599670410156 85.00299835205077 L 104.96399688720703 84.97299957275389 L 105.41400146484375 84.88300323486327 L 105.8479995727539 84.73600006103514 L 106.26000213623047 84.53299713134764 L 106.49600219726562 84.37607574462889 L 106.64199829101562 84.27899932861327 L 106.98699951171875 83.97699737548827 L 107.28900146484375 83.63200378417967 L 107.54399871826172 83.25099945068358 L 107.74700164794922 82.83999633789061 L 107.8949966430664 82.40699768066405 L 107.98400115966797 81.95700073242186 L 108.01399993896484 81.49999999999999 L 107.98400115966797 81.04299926757811 L 107.8949966430664 80.59300231933592 L 107.74700164794922 80.16000366210936 L 107.54399871826172 79.74900054931639 L 107.28900146484375 79.3679962158203 L 106.98699951171875 79.0230026245117 L 106.64199829101562 78.7210006713867 L 106.49600219726562 78.62392425537108 L 106.26000213623047 78.46700286865233 L 105.8479995727539 78.26399993896483 L 105.41400146484375 78.1169967651367 L 104.96399688720703 78.02700042724608 L 104.50599670410156 77.9980010986328 L 104.0479965209961 78.02700042724608 L 103.5979995727539 78.1169967651367 L 103.16300201416016 78.26399993896483 L 102.75199890136719 78.46700286865233 L 102.4000015258789 78.70104980468749 L 102.37000274658203 78.7210006713867 L 102.0250015258789 79.0230026245117 L 101.72200012207031 79.3679962158203 L 101.46800231933594 79.74900054931639 L 101.26499938964844 80.16000366210936 L 101.11699676513672 80.59300231933592 L 101.02799987792969 81.04299926757811 L 100.99700164794922 81.49999999999999 L 101.0254898071289 81.9199981689453 L 101.02799987792969 81.95700073242186 L 101.11699676513672 82.40699768066405 L 101.26499938964844 82.83999633789061 L 101.46800231933594 83.25099945068358 L 101.72200012207031 83.63200378417967 L 102.0250015258789 83.97699737548827 L 102.37000274658203 84.27899932861327 M 94.01300048828125 93.98300170898436 L 94.16899871826172 94.00299835205077 L 94.20800018310547 94.00299835205077 L 94.32599639892578 94.00299835205077 L 94.48200225830078 93.98300170898436 L 94.63400268554688 93.94400024414061 L 94.77999877929688 93.88600158691405 L 94.91699981689453 93.80999755859374 L 95.04399871826172 93.71800231933592 L 95.15899658203125 93.61000061035155 L 95.25900268554688 93.48899841308592 L 95.34300231933594 93.35600280761717 L 95.41000366210938 93.21399688720702 L 95.41960144042969 93.18399810791014 L 95.45800018310547 93.06400299072264 L 95.48799896240234 92.90899658203124 L 95.49800109863281 92.75199890136717 L 95.48799896240234 92.59500122070311 L 95.45800018310547 92.44100189208983 L 95.41000366210938 92.29100036621092 L 95.34819030761719 92.16000366210936 L 95.34300231933594 92.1490020751953 L 95.25900268554688 92.01599884033202 L 95.15899658203125 91.89499664306639 L 95.04399871826172 91.78700256347655 L 94.91699981689453 91.6949996948242 L 94.77999877929688 91.61900329589842 L 94.63400268554688 91.56099700927733 L 94.48200225830078 91.52200317382811 L 94.32599639892578 91.50199890136717 L 94.20800018310547 91.50199890136717 L 94.16899871826172 91.50199890136717 L 94.01300048828125 91.52200317382811 L 93.86100006103516 91.56099700927733 L 93.71499633789062 91.61900329589842 L 93.5780029296875 91.6949996948242 L 93.45099639892578 91.78700256347655 L 93.33599853515625 91.89499664306639 L 93.23600006103516 92.01599884033202 L 93.1520004272461 92.1490020751953 L 93.14681243896484 92.16000366210936 L 93.08499908447266 92.29100036621092 L 93.03700256347656 92.44100189208983 L 93.00700378417969 92.59500122070311 L 92.99800109863281 92.75199890136717 L 93.00700378417969 92.90899658203124 L 93.03700256347656 93.06400299072264 L 93.07540130615234 93.18399810791014 L 93.08499908447266 93.21399688720702 L 93.1520004272461 93.35600280761717 L 93.23600006103516 93.48899841308592 L 93.33599853515625 93.61000061035155 L 93.45099639892578 93.71800231933592 L 93.5780029296875 93.80999755859374 L 93.71499633789062 93.88600158691405 L 93.86100006103516 93.94400024414061 L 94.01300048828125 93.98300170898436 M -37.93000030517578 32.998001098632805 L -65.53600311279297 32.998001098632805 L -87.50299835205078 32.998001098632805 L -87.50299835205078 50.70999908447264 L -87.50299835205078 53.00299835205077 L -65.53600311279297 53.00299835205077 L -37.93000030517578 53.00299835205077 L -37.49800109863281 53.00299835205077 L -37.49800109863281 32.998001098632805 L -37.93000030517578 32.998001098632805 M 95.99800109863281 14.751000404357907 L 96.99800109863281 14.751000404357907 L 96.99800109863281 12.248999595642086 L 95.99800109863281 12.248999595642086 L 95.99800109863281 14.751000404357907 M 68.50199890136719 35.998001098632805 L 68.50199890136719 50.00299835205077 L 71.50299835205078 50.00299835205077 L 71.50299835205078 35.998001098632805 L 68.50199890136719 35.998001098632805 M 112.00199890136719 80.24900054931639 L 112.00199890136719 82.75099945068358 L 113.00299835205078 82.75099945068358 L 113.00299835205078 80.24900054931639 L 112.00199890136719 80.24900054931639 M 68.50199890136719 74.9980010986328 L 68.50199890136719 89.00299835205077 L 71.50299835205078 89.00299835205077 L 71.50299835205078 74.9980010986328 L 68.50199890136719 74.9980010986328 M 3.997999906539917 35.998001098632805 L 3.997999906539917 50.00299835205077 L 5.929999828338623 50.00299835205077 L 6.999000072479248 50.00299835205077 L 6.999000072479248 35.998001098632805 L 5.929999828338623 35.998001098632805 L 3.997999906539917 35.998001098632805 M 22.790000915527344 35.998001098632805 L 22.499000549316406 35.998001098632805 L 22.499000549316406 50.00299835205077 L 22.790000915527344 50.00299835205077 L 25.5 50.00299835205077 L 25.5 35.998001098632805 L 22.790000915527344 35.998001098632805 M 29.5 35.998001098632805 L 29.5 50.00299835205077 L 32.5 50.00299835205077 L 32.5 35.998001098632805 L 29.5 35.998001098632805 M 61.50199890136719 35.998001098632805 L 61.50199890136719 50.00299835205077 L 64.50199890136719 50.00299835205077 L 64.50199890136719 35.998001098632805 L 61.50199890136719 35.998001098632805 M 54.500999450683594 35.998001098632805 L 54.500999450683594 50.00299835205077 L 57.50199890136719 50.00299835205077 L 57.50199890136719 35.998001098632805 L 54.500999450683594 35.998001098632805 M 36.5 35.998001098632805 L 36.5 50.00299835205077 L 39.500999450683594 50.00299835205077 L 39.500999450683594 35.998001098632805 L 36.5 35.998001098632805 M 3.997999906539917 74.9980010986328 L 3.997999906539917 89.00299835205077 L 6.999000072479248 89.00299835205077 L 6.999000072479248 74.9980010986328 L 3.997999906539917 74.9980010986328 M 22.499000549316406 74.9980010986328 L 22.499000549316406 89.00299835205077 L 25.5 89.00299835205077 L 25.5 74.9980010986328 L 22.499000549316406 74.9980010986328 M 29.5 74.9980010986328 L 29.5 89.00299835205077 L 32.5 89.00299835205077 L 32.5 74.9980010986328 L 29.5 74.9980010986328 M 36.5 74.9980010986328 L 36.5 89.00299835205077 L 38.93000030517578 89.00299835205077 L 39.500999450683594 89.00299835205077 L 39.500999450683594 74.9980010986328 L 38.93000030517578 74.9980010986328 L 36.5 74.9980010986328 M 64.50199890136719 74.9980010986328 L 61.50199890136719 74.9980010986328 L 61.50199890136719 89.00299835205077 L 64.50199890136719 89.00299835205077 L 64.50199890136719 74.9980010986328 M 57.50199890136719 74.9980010986328 L 54.500999450683594 74.9980010986328 L 54.500999450683594 89.00299835205077 L 57.50199890136719 89.00299835205077 L 57.50199890136719 74.9980010986328 M -10.003000259399414 35.998001098632805 L -10.003000259399414 49.15200042724608 L -10.003000259399414 50.00299835205077 L -7.001999855041504 50.00299835205077 L -7.001999855041504 49.15200042724608 L -7.001999855041504 35.998001098632805 L -10.003000259399414 35.998001098632805 M -3.002000093460083 35.998001098632805 L -3.002000093460083 49.15200042724608 L -3.002000093460083 50.00299835205077 L -0.0020000000949949026 50.00299835205077 L -0.0020000000949949026 49.15200042724608 L -0.0020000000949949026 35.998001098632805 L -3.002000093460083 35.998001098632805 M -10.003000259399414 74.9980010986328 L -10.003000259399414 89.00299835205077 L -7.001999855041504 89.00299835205077 L -7.001999855041504 74.9980010986328 L -10.003000259399414 74.9980010986328 M -3.002000093460083 74.9980010986328 L -3.002000093460083 89.00299835205077 L -0.0020000000949949026 89.00299835205077 L -0.0020000000949949026 74.9980010986328 L -3.002000093460083 74.9980010986328 M -42.99800109863281 74.9980010986328 L -42.99800109863281 89.00299835205077 L -39.99800109863281 89.00299835205077 L -39.99800109863281 74.9980010986328 L -42.99800109863281 74.9980010986328 M -49.999000549316406 74.9980010986328 L -49.999000549316406 89.00299835205077 L -46.99800109863281 89.00299835205077 L -46.99800109863281 74.9980010986328 L -49.999000549316406 74.9980010986328 M -56.999000549316406 74.9980010986328 L -56.999000549316406 89.00299835205077 L -53.999000549316406 89.00299835205077 L -53.999000549316406 74.9980010986328 L -56.999000549316406 74.9980010986328 M -71.0009994506836 74.9980010986328 L -71.0009994506836 89.00299835205077 L -68.0009994506836 89.00299835205077 L -68.0009994506836 74.9980010986328 L -71.0009994506836 74.9980010986328 M -78.00199890136719 74.9980010986328 L -78.00199890136719 89.00299835205077 L -75.0009994506836 89.00299835205077 L -75.0009994506836 74.9980010986328 L -78.00199890136719 74.9980010986328 M -85.00299835205078 74.9980010986328 L -85.00299835205078 89.00299835205077 L -82.00199890136719 89.00299835205077 L -82.00199890136719 74.9980010986328 L -85.00299835205078 74.9980010986328 z" fill="none" stroke="rgb(255,0,0)" stroke-width="0.001mm" />
</svg>