  0
SECTION
  2
HEADER
  9
$ACADVER
  1
AC1014
  9
$HANDSEED
  5
FFFF
  9
$INSUNITS
 70
     4
  9
$MEASUREMENT
 70
     1
  0
ENDSEC
  0
SECTION
  2
TABLES
  0
TABLE
  2
VPORT
  5
8
330
0
100
AcDbSymbolTable
 70
     4
  0
VPORT
  5
2E
330
8
100
AcDbSymbolTableRecord
100
AcDbViewportTableRecord
  2
*ACTIVE
 70
     0
 10
0.0
 20
0.0
 11
1.0
 21
1.0
 12
210.0
 22
148.5
 13
0.0
 23
0.0
 14
10.0
 24
10.0
 15
10.0
 25
10.0
 16
0.0
 26
0.0
 36
1.0
 17
0.0
 27
0.0
 37
0.0
 40
341.0
 41
1.24
 42
50.0
 43
0.0
 44
0.0
 50
0.0
 51
0.0
 71
     0
 72
   100
 73
     1
 74
     3
 75
     0
 76
     0
 77
     0
 78
     0
  0
ENDTAB
  0
TABLE
  2
LTYPE
  5
5
330
0
100
AcDbSymbolTable
 70
     1
  0
LTYPE
  5
14
330
5
100
AcDbSymbolTableRecord
100
AcDbLinetypeTableRecord
  2
BYBLOCK
 70
     0
  3

 72
    65
 73
     0
 40
0.0
  0
LTYPE
  5
15
330
5
100
AcDbSymbolTableRecord
100
AcDbLinetypeTableRecord
  2
BYLAYER
 70
     0
  3

 72
    65
 73
     0
 40
0.0
  0
LTYPE
  5
16
330
5
100
AcDbSymbolTableRecord
100
AcDbLinetypeTableRecord
  2
CONTINUOUS
 70
     0
  3
Solid line
 72
    65
 73
     0
 40
0.0
  0
ENDTAB
  0
TABLE
  2
LAYER
  5
2
100
AcDbSymbolTable
 70
1
  0
LAYER
  5
50
100
AcDbSymbolTableRecord
100
AcDbLayerTableRecord
  2
0
 70
0
  6
CONTINUOUS
  0
ENDTAB
  0
TABLE
  2
STYLE
  5
3
330
0
100
AcDbSymbolTable
 70
     1
  0
STYLE
  5
11
330
3
100
AcDbSymbolTableRecord
100
AcDbTextStyleTableRecord
  2
STANDARD
 70
     0
 40
0.0
 41
1.0
 50
0.0
 71
     0
 42
2.5
  3
txt
  4

  0
ENDTAB
  0
TABLE
  2
VIEW
  5
6
330
0
100
AcDbSymbolTable
 70
     0
  0
ENDTAB
  0
TABLE
  2
UCS
  5
7
330
0
100
AcDbSymbolTable
 70
     0
  0
ENDTAB
  0
TABLE
  2
APPID
  5
9
330
0
100
AcDbSymbolTable
 70
     2
  0
APPID
  5
12
330
9
100
AcDbSymbolTableRecord
100
AcDbRegAppTableRecord
  2
ACAD
 70
     0
  0
ENDTAB
  0
TABLE
  2
DIMSTYLE
  5
A
330
0
100
AcDbSymbolTable
 70
     1
  0
DIMSTYLE
105
27
330
A
100
AcDbSymbolTableRecord
100
AcDbDimStyleTableRecord
  2
ISO-25
 70
     0
  3

  4

  5

  6

  7

 40
1.0
 41
2.5
 42
0.625
 43
3.75
 44
1.25
 45
0.0
 46
0.0
 47
0.0
 48
0.0
140
2.5
141
2.5
142
0.0
143
0.03937007874016
144
1.0
145
0.0
146
1.0
147
0.625
 71
     0
 72
     0
 73
     0
 74
     0
 75
     0
 76
     0
 77
     1
 78
     8
170
     0
171
     3
172
     1
173
     0
174
     0
175
     0
176
     0
177
     0
178
     0
270
     2
271
     2
272
     2
273
     2
274
     3
340
11
275
     0
280
     0
281
     0
282
     0
283
     0
284
     8
285
     0
286
     0
287
     3
288
     0
  0
ENDTAB
  0
TABLE
  2
BLOCK_RECORD
  5
1
330
0
100
AcDbSymbolTable
 70
     1
  0
BLOCK_RECORD
  5
1F
330
1
100
AcDbSymbolTableRecord
100
AcDbBlockTableRecord
  2
*MODEL_SPACE
  0
BLOCK_RECORD
  5
1B
330
1
100
AcDbSymbolTableRecord
100
AcDbBlockTableRecord
  2
*PAPER_SPACE
  0
ENDTAB
  0
ENDSEC
  0
SECTION
  2
BLOCKS
  0
BLOCK
  5
20
330
1F
100
AcDbEntity
  8
0
100
AcDbBlockBegin
  2
*MODEL_SPACE
 70
     0
 10
0.0
 20
0.0
 30
0.0
  3
*MODEL_SPACE
  1

  0
ENDBLK
  5
21
330
1F
100
AcDbEntity
  8
0
100
AcDbBlockEnd
  0
BLOCK
  5
1C
330
1B
100
AcDbEntity
 67
     1
  8
0
100
AcDbBlockBegin
  2
*PAPER_SPACE
  1

  0
ENDBLK
  5
1D
330
1B
100
AcDbEntity
 67
     1
  8
0
100
AcDbBlockEnd
  0
ENDSEC
  0
SECTION
  2
ENTITIES
  0
LWPOLYLINE
  5
100
100
AcDbEntity
  8
0
 62
7
100
AcDbPolyline
 90
14
 70
1
 10
-3.910000
 20
76.000000
 30
0.0
 10
-3.910000
 20
73.000000
 30
0.0
 10
0.000000
 20
73.000000
 30
0.0
 10
0.000000
 20
36.000000
 30
0.0
 10
0.000000
 20
35.000000
 30
0.0
 10
-3.910000
 20
35.000000
 30
0.0
 10
-3.910000
 20
32.000000
 30
0.0
 10
-26.090000
 20
32.000000
 30
0.0
 10
-26.090000
 20
35.000000
 30
0.0
 10
-30.000000
 20
35.000000
 30
0.0
 10
-30.000000
 20
36.000000
 30
0.0
 10
-30.000000
 20
73.000000
 30
0.0
 10
-26.090000
 20
73.000000
 30
0.0
 10
-26.090000
 20
76.000000
 30
0.0
  0
LWPOLYLINE
  5
101
100
AcDbEntity
  8
0
 62
7
100
AcDbPolyline
 90
14
 70
1
 10
29.090000
 20
76.000000
 30
0.0
 10
29.090000
 20
73.000000
 30
0.0
 10
33.000000
 20
73.000000
 30
0.0
 10
33.000000
 20
36.000000
 30
0.0
 10
33.000000
 20
35.000000
 30
0.0
 10
29.090000
 20
35.000000
 30
0.0
 10
29.090000
 20
32.000000
 30
0.0
 10
6.910000
 20
32.000000
 30
0.0
 10
6.910000
 20
35.000000
 30
0.0
 10
3.000000
 20
35.000000
 30
0.0
 10
3.000000
 20
36.000000
 30
0.0
 10
3.000000
 20
73.000000
 30
0.0
 10
6.910000
 20
73.000000
 30
0.0
 10
6.910000
 20
76.000000
 30
0.0
  0
LWPOLYLINE
  5
102
100
AcDbEntity
  8
0
 62
7
100
AcDbPolyline
 90
220
 70
1
 10
37.000000
 20
36.000000
 30
0.0
 10
37.000000
 20
36.160000
 30
0.0
 10
37.000000
 20
37.183998
 30
0.0
 10
37.000000
 20
38.208000
 30
0.0
 10
37.000000
 20
39.231998
 30
0.0
 10
37.000000
 20
40.256001
 30
0.0
 10
37.000000
 20
41.280001
 30
0.0
 10
37.000000
 20
42.304001
 30
0.0
 10
37.000000
 20
43.327999
 30
0.0
 10
37.000000
 20
47.424000
 30
0.0
 10
37.000000
 20
52.000000
 30
0.0
 10
37.000000
 20
72.998000
 30
0.0
 10
37.000000
 20
73.000000
 30
0.0
 10
37.000000
 20
76.000000
 30
0.0
 10
37.000000
 20
82.000000
 30
0.0
 10
37.000000
 20
88.384001
 30
0.0
 10
37.000000
 20
90.431999
 30
0.0
 10
37.000000
 20
91.455999
 30
0.0
 10
37.000000
 20
92.480000
 30
0.0
 10
37.000000
 20
93.504000
 30
0.0
 10
37.000000
 20
94.528000
 30
0.0
 10
37.000000
 20
95.552000
 30
0.0
 10
37.000000
 20
96.576000
 30
0.0
 10
37.000000
 20
97.600000
 30
0.0
 10
37.000000
 20
98.624001
 30
0.0
 10
37.000000
 20
99.648001
 30
0.0
 10
37.000000
 20
100.000000
 30
0.0
 10
37.006001
 20
100.157000
 30
0.0
 10
37.006367
 20
100.160000
 30
0.0
 10
37.025002
 20
100.313000
 30
0.0
 10
37.055000
 20
100.466999
 30
0.0
 10
37.098000
 20
100.618000
 30
0.0
 10
37.117836
 20
100.672001
 30
0.0
 10
37.152000
 20
100.764999
 30
0.0
 10
37.217999
 20
100.908001
 30
0.0
 10
37.294998
 20
101.045000
 30
0.0
 10
37.375999
 20
101.166965
 30
0.0
 10
37.382000
 20
101.176001
 30
0.0
 10
37.388309
 20
101.184000
 30
0.0
 10
37.479000
 20
101.299000
 30
0.0
 10
37.585999
 20
101.414000
 30
0.0
 10
37.701000
 20
101.521000
 30
0.0
 10
37.824001
 20
101.618000
 30
0.0
 10
37.888000
 20
101.660503
 30
0.0
 10
37.941448
 20
101.695999
 30
0.0
 10
37.955002
 20
101.705000
 30
0.0
 10
38.091999
 20
101.782000
 30
0.0
 10
38.235001
 20
101.848000
 30
0.0
 10
38.382000
 20
101.902000
 30
0.0
 10
38.400002
 20
101.907125
 30
0.0
 10
38.533001
 20
101.945000
 30
0.0
 10
38.687000
 20
101.975000
 30
0.0
 10
38.842999
 20
101.993999
 30
0.0
 10
38.911999
 20
101.996637
 30
0.0
 10
39.000000
 20
102.000000
 30
0.0
 10
39.424000
 20
102.000000
 30
0.0
 10
39.936001
 20
102.000000
 30
0.0
 10
40.959999
 20
102.000000
 30
0.0
 10
41.984001
 20
102.000000
 30
0.0
 10
43.007999
 20
102.000000
 30
0.0
 10
44.032001
 20
102.000000
 30
0.0
 10
45.056000
 20
102.000000
 30
0.0
 10
46.080002
 20
102.000000
 30
0.0
 10
47.000000
 20
102.000000
 30
0.0
 10
65.550606
 20
102.000000
 30
0.0
 10
77.998001
 20
102.000000
 30
0.0
 10
87.000000
 20
102.000000
 30
0.0
 10
92.000000
 20
102.000000
 30
0.0
 10
92.160004
 20
102.000000
 30
0.0
 10
93.183998
 20
102.000000
 30
0.0
 10
94.208000
 20
102.000000
 30
0.0
 10
95.232002
 20
102.000000
 30
0.0
 10
96.255997
 20
102.000000
 30
0.0
 10
97.279999
 20
102.000000
 30
0.0
 10
98.304001
 20
102.000000
 30
0.0
 10
99.328003
 20
102.000000
 30
0.0
 10
100.351997
 20
102.000000
 30
0.0
 10
101.375999
 20
102.000000
 30
0.0
 10
102.400002
 20
102.000000
 30
0.0
 10
103.424004
 20
102.000000
 30
0.0
 10
104.447998
 20
102.000000
 30
0.0
 10
104.959999
 20
102.000000
 30
0.0
 10
105.000000
 20
102.000000
 30
0.0
 10
105.156998
 20
101.993999
 30
0.0
 10
105.313004
 20
101.975000
 30
0.0
 10
105.467003
 20
101.945000
 30
0.0
 10
105.472000
 20
101.943577
 30
0.0
 10
105.617996
 20
101.902000
 30
0.0
 10
105.764999
 20
101.848000
 30
0.0
 10
105.907997
 20
101.782000
 30
0.0
 10
105.984001
 20
101.739285
 30
0.0
 10
106.044998
 20
101.705000
 30
0.0
 10
106.058548
 20
101.695999
 30
0.0
 10
106.176003
 20
101.618000
 30
0.0
 10
106.299004
 20
101.521000
 30
0.0
 10
106.414001
 20
101.414000
 30
0.0
 10
106.496002
 20
101.325869
 30
0.0
 10
106.521004
 20
101.299000
 30
0.0
 10
106.611694
 20
101.184000
 30
0.0
 10
106.617996
 20
101.176001
 30
0.0
 10
106.705002
 20
101.045000
 30
0.0
 10
106.781998
 20
100.908001
 30
0.0
 10
106.848000
 20
100.764999
 30
0.0
 10
106.882164
 20
100.672001
 30
0.0
 10
106.902000
 20
100.618000
 30
0.0
 10
106.945000
 20
100.466999
 30
0.0
 10
106.974998
 20
100.313000
 30
0.0
 10
106.993637
 20
100.160000
 30
0.0
 10
106.994003
 20
100.157000
 30
0.0
 10
107.000000
 20
100.000000
 30
0.0
 10
107.000000
 20
99.648001
 30
0.0
 10
107.000000
 20
98.624001
 30
0.0
 10
107.000000
 20
96.576000
 30
0.0
 10
107.000000
 20
94.528000
 30
0.0
 10
107.000000
 20
92.480000
 30
0.0
 10
107.000000
 20
92.000000
 30
0.0
 10
107.000000
 20
91.455999
 30
0.0
 10
107.000000
 20
90.944000
 30
0.0
 10
107.000000
 20
90.431999
 30
0.0
 10
107.000000
 20
90.000000
 30
0.0
 10
107.000000
 20
89.920000
 30
0.0
 10
107.000000
 20
89.408001
 30
0.0
 10
107.000000
 20
88.384001
 30
0.0
 10
107.000000
 20
86.336000
 30
0.0
 10
107.000000
 20
84.288000
 30
0.0
 10
107.000000
 20
82.240000
 30
0.0
 10
107.000000
 20
82.000000
 30
0.0
 10
107.000000
 20
80.192000
 30
0.0
 10
107.000000
 20
78.144000
 30
0.0
 10
107.000000
 20
76.096000
 30
0.0
 10
107.000000
 20
76.000000
 30
0.0
 10
107.000000
 20
74.048000
 30
0.0
 10
107.000000
 20
74.000000
 30
0.0
 10
106.994003
 20
73.843000
 30
0.0
 10
106.974998
 20
73.687000
 30
0.0
 10
106.945587
 20
73.536000
 30
0.0
 10
106.945000
 20
73.533000
 30
0.0
 10
106.902000
 20
73.382000
 30
0.0
 10
106.848000
 20
73.235000
 30
0.0
 10
106.781998
 20
73.092000
 30
0.0
 10
106.743782
 20
73.024000
 30
0.0
 10
106.705002
 20
72.955000
 30
0.0
 10
106.617996
 20
72.824000
 30
0.0
 10
106.521004
 20
72.701000
 30
0.0
 10
106.496002
 20
72.674131
 30
0.0
 10
106.414001
 20
72.586000
 30
0.0
 10
106.334465
 20
72.512000
 30
0.0
 10
106.299004
 20
72.479000
 30
0.0
 10
106.176003
 20
72.382000
 30
0.0
 10
106.044998
 20
72.295000
 30
0.0
 10
105.984001
 20
72.260715
 30
0.0
 10
105.907997
 20
72.218000
 30
0.0
 10
105.764999
 20
72.152000
 30
0.0
 10
105.617996
 20
72.098000
 30
0.0
 10
105.472000
 20
72.056424
 30
0.0
 10
105.467003
 20
72.055000
 30
0.0
 10
105.313004
 20
72.025000
 30
0.0
 10
105.156998
 20
72.006000
 30
0.0
 10
105.000000
 20
72.000000
 30
0.0
 10
104.959999
 20
72.000000
 30
0.0
 10
104.447998
 20
72.000000
 30
0.0
 10
102.400002
 20
72.000000
 30
0.0
 10
100.442001
 20
72.000000
 30
0.0
 10
100.442001
 20
73.024000
 30
0.0
 10
100.442001
 20
74.048000
 30
0.0
 10
100.442001
 20
76.096000
 30
0.0
 10
100.442001
 20
77.979000
 30
0.0
 10
100.442001
 20
78.003000
 30
0.0
 10
100.376060
 20
78.003000
 30
0.0
 10
98.304001
 20
78.757181
 30
0.0
 10
94.361931
 20
80.192000
 30
0.0
 10
87.000000
 20
82.871567
 30
0.0
 10
77.998001
 20
86.148080
 30
0.0
 10
75.000000
 20
87.239281
 30
0.0
 10
61.911999
 20
92.003000
 30
0.0
 10
55.000000
 20
73.012418
 30
0.0
 10
54.994751
 20
72.998000
 30
0.0
 10
49.535931
 20
58.000000
 30
0.0
 10
47.352112
 20
52.000000
 30
0.0
 10
47.000000
 20
51.032578
 30
0.0
 10
45.686588
 20
47.424000
 30
0.0
 10
42.704945
 20
39.231998
 30
0.0
 10
41.214127
 20
35.136002
 30
0.0
 10
40.959999
 20
34.437798
 30
0.0
 10
40.841419
 20
34.112000
 30
0.0
 10
40.468716
 20
33.088001
 30
0.0
 10
40.072716
 20
32.000000
 30
0.0
 10
39.936001
 20
32.000000
 30
0.0
 10
39.000000
 20
32.000000
 30
0.0
 10
38.911999
 20
32.003365
 30
0.0
 10
38.842999
 20
32.006001
 30
0.0
 10
38.687000
 20
32.025002
 30
0.0
 10
38.533001
 20
32.055000
 30
0.0
 10
38.501396
 20
32.063999
 30
0.0
 10
38.400002
 20
32.092873
 30
0.0
 10
38.382000
 20
32.098000
 30
0.0
 10
38.235001
 20
32.152000
 30
0.0
 10
38.091999
 20
32.217999
 30
0.0
 10
37.955002
 20
32.294998
 30
0.0
 10
37.888000
 20
32.339497
 30
0.0
 10
37.824001
 20
32.382000
 30
0.0
 10
37.701000
 20
32.479000
 30
0.0
 10
37.596748
 20
32.576000
 30
0.0
 10
37.585999
 20
32.585999
 30
0.0
 10
37.479000
 20
32.701000
 30
0.0
 10
37.382000
 20
32.824001
 30
0.0
 10
37.375999
 20
32.833035
 30
0.0
 10
37.294998
 20
32.955002
 30
0.0
 10
37.220249
 20
33.088001
 30
0.0
 10
37.217999
 20
33.091999
 30
0.0
 10
37.152000
 20
33.235001
 30
0.0
 10
37.098000
 20
33.382000
 30
0.0
 10
37.055000
 20
33.533001
 30
0.0
 10
37.041946
 20
33.599998
 30
0.0
 10
37.025002
 20
33.687000
 30
0.0
 10
37.006001
 20
33.842999
 30
0.0
 10
37.000000
 20
34.000000
 30
0.0
 10
37.000000
 20
34.112000
 30
0.0
 10
37.000000
 20
35.000000
 30
0.0
 10
37.000000
 20
35.136002
 30
0.0
  0
LWPOLYLINE
  5
103
100
AcDbEntity
  8
0
 62
7
100
AcDbPolyline
 90
201
 70
1
 10
61.623940
 20
55.997000
 30
0.0
 10
62.670712
 20
55.615999
 30
0.0
 10
65.536003
 20
54.573103
 30
0.0
 10
75.000000
 20
51.128433
 30
0.0
 10
84.002998
 20
47.851557
 30
0.0
 10
87.000000
 20
46.760719
 30
0.0
 10
100.079758
 20
42.000000
 30
0.0
 10
100.087997
 20
41.997000
 30
0.0
 10
100.089088
 20
42.000000
 30
0.0
 10
107.005440
 20
61.002000
 30
0.0
 10
111.008492
 20
72.000000
 30
0.0
 10
112.464409
 20
76.000000
 30
0.0
 10
114.648293
 20
82.000000
 30
0.0
 10
115.000000
 20
82.966282
 30
0.0
 10
116.971939
 20
88.384001
 30
0.0
 10
119.953667
 20
96.576000
 30
0.0
 10
121.444527
 20
100.672001
 30
0.0
 10
121.817245
 20
101.695999
 30
0.0
 10
121.856003
 20
101.802481
 30
0.0
 10
121.927895
 20
102.000000
 30
0.0
 10
122.879997
 20
102.000000
 30
0.0
 10
123.000000
 20
102.000000
 30
0.0
 10
123.156998
 20
101.993999
 30
0.0
 10
123.313004
 20
101.975000
 30
0.0
 10
123.391998
 20
101.959610
 30
0.0
 10
123.467003
 20
101.945000
 30
0.0
 10
123.617996
 20
101.902000
 30
0.0
 10
123.764999
 20
101.848000
 30
0.0
 10
123.903999
 20
101.783846
 30
0.0
 10
123.907997
 20
101.782000
 30
0.0
 10
124.044998
 20
101.705000
 30
0.0
 10
124.058548
 20
101.695999
 30
0.0
 10
124.176003
 20
101.618000
 30
0.0
 10
124.299004
 20
101.521000
 30
0.0
 10
124.414001
 20
101.414000
 30
0.0
 10
124.416000
 20
101.411850
 30
0.0
 10
124.521004
 20
101.299000
 30
0.0
 10
124.611694
 20
101.184000
 30
0.0
 10
124.617996
 20
101.176001
 30
0.0
 10
124.705002
 20
101.045000
 30
0.0
 10
124.781998
 20
100.908001
 30
0.0
 10
124.848000
 20
100.764999
 30
0.0
 10
124.882164
 20
100.672001
 30
0.0
 10
124.902000
 20
100.618000
 30
0.0
 10
124.928001
 20
100.526697
 30
0.0
 10
124.945000
 20
100.466999
 30
0.0
 10
124.974998
 20
100.313000
 30
0.0
 10
124.993637
 20
100.160000
 30
0.0
 10
124.994003
 20
100.157000
 30
0.0
 10
125.000000
 20
100.000000
 30
0.0
 10
125.000000
 20
99.648001
 30
0.0
 10
125.000000
 20
98.624001
 30
0.0
 10
125.000000
 20
96.576000
 30
0.0
 10
125.000000
 20
94.528000
 30
0.0
 10
125.000000
 20
92.480000
 30
0.0
 10
125.000000
 20
90.431999
 30
0.0
 10
125.000000
 20
88.384001
 30
0.0
 10
125.000000
 20
82.000000
 30
0.0
 10
125.000000
 20
72.000000
 30
0.0
 10
125.000000
 20
61.002000
 30
0.0
 10
125.000000
 20
52.000000
 30
0.0
 10
125.000000
 20
42.000000
 30
0.0
 10
125.000000
 20
41.280001
 30
0.0
 10
125.000000
 20
39.231998
 30
0.0
 10
125.000000
 20
37.183998
 30
0.0
 10
125.000000
 20
35.136002
 30
0.0
 10
125.000000
 20
34.112000
 30
0.0
 10
125.000000
 20
34.000000
 30
0.0
 10
124.994003
 20
33.842999
 30
0.0
 10
124.974998
 20
33.687000
 30
0.0
 10
124.958054
 20
33.599998
 30
0.0
 10
124.945000
 20
33.533001
 30
0.0
 10
124.928001
 20
33.473301
 30
0.0
 10
124.902000
 20
33.382000
 30
0.0
 10
124.848000
 20
33.235001
 30
0.0
 10
124.781998
 20
33.091999
 30
0.0
 10
124.779755
 20
33.088001
 30
0.0
 10
124.705002
 20
32.955002
 30
0.0
 10
124.617996
 20
32.824001
 30
0.0
 10
124.521004
 20
32.701000
 30
0.0
 10
124.416000
 20
32.588150
 30
0.0
 10
124.414001
 20
32.585999
 30
0.0
 10
124.403252
 20
32.576000
 30
0.0
 10
124.299004
 20
32.479000
 30
0.0
 10
124.176003
 20
32.382000
 30
0.0
 10
124.044998
 20
32.294998
 30
0.0
 10
123.907997
 20
32.217999
 30
0.0
 10
123.903999
 20
32.216152
 30
0.0
 10
123.764999
 20
32.152000
 30
0.0
 10
123.617996
 20
32.098000
 30
0.0
 10
123.498604
 20
32.063999
 30
0.0
 10
123.467003
 20
32.055000
 30
0.0
 10
123.391998
 20
32.040390
 30
0.0
 10
123.313004
 20
32.025002
 30
0.0
 10
123.156998
 20
32.006001
 30
0.0
 10
123.000000
 20
32.000000
 30
0.0
 10
122.879997
 20
32.000000
 30
0.0
 10
120.832001
 20
32.000000
 30
0.0
 10
118.783997
 20
32.000000
 30
0.0
 10
116.736000
 20
32.000000
 30
0.0
 10
115.000000
 20
32.000000
 30
0.0
 10
96.449295
 20
32.000000
 30
0.0
 10
87.000000
 20
32.000000
 30
0.0
 10
84.002998
 20
32.000000
 30
0.0
 10
70.000000
 20
32.000000
 30
0.0
 10
69.632004
 20
32.000000
 30
0.0
 10
67.584000
 20
32.000000
 30
0.0
 10
65.536003
 20
32.000000
 30
0.0
 10
63.487999
 20
32.000000
 30
0.0
 10
61.439999
 20
32.000000
 30
0.0
 10
59.391998
 20
32.000000
 30
0.0
 10
57.344002
 20
32.000000
 30
0.0
 10
57.000000
 20
32.000000
 30
0.0
 10
56.842999
 20
32.006001
 30
0.0
 10
56.832001
 20
32.007339
 30
0.0
 10
56.687000
 20
32.025002
 30
0.0
 10
56.533001
 20
32.055000
 30
0.0
 10
56.501396
 20
32.063999
 30
0.0
 10
56.382000
 20
32.098000
 30
0.0
 10
56.320000
 20
32.120777
 30
0.0
 10
56.235001
 20
32.152000
 30
0.0
 10
56.091999
 20
32.217999
 30
0.0
 10
55.955002
 20
32.294998
 30
0.0
 10
55.824001
 20
32.382000
 30
0.0
 10
55.807999
 20
32.394619
 30
0.0
 10
55.701000
 20
32.479000
 30
0.0
 10
55.596748
 20
32.576000
 30
0.0
 10
55.585999
 20
32.585999
 30
0.0
 10
55.479000
 20
32.701000
 30
0.0
 10
55.382000
 20
32.824001
 30
0.0
 10
55.296001
 20
32.953495
 30
0.0
 10
55.294998
 20
32.955002
 30
0.0
 10
55.220249
 20
33.088001
 30
0.0
 10
55.217999
 20
33.091999
 30
0.0
 10
55.152000
 20
33.235001
 30
0.0
 10
55.098000
 20
33.382000
 30
0.0
 10
55.055000
 20
33.533001
 30
0.0
 10
55.041946
 20
33.599998
 30
0.0
 10
55.025002
 20
33.687000
 30
0.0
 10
55.006001
 20
33.842999
 30
0.0
 10
55.000000
 20
34.000000
 30
0.0
 10
55.000000
 20
34.112000
 30
0.0
 10
55.000000
 20
35.136002
 30
0.0
 10
55.000000
 20
37.183998
 30
0.0
 10
55.000000
 20
39.231998
 30
0.0
 10
55.000000
 20
41.280001
 30
0.0
 10
55.000000
 20
42.000000
 30
0.0
 10
55.000000
 20
42.304001
 30
0.0
 10
55.000000
 20
42.816000
 30
0.0
 10
55.000000
 20
43.327999
 30
0.0
 10
55.000000
 20
43.840000
 30
0.0
 10
55.000000
 20
44.000000
 30
0.0
 10
55.000000
 20
44.351999
 30
0.0
 10
55.000000
 20
45.375999
 30
0.0
 10
55.000000
 20
47.424000
 30
0.0
 10
55.000000
 20
49.472000
 30
0.0
 10
55.000000
 20
51.520000
 30
0.0
 10
55.000000
 20
52.000000
 30
0.0
 10
55.000000
 20
53.568001
 30
0.0
 10
55.000000
 20
55.615999
 30
0.0
 10
55.000000
 20
57.664000
 30
0.0
 10
55.000000
 20
58.000000
 30
0.0
 10
55.000000
 20
59.712000
 30
0.0
 10
55.000000
 20
60.000000
 30
0.0
 10
55.006001
 20
60.157000
 30
0.0
 10
55.014160
 20
60.224000
 30
0.0
 10
55.025002
 20
60.313000
 30
0.0
 10
55.055000
 20
60.467000
 30
0.0
 10
55.098000
 20
60.618000
 30
0.0
 10
55.141346
 20
60.736000
 30
0.0
 10
55.152000
 20
60.765000
 30
0.0
 10
55.217999
 20
60.908000
 30
0.0
 10
55.294998
 20
61.045000
 30
0.0
 10
55.296001
 20
61.046506
 30
0.0
 10
55.382000
 20
61.176000
 30
0.0
 10
55.438782
 20
61.248000
 30
0.0
 10
55.479000
 20
61.299000
 30
0.0
 10
55.585999
 20
61.414000
 30
0.0
 10
55.701000
 20
61.521000
 30
0.0
 10
55.807999
 20
61.605382
 30
0.0
 10
55.824001
 20
61.618000
 30
0.0
 10
55.955002
 20
61.705000
 30
0.0
 10
56.052856
 20
61.760000
 30
0.0
 10
56.091999
 20
61.782000
 30
0.0
 10
56.235001
 20
61.848000
 30
0.0
 10
56.320000
 20
61.879225
 30
0.0
 10
56.382000
 20
61.902000
 30
0.0
 10
56.533001
 20
61.945000
 30
0.0
 10
56.687000
 20
61.975000
 30
0.0
 10
56.832001
 20
61.992661
 30
0.0
 10
56.842999
 20
61.994000
 30
0.0
 10
57.000000
 20
62.000000
 30
0.0
 10
57.344002
 20
62.000000
 30
0.0
 10
59.391998
 20
62.000000
 30
0.0
 10
61.439999
 20
62.000000
 30
0.0
 10
61.557999
 20
62.000000
 30
0.0
 10
61.557999
 20
61.760000
 30
0.0
 10
61.557999
 20
59.712000
 30
0.0
 10
61.557999
 20
58.000000
 30
0.0
 10
61.557999
 20
56.021000
 30
0.0
 10
61.557999
 20
55.997000
 30
0.0
  0
LWPOLYLINE
  5
104
100
AcDbEntity
  8
0
 62
7
100
AcDbPolyline
 90
11
 70
1
 10
77.998001
 20
91.997999
 30
0.0
 10
87.000000
 20
91.997999
 30
0.0
 10
98.304001
 20
91.997999
 30
0.0
 10
100.002998
 20
91.997999
 30
0.0
 10
100.002998
 20
92.000000
 30
0.0
 10
100.002998
 20
92.480000
 30
0.0
 10
100.002998
 20
95.003000
 30
0.0
 10
98.304001
 20
95.003000
 30
0.0
 10
92.000000
 20
95.003000
 30
0.0
 10
87.000000
 20
95.003000
 30
0.0
 10
77.998001
 20
95.003000
 30
0.0
  0
LWPOLYLINE
  5
105
100
AcDbEntity
  8
0
 62
7
100
AcDbPolyline
 90
10
 70
1
 10
114.998001
 20
61.002000
 30
0.0
 10
114.998001
 20
42.000000
 30
0.0
 10
114.998001
 20
38.997002
 30
0.0
 10
115.000000
 20
38.997002
 30
0.0
 10
118.002998
 20
38.997002
 30
0.0
 10
118.002998
 20
39.231998
 30
0.0
 10
118.002998
 20
42.000000
 30
0.0
 10
118.002998
 20
52.000000
 30
0.0
 10
118.002998
 20
61.002000
 30
0.0
 10
115.000000
 20
61.002000
 30
0.0
  0
LWPOLYLINE
  5
106
100
AcDbEntity
  8
0
 62
7
100
AcDbPolyline
 90
8
 70
1
 10
43.998001
 20
95.003000
 30
0.0
 10
43.998001
 20
88.384001
 30
0.0
 10
43.998001
 20
82.000000
 30
0.0
 10
43.998001
 20
72.998000
 30
0.0
 10
47.000000
 20
72.998000
 30
0.0
 10
47.002998
 20
72.998000
 30
0.0
 10
47.002998
 20
95.003000
 30
0.0
 10
47.000000
 20
95.003000
 30
0.0
  0
LWPOLYLINE
  5
107
100
AcDbEntity
  8
0
 62
7
100
AcDbPolyline
 90
13
 70
1
 10
69.632004
 20
38.997002
 30
0.0
 10
70.000000
 20
38.997002
 30
0.0
 10
84.002998
 20
38.997002
 30
0.0
 10
84.002998
 20
42.000000
 30
0.0
 10
84.002998
 20
42.002001
 30
0.0
 10
75.000000
 20
42.002001
 30
0.0
 10
65.536003
 20
42.002001
 30
0.0
 10
61.998001
 20
42.002001
 30
0.0
 10
61.998001
 20
42.000000
 30
0.0
 10
61.998001
 20
39.231998
 30
0.0
 10
61.998001
 20
38.997002
 30
0.0
 10
65.536003
 20
38.997002
 30
0.0
 10
69.632004
 20
38.997002
 30
0.0
  0
ENDSEC
  0
SECTION
  2
OBJECTS
  0
DICTIONARY
  5
C
330
0
100
AcDbDictionary
  3
ACAD_GROUP
350
D
  3
ACAD_MLINESTYLE
350
17
  0
DICTIONARY
  5
D
330
C
100
AcDbDictionary
  0
DICTIONARY
  5
1A
330
C
100
AcDbDictionary
  0
DICTIONARY
  5
17
330
C
100
AcDbDictionary
  3
STANDARD
350
18
  0
DICTIONARY
  5
19
330
C
100
AcDbDictionary
  0
ENDSEC
  0
EOF
