<?xml version="1.0" standalone="no"?>
<!DOCTYPE svg PUBLIC "-//W3C//DTD SVG 1.1//EN"
  "http://www.w3.org/Graphics/SVG/1.1/DTD/svg11.dtd">
<svg width="263mm" height="214.99999999999994mm" viewBox="-101 -113.99999999999997 263 214.99999999999994" xmlns="http://www.w3.org/2000/svg" version="1.1">
	<title>svgOutput</title>
	<desc>made with tinkercad</desc>
<path d="M 158 -109.99999999999997 L 158 -104.50199890136716 L 158 -101.74999999999997 L 161 -101.74999999999997 L 161 -85.24999999999999 L 158 -85.24999999999999 L 158 -77.00199890136717 L 158 -68.74999999999999 L 161 -68.74999999999999 L 161 -65.53600311279295 L 161 -52.249999999999986 L 158 -52.249999999999986 L 158 -35.74999999999999 L 161 -35.74999999999999 L 161 -19.249999999999996 L 158 -19.249999999999996 L 158 -13.998000144958493 L 158 -10.999999999999998 L 152.5019989013672 -10.999999999999998 L 148.25 -10.999999999999998 L 148.25 -7.999999999999998 L 146.7519989013672 -7.999999999999998 L 131.75 -7.999999999999998 L 131.75 -10.999999999999998 L 131.07200622558594 -10.999999999999998 L 115.25 -10.999999999999998 L 115.25 -7.999999999999998 L 98.75 -7.999999999999998 L 98.75 -10.999999999999998 L 91.99800109863281 -10.999999999999998 L 89 -10.999999999999998 L 89 -19.249999999999996 L 86 -19.249999999999996 L 86 -32.76800155639648 L 86 -35.74999999999999 L 89 -35.74999999999999 L 89 -52.249999999999986 L 86 -52.249999999999986 L 86 -65.53600311279295 L 86 -68.74999999999999 L 89 -68.74999999999999 L 89 -85.24999999999999 L 86 -85.24999999999999 L 86 -101.74999999999997 L 89 -101.74999999999997 L 89 -109.99999999999997 L 91.99800109863281 -109.99999999999997 L 94.49800109863281 -109.99999999999997 L 98.75 -109.99999999999997 L 98.75 -112.99999999999997 L 100.24800109863281 -112.99999999999997 L 115.25 -112.99999999999997 L 115.25 -109.99999999999997 L 131.07200622558594 -109.99999999999997 L 131.75 -109.99999999999997 L 131.75 -112.99999999999997 L 148.25 -112.99999999999997 L 148.25 -109.99999999999997 L 152.5019989013672 -109.99999999999997 L 155.0030059814453 -109.99999999999997 L 158 -109.99999999999997 M 158 -1.9999999999999996 L 158 1.1102230246251565e-16 L 158 3.497999906539916 L 158 6.249999999999998 L 161 6.249999999999998 L 161 22.749999999999996 L 158 22.749999999999996 L 158 39.24999999999999 L 161 39.24999999999999 L 161 55.749999999999986 L 158 55.749999999999986 L 158 72.24999999999999 L 161 72.24999999999999 L 161 88.74999999999999 L 158 88.74999999999999 L 158 94.00299835205077 L 158 96.99999999999997 L 152.5019989013672 96.99999999999997 L 148.25 96.99999999999997 L 148.25 99.99999999999997 L 131.75 99.99999999999997 L 131.75 96.99999999999997 L 131.07200622558594 96.99999999999997 L 115.25 96.99999999999997 L 115.25 99.99999999999997 L 98.75 99.99999999999997 L 98.75 96.99999999999997 L 91.99800109863281 96.99999999999997 L 89 96.99999999999997 L 89 88.74999999999999 L 86 88.74999999999999 L 86 87.74999999999999 L 86 72.24999999999999 L 89 72.24999999999999 L 89 65.53600311279295 L 89 55.749999999999986 L 86 55.749999999999986 L 86 39.24999999999999 L 89 39.24999999999999 L 89 32.76800155639648 L 89 22.749999999999996 L 86 22.749999999999996 L 86 17.999999999999996 L 86 14.999999999999996 L 86 6.249999999999998 L 89 6.249999999999998 L 89 1.1102230246251565e-16 L 89 -1.9999999999999996 L 98.75 -1.9999999999999996 L 98.75 -4.999999999999999 L 115.25 -4.999999999999999 L 115.25 -1.9999999999999996 L 131.07200622558594 -1.9999999999999996 L 131.75 -1.9999999999999996 L 131.75 -4.999999999999999 L 148.25 -4.999999999999999 L 148.25 -1.9999999999999996 L 158 -1.9999999999999996 M 80 14.999999999999996 L 80 17.999999999999996 L 80 27.249999999999993 L 83 27.249999999999993 L 83 32.76800155639648 L 83 39.24999999999999 L 83 43.74999999999999 L 80 43.74999999999999 L 80 55.999999999999986 L 72.50299835205078 55.999999999999986 L 71.75 55.999999999999986 L 71.75 52.999999999999986 L 65.53600311279297 52.999999999999986 L 55.25 52.999999999999986 L 55.25 55.999999999999986 L 38.75 55.999999999999986 L 38.75 52.999999999999986 L 32.768001556396484 52.999999999999986 L 22.25 52.999999999999986 L 22.25 55.999999999999986 L 5.75 55.999999999999986 L 5.75 52.999999999999986 L 0 52.999999999999986 L -10.75 52.999999999999986 L -10.75 55.999999999999986 L -19 55.999999999999986 L -19 52.999999999999986 L -19 49.15200042724608 L -19 43.74999999999999 L -22 43.74999999999999 L -22 32.76800155639648 L -22 27.249999999999993 L -19 27.249999999999993 L -19 17.999999999999996 L -19 14.999999999999996 L -10.75 14.999999999999996 L -10.75 17.999999999999996 L 0 17.999999999999996 L 5.75 17.999999999999996 L 5.75 14.999999999999996 L 22.25 14.999999999999996 L 22.25 17.999999999999996 L 38.75 17.999999999999996 L 38.75 14.999999999999996 L 55.25 14.999999999999996 L 55.25 17.999999999999996 L 65.53600311279297 17.999999999999996 L 71.75 17.999999999999996 L 71.75 14.999999999999996 L 80 14.999999999999996 M 71.75 58.999999999999986 L 80 58.999999999999986 L 80 65.53600311279295 L 80 71.24999999999999 L 83 71.24999999999999 L 83 72.24999999999999 L 83 87.74999999999999 L 80 87.74999999999999 L 80 88.74999999999999 L 80 96.99999999999997 L 80 99.99999999999997 L 71.75 99.99999999999997 L 71.75 96.99999999999997 L 71.50299835205078 96.99999999999997 L 68.49800109863281 96.99999999999997 L 65.53600311279297 96.99999999999997 L 64.50299835205078 96.99999999999997 L 61.49800109863281 96.99999999999997 L 57.50299835205078 96.99999999999997 L 55.25 96.99999999999997 L 55.25 99.99999999999997 L 38.75 99.99999999999997 L 38.75 96.99999999999997 L 36.49800109863281 96.99999999999997 L 32.50199890136719 96.99999999999997 L 29.49799919128418 96.99999999999997 L 25.503000259399414 96.99999999999997 L 22.49799919128418 96.99999999999997 L 22.25 96.99999999999997 L 22.25 99.99999999999997 L 5.75 99.99999999999997 L 5.75 96.99999999999997 L 3.997999906539917 96.99999999999997 L 0.003000000026077032 96.99999999999997 L 0 96.99999999999997 L -3.003000020980835 96.99999999999997 L -6.998000144958496 96.99999999999997 L -10.003000259399414 96.99999999999997 L -10.75 96.99999999999997 L -10.75 99.99999999999997 L -19 99.99999999999997 L -19 87.74999999999999 L -22 87.74999999999999 L -22 71.24999999999999 L -19 71.24999999999999 L -19 65.53600311279295 L -19 58.999999999999986 L -10.75 58.999999999999986 L -10.75 61.999999999999986 L 0 61.999999999999986 L 5.75 61.999999999999986 L 5.75 58.999999999999986 L 22.25 58.999999999999986 L 22.25 61.999999999999986 L 32.768001556396484 61.999999999999986 L 38.75 61.999999999999986 L 38.75 58.999999999999986 L 55.25 58.999999999999986 L 55.25 61.999999999999986 L 65.53600311279297 61.999999999999986 L 71.75 61.999999999999986 L 71.75 58.999999999999986 M -25 14.999999999999996 L -25 17.999999999999996 L -25 27.249999999999993 L -28 27.249999999999993 L -28 32.76800155639648 L -28 43.74999999999999 L -25 43.74999999999999 L -25 49.15200042724608 L -25 52.999999999999986 L -25 55.999999999999986 L -32.768001556396484 55.999999999999986 L -37.75 55.999999999999986 L -37.75 52.999999999999986 L -54.25 52.999999999999986 L -54.25 55.999999999999986 L -65.53600311279297 55.999999999999986 L -70.75 55.999999999999986 L -70.75 52.999999999999986 L -87.25 52.999999999999986 L -87.25 55.999999999999986 L -100 55.999999999999986 L -100 52.999999999999986 L -100 43.74999999999999 L -97 43.74999999999999 L -97 32.76800155639648 L -97 27.249999999999993 L -100 27.249999999999993 L -100 14.999999999999996 L -97 14.999999999999996 L -92.50299835205078 14.999999999999996 L -87.25 14.999999999999996 L -87.25 17.999999999999996 L -70.75 17.999999999999996 L -70.75 14.999999999999996 L -65.53600311279297 14.999999999999996 L -54.25 14.999999999999996 L -54.25 17.999999999999996 L -37.75 17.999999999999996 L -37.75 14.999999999999996 L -25 14.999999999999996 M -25 58.999999999999986 L -25 65.53600311279295 L -25 71.24999999999999 L -28 71.24999999999999 L -28 87.74999999999999 L -25 87.74999999999999 L -25 99.99999999999997 L -28 99.99999999999997 L -32.99800109863281 99.99999999999997 L -36.00299835205078 99.99999999999997 L -37.75 99.99999999999997 L -37.75 96.99999999999997 L -39.99800109863281 96.99999999999997 L -43.00299835205078 96.99999999999997 L -46.99800109863281 96.99999999999997 L -50.00299835205078 96.99999999999997 L -53.99800109863281 96.99999999999997 L -54.25 96.99999999999997 L -54.25 99.99999999999997 L -57.00299835205078 99.99999999999997 L -60.99800109863281 99.99999999999997 L -64.00299835205078 99.99999999999997 L -65.53600311279297 99.99999999999997 L -67.99800109863281 99.99999999999997 L -70.75 99.99999999999997 L -70.75 96.99999999999997 L -71.00299835205078 96.99999999999997 L -74.99800109863281 96.99999999999997 L -78.00299835205078 96.99999999999997 L -81.99800109863281 96.99999999999997 L -85.00299835205078 96.99999999999997 L -87.25 96.99999999999997 L -87.25 99.99999999999997 L -100 99.99999999999997 L -100 96.99999999999997 L -100 87.74999999999999 L -97 87.74999999999999 L -97 71.24999999999999 L -100 71.24999999999999 L -100 65.53600311279295 L -100 58.999999999999986 L -87.25 58.999999999999986 L -87.25 61.999999999999986 L -70.75 61.999999999999986 L -70.75 58.999999999999986 L -65.53600311279297 58.999999999999986 L -54.25 58.999999999999986 L -54.25 61.999999999999986 L -37.75 61.999999999999986 L -37.75 58.999999999999986 L -32.768001556396484 58.999999999999986 L -25 58.999999999999986 M 147.33299255371094 -77.1949996948242 L 147.45599365234375 -77.12677001953124 L 147.47000122070312 -77.11900329589842 L 147.61599731445312 -77.06099700927733 L 147.76800537109375 -77.02200317382811 L 147.9239959716797 -77.00199890136717 L 148.08099365234375 -77.00199890136717 L 148.23699951171875 -77.02200317382811 L 148.38900756835938 -77.06099700927733 L 148.53500366210938 -77.11900329589842 L 148.6719970703125 -77.1949996948242 L 148.7989959716797 -77.28700256347655 L 148.91400146484375 -77.39499664306639 L 149.01400756835938 -77.51599884033202 L 149.09800720214844 -77.6490020751953 L 149.1649932861328 -77.79100036621092 L 149.17556762695312 -77.82399749755858 L 149.21299743652344 -77.94100189208983 L 149.2429962158203 -78.09500122070311 L 149.2530059814453 -78.25199890136717 L 149.2429962158203 -78.40899658203124 L 149.21299743652344 -78.56400299072264 L 149.1649932861328 -78.71399688720702 L 149.09800720214844 -78.85600280761717 L 149.01400756835938 -78.98899841308592 L 148.91400146484375 -79.11000061035155 L 148.7989959716797 -79.21800231933592 L 148.6719970703125 -79.30999755859374 L 148.53500366210938 -79.38600158691405 L 148.47999572753906 -79.40785217285155 L 148.38900756835938 -79.44400024414061 L 148.23699951171875 -79.48300170898436 L 148.08099365234375 -79.50299835205077 L 147.9239959716797 -79.50299835205077 L 147.76800537109375 -79.48300170898436 L 147.61599731445312 -79.44400024414061 L 147.47000122070312 -79.38600158691405 L 147.45599365234375 -79.37823486328124 L 147.33299255371094 -79.30999755859374 L 147.20599365234375 -79.21800231933592 L 147.09100341796875 -79.11000061035155 L 146.99099731445312 -78.98899841308592 L 146.90699768066406 -78.85600280761717 L 146.83999633789062 -78.71399688720702 L 146.79200744628906 -78.56400299072264 L 146.76199340820312 -78.40899658203124 L 146.7519989013672 -78.25199890136717 L 146.76199340820312 -78.09500122070311 L 146.79200744628906 -77.94100189208983 L 146.82943725585938 -77.82399749755858 L 146.83999633789062 -77.79100036621092 L 146.90699768066406 -77.6490020751953 L 146.99099731445312 -77.51599884033202 L 147.09100341796875 -77.39499664306639 L 147.20599365234375 -77.28700256347655 L 147.33299255371094 -77.1949996948242 M 153.51800537109375 -104.5220031738281 L 153.60000610351562 -104.51148986816403 L 153.6739959716797 -104.50199890136716 L 153.83099365234375 -104.50199890136716 L 153.98699951171875 -104.5220031738281 L 154.13900756835938 -104.56099700927732 L 154.28500366210938 -104.61900329589841 L 154.4219970703125 -104.69499969482419 L 154.5489959716797 -104.78700256347653 L 154.66400146484375 -104.89499664306638 L 154.76400756835938 -105.015998840332 L 154.84800720214844 -105.14900207519528 L 154.9149932861328 -105.29100036621091 L 154.96299743652344 -105.44100189208982 L 154.9690399169922 -105.47200012207028 L 154.9929962158203 -105.5950012207031 L 155.0030059814453 -105.75199890136716 L 154.9929962158203 -105.90899658203122 L 154.96299743652344 -106.06400299072263 L 154.9149932861328 -106.213996887207 L 154.84800720214844 -106.35600280761716 L 154.76400756835938 -106.48899841308591 L 154.75820922851562 -106.4960021972656 L 154.66400146484375 -106.61000061035153 L 154.5489959716797 -106.71800231933591 L 154.4219970703125 -106.80999755859372 L 154.28500366210938 -106.88600158691403 L 154.13900756835938 -106.9440002441406 L 153.98699951171875 -106.98300170898435 L 153.83099365234375 -107.00299835205075 L 153.6739959716797 -107.00299835205075 L 153.51800537109375 -106.98300170898435 L 153.36599731445312 -106.9440002441406 L 153.22000122070312 -106.88600158691403 L 153.08299255371094 -106.80999755859372 L 152.95599365234375 -106.71800231933591 L 152.84100341796875 -106.61000061035153 L 152.7467803955078 -106.4960021972656 L 152.74099731445312 -106.48899841308591 L 152.65699768066406 -106.35600280761716 L 152.58999633789062 -106.213996887207 L 152.54200744628906 -106.06400299072263 L 152.51199340820312 -105.90899658203122 L 152.5019989013672 -105.75199890136716 L 152.51199340820312 -105.5950012207031 L 152.5359649658203 -105.47200012207028 L 152.54200744628906 -105.44100189208982 L 152.58999633789062 -105.29100036621091 L 152.65699768066406 -105.14900207519528 L 152.74099731445312 -105.015998840332 L 152.84100341796875 -104.89499664306638 L 152.95599365234375 -104.78700256347653 L 153.08299255371094 -104.69499969482419 L 153.22000122070312 -104.61900329589841 L 153.36599731445312 -104.56099700927732 L 153.51800537109375 -104.5220031738281 M 153.51800537109375 -14.017000198364254 L 153.60000610351562 -14.007012367248532 L 153.6739959716797 -13.998000144958493 L 153.83099365234375 -13.998000144958493 L 153.98699951171875 -14.017000198364254 L 154.13900756835938 -14.055999755859371 L 154.28500366210938 -14.114000320434567 L 154.4219970703125 -14.189999580383297 L 154.5489959716797 -14.281999588012692 L 154.60650634765625 -14.33600044250488 L 154.66400146484375 -14.39000034332275 L 154.76400756835938 -14.510999679565426 L 154.84800720214844 -14.644000053405758 L 154.9149932861328 -14.786000251770016 L 154.96299743652344 -14.93599987030029 L 154.9929962158203 -15.09099960327148 L 155.0030059814453 -15.248000144958493 L 154.99586486816406 -15.359999656677243 L 154.9929962158203 -15.404999732971188 L 154.96299743652344 -15.559000015258786 L 154.9149932861328 -15.708999633789059 L 154.84800720214844 -15.850999832153317 L 154.76400756835938 -15.984000205993649 L 154.66400146484375 -16.104999542236325 L 154.5489959716797 -16.212999343872067 L 154.4219970703125 -16.305000305175778 L 154.28500366210938 -16.381000518798825 L 154.27745056152344 -16.38400077819824 L 154.13900756835938 -16.438999176025387 L 153.98699951171875 -16.478000640869137 L 153.83099365234375 -16.497999191284176 L 153.6739959716797 -16.497999191284176 L 153.60000610351562 -16.488512039184567 L 153.51800537109375 -16.478000640869137 L 153.36599731445312 -16.438999176025387 L 153.22755432128906 -16.38400077819824 L 153.22000122070312 -16.381000518798825 L 153.08299255371094 -16.305000305175778 L 152.95599365234375 -16.212999343872067 L 152.84100341796875 -16.104999542236325 L 152.74099731445312 -15.984000205993649 L 152.65699768066406 -15.850999832153317 L 152.58999633789062 -15.708999633789059 L 152.54200744628906 -15.559000015258786 L 152.51199340820312 -15.404999732971188 L 152.50914001464844 -15.359999656677243 L 152.5019989013672 -15.248000144958493 L 152.51199340820312 -15.09099960327148 L 152.54200744628906 -14.93599987030029 L 152.58999633789062 -14.786000251770016 L 152.65699768066406 -14.644000053405758 L 152.74099731445312 -14.510999679565426 L 152.84100341796875 -14.39000034332275 L 152.89849853515625 -14.33600044250488 L 152.95599365234375 -14.281999588012692 L 153.08299255371094 -14.189999580383297 L 153.22000122070312 -14.114000320434567 L 153.36599731445312 -14.055999755859371 L 153.51800537109375 -14.017000198364254 M 148.25 -19.020336151123043 L 148.38900756835938 -19.05599975585937 L 148.47999572753906 -19.092149734497067 L 148.53500366210938 -19.114000320434567 L 148.6719970703125 -19.190000534057614 L 148.75482177734375 -19.249999999999996 L 148.7989959716797 -19.28199958801269 L 148.91400146484375 -19.389999389648434 L 149.01400756835938 -19.510999679565426 L 149.09800720214844 -19.64399909973144 L 149.1649932861328 -19.787000656127926 L 149.21299743652344 -19.936000823974606 L 149.2429962158203 -20.09099960327148 L 149.2530059814453 -20.247999191284176 L 149.2429962158203 -20.405000686645504 L 149.2283935546875 -20.479999542236325 L 149.21299743652344 -20.559000015258786 L 149.1649932861328 -20.70899963378906 L 149.09800720214844 -20.850999832153317 L 149.01400756835938 -20.983999252319332 L 148.91400146484375 -21.104999542236325 L 148.7989959716797 -21.212999343872067 L 148.6719970703125 -21.305000305175778 L 148.53500366210938 -21.381000518798825 L 148.47999572753906 -21.40284919738769 L 148.38900756835938 -21.438999176025387 L 148.25 -21.474664688110348 L 148.23699951171875 -21.478000640869137 L 148.08099365234375 -21.497999191284176 L 147.9239959716797 -21.497999191284176 L 147.76800537109375 -21.478000640869137 L 147.61599731445312 -21.438999176025387 L 147.47000122070312 -21.381000518798825 L 147.45599365234375 -21.373233795166012 L 147.33299255371094 -21.305000305175778 L 147.20599365234375 -21.212999343872067 L 147.09100341796875 -21.104999542236325 L 146.99099731445312 -20.983999252319332 L 146.90699768066406 -20.850999832153317 L 146.83999633789062 -20.70899963378906 L 146.79200744628906 -20.559000015258786 L 146.776611328125 -20.479999542236325 L 146.76199340820312 -20.405000686645504 L 146.7519989013672 -20.247999191284176 L 146.76199340820312 -20.09099960327148 L 146.79200744628906 -19.936000823974606 L 146.83999633789062 -19.787000656127926 L 146.90699768066406 -19.64399909973144 L 146.99099731445312 -19.510999679565426 L 147.09100341796875 -19.389999389648434 L 147.20599365234375 -19.28199958801269 L 147.33299255371094 -19.190000534057614 L 147.45599365234375 -19.12176704406738 L 147.47000122070312 -19.114000320434567 L 147.61599731445312 -19.05599975585937 L 147.76800537109375 -19.017000198364254 L 147.9239959716797 -18.997999191284176 L 148.08099365234375 -18.997999191284176 L 148.23699951171875 -19.017000198364254 L 148.25 -19.020336151123043 M 92.00700378417969 -105.90899658203122 L 91.99800109863281 -105.75199890136716 L 92.00700378417969 -105.5950012207031 L 92.03700256347656 -105.44100189208982 L 92.08499908447266 -105.29100036621091 L 92.1520004272461 -105.14900207519528 L 92.16000366210938 -105.13632965087888 L 92.23600006103516 -105.015998840332 L 92.33599853515625 -104.89499664306638 L 92.45099639892578 -104.78700256347653 L 92.5780029296875 -104.69499969482419 L 92.71499633789062 -104.61900329589841 L 92.86100006103516 -104.56099700927732 L 93.01300048828125 -104.5220031738281 L 93.16899871826172 -104.50199890136716 L 93.18399810791016 -104.50199890136716 L 93.32599639892578 -104.50199890136716 L 93.48200225830078 -104.5220031738281 L 93.63400268554688 -104.56099700927732 L 93.77999877929688 -104.61900329589841 L 93.91699981689453 -104.69499969482419 L 94.04399871826172 -104.78700256347653 L 94.15899658203125 -104.89499664306638 L 94.20800018310547 -104.95429229736325 L 94.25900268554688 -105.015998840332 L 94.34300231933594 -105.14900207519528 L 94.41000366210938 -105.29100036621091 L 94.45800018310547 -105.44100189208982 L 94.48799896240234 -105.5950012207031 L 94.49800109863281 -105.75199890136716 L 94.48799896240234 -105.90899658203122 L 94.45800018310547 -106.06400299072263 L 94.41000366210938 -106.213996887207 L 94.34300231933594 -106.35600280761716 L 94.25900268554688 -106.48899841308591 L 94.25321197509766 -106.4960021972656 L 94.15899658203125 -106.61000061035153 L 94.04399871826172 -106.71800231933591 L 93.91699981689453 -106.80999755859372 L 93.77999877929688 -106.88600158691403 L 93.63400268554688 -106.9440002441406 L 93.48200225830078 -106.98300170898435 L 93.32599639892578 -107.00299835205075 L 93.16899871826172 -107.00299835205075 L 93.01300048828125 -106.98300170898435 L 92.86100006103516 -106.9440002441406 L 92.71499633789062 -106.88600158691403 L 92.5780029296875 -106.80999755859372 L 92.45099639892578 -106.71800231933591 L 92.33599853515625 -106.61000061035153 L 92.24178314208984 -106.4960021972656 L 92.23600006103516 -106.48899841308591 L 92.16000366210938 -106.36866760253903 L 92.1520004272461 -106.35600280761716 L 92.08499908447266 -106.213996887207 L 92.03700256347656 -106.06400299072263 L 92.00700378417969 -105.90899658203122 M 98.20099639892578 -77.28700256347655 L 98.30400085449219 -77.21238708496092 L 98.3280029296875 -77.1949996948242 L 98.46499633789062 -77.11900329589842 L 98.61100006103516 -77.06099700927733 L 98.75 -77.02533721923827 L 98.76300048828125 -77.02200317382811 L 98.91899871826172 -77.00199890136717 L 99.07599639892578 -77.00199890136717 L 99.23200225830078 -77.02200317382811 L 99.3280029296875 -77.04663085937499 L 99.38400268554688 -77.06099700927733 L 99.52999877929688 -77.11900329589842 L 99.66699981689453 -77.1949996948242 L 99.79399871826172 -77.28700256347655 L 99.90899658203125 -77.39499664306639 L 100.00900268554688 -77.51599884033202 L 100.09300231933594 -77.6490020751953 L 100.16000366210938 -77.79100036621092 L 100.17056274414062 -77.82399749755858 L 100.20800018310547 -77.94100189208983 L 100.23799896240234 -78.09500122070311 L 100.24800109863281 -78.25199890136717 L 100.23799896240234 -78.40899658203124 L 100.20800018310547 -78.56400299072264 L 100.16000366210938 -78.71399688720702 L 100.09300231933594 -78.85600280761717 L 100.00900268554688 -78.98899841308592 L 99.90899658203125 -79.11000061035155 L 99.79399871826172 -79.21800231933592 L 99.66699981689453 -79.30999755859374 L 99.52999877929688 -79.38600158691405 L 99.38400268554688 -79.44400024414061 L 99.3280029296875 -79.45836639404295 L 99.23200225830078 -79.48300170898436 L 99.07599639892578 -79.50299835205077 L 98.91899871826172 -79.50299835205077 L 98.76300048828125 -79.48300170898436 L 98.75 -79.4796676635742 L 98.61100006103516 -79.44400024414061 L 98.46499633789062 -79.38600158691405 L 98.3280029296875 -79.30999755859374 L 98.30400085449219 -79.29261779785155 L 98.20099639892578 -79.21800231933592 L 98.08599853515625 -79.11000061035155 L 97.98600006103516 -78.98899841308592 L 97.9020004272461 -78.85600280761717 L 97.83499908447266 -78.71399688720702 L 97.78700256347656 -78.56400299072264 L 97.75700378417969 -78.40899658203124 L 97.74800109863281 -78.25199890136717 L 97.75700378417969 -78.09500122070311 L 97.78700256347656 -77.94100189208983 L 97.8244400024414 -77.82399749755858 L 97.83499908447266 -77.79100036621092 L 97.9020004272461 -77.6490020751953 L 97.98600006103516 -77.51599884033202 L 98.08599853515625 -77.39499664306639 L 98.20099639892578 -77.28700256347655 M 94.04399871826172 -14.281999588012692 L 94.10150146484375 -14.33600044250488 L 94.15899658203125 -14.39000034332275 L 94.20800018310547 -14.449290275573727 L 94.25900268554688 -14.510999679565426 L 94.34300231933594 -14.644000053405758 L 94.41000366210938 -14.786000251770016 L 94.45800018310547 -14.93599987030029 L 94.48799896240234 -15.09099960327148 L 94.49800109863281 -15.248000144958493 L 94.48799896240234 -15.404999732971188 L 94.45800018310547 -15.559000015258786 L 94.41000366210938 -15.708999633789059 L 94.34300231933594 -15.850999832153317 L 94.25900268554688 -15.984000205993649 L 94.20800018310547 -16.045709609985348 L 94.15899658203125 -16.104999542236325 L 94.04399871826172 -16.212999343872067 L 93.91699981689453 -16.305000305175778 L 93.77999877929688 -16.381000518798825 L 93.77244567871094 -16.38400077819824 L 93.63400268554688 -16.438999176025387 L 93.48200225830078 -16.478000640869137 L 93.32599639892578 -16.497999191284176 L 93.16899871826172 -16.497999191284176 L 93.01300048828125 -16.478000640869137 L 92.86100006103516 -16.438999176025387 L 92.72254943847656 -16.38400077819824 L 92.71499633789062 -16.381000518798825 L 92.5780029296875 -16.305000305175778 L 92.45099639892578 -16.212999343872067 L 92.33599853515625 -16.104999542236325 L 92.23600006103516 -15.984000205993649 L 92.16000366210938 -15.863666534423825 L 92.1520004272461 -15.850999832153317 L 92.08499908447266 -15.708999633789059 L 92.03700256347656 -15.559000015258786 L 92.00700378417969 -15.404999732971188 L 91.99800109863281 -15.248000144958493 L 92.00700378417969 -15.09099960327148 L 92.03700256347656 -14.93599987030029 L 92.08499908447266 -14.786000251770016 L 92.1520004272461 -14.644000053405758 L 92.16000366210938 -14.63133335113525 L 92.23600006103516 -14.510999679565426 L 92.33599853515625 -14.39000034332275 L 92.39350128173828 -14.33600044250488 L 92.45099639892578 -14.281999588012692 L 92.5780029296875 -14.189999580383297 L 92.71499633789062 -14.114000320434567 L 92.86100006103516 -14.055999755859371 L 93.01300048828125 -14.017000198364254 L 93.16899871826172 -13.998000144958493 L 93.32599639892578 -13.998000144958493 L 93.48200225830078 -14.017000198364254 L 93.63400268554688 -14.055999755859371 L 93.77999877929688 -14.114000320434567 L 93.91699981689453 -14.189999580383297 L 94.04399871826172 -14.281999588012692 M 98.24517059326172 -19.249999999999996 L 98.30400085449219 -19.2073860168457 L 98.3280029296875 -19.190000534057614 L 98.46499633789062 -19.114000320434567 L 98.61100006103516 -19.05599975585937 L 98.75 -19.020336151123043 L 98.76300048828125 -19.017000198364254 L 98.91899871826172 -18.997999191284176 L 99.07599639892578 -18.997999191284176 L 99.23200225830078 -19.017000198364254 L 99.3280029296875 -19.041631698608395 L 99.38400268554688 -19.05599975585937 L 99.52999877929688 -19.114000320434567 L 99.66699981689453 -19.190000534057614 L 99.79399871826172 -19.28199958801269 L 99.90899658203125 -19.389999389648434 L 100.00900268554688 -19.510999679565426 L 100.09300231933594 -19.64399909973144 L 100.16000366210938 -19.787000656127926 L 100.20800018310547 -19.936000823974606 L 100.23799896240234 -20.09099960327148 L 100.24800109863281 -20.247999191284176 L 100.23799896240234 -20.405000686645504 L 100.223388671875 -20.479999542236325 L 100.20800018310547 -20.559000015258786 L 100.16000366210938 -20.70899963378906 L 100.09300231933594 -20.850999832153317 L 100.00900268554688 -20.983999252319332 L 99.90899658203125 -21.104999542236325 L 99.79399871826172 -21.212999343872067 L 99.66699981689453 -21.305000305175778 L 99.52999877929688 -21.381000518798825 L 99.38400268554688 -21.438999176025387 L 99.3280029296875 -21.453369140624996 L 99.23200225830078 -21.478000640869137 L 99.07599639892578 -21.497999191284176 L 98.91899871826172 -21.497999191284176 L 98.76300048828125 -21.478000640869137 L 98.75 -21.474664688110348 L 98.61100006103516 -21.438999176025387 L 98.46499633789062 -21.381000518798825 L 98.3280029296875 -21.305000305175778 L 98.30400085449219 -21.28761482238769 L 98.20099639892578 -21.212999343872067 L 98.08599853515625 -21.104999542236325 L 97.98600006103516 -20.983999252319332 L 97.9020004272461 -20.850999832153317 L 97.83499908447266 -20.70899963378906 L 97.78700256347656 -20.559000015258786 L 97.77161407470703 -20.479999542236325 L 97.75700378417969 -20.405000686645504 L 97.74800109863281 -20.247999191284176 L 97.75700378417969 -20.09099960327148 L 97.78700256347656 -19.936000823974606 L 97.83499908447266 -19.787000656127926 L 97.9020004272461 -19.64399909973144 L 97.98600006103516 -19.510999679565426 L 98.08599853515625 -19.389999389648434 L 98.20099639892578 -19.28199958801269 L 98.24517059326172 -19.249999999999996 M 153.60000610351562 93.99351501464842 L 153.6739959716797 94.00299835205077 L 153.83099365234375 94.00299835205077 L 153.98699951171875 93.98300170898436 L 154.13900756835938 93.94400024414061 L 154.28500366210938 93.88600158691405 L 154.4219970703125 93.80999755859374 L 154.5489959716797 93.71800231933592 L 154.66400146484375 93.61000061035155 L 154.76400756835938 93.48899841308592 L 154.84800720214844 93.35600280761717 L 154.9149932861328 93.21399688720702 L 154.9246063232422 93.18399810791014 L 154.96299743652344 93.06400299072264 L 154.9929962158203 92.90899658203124 L 155.0030059814453 92.75199890136717 L 154.9929962158203 92.59500122070311 L 154.96299743652344 92.44100189208983 L 154.9149932861328 92.29100036621092 L 154.8531951904297 92.16000366210936 L 154.84800720214844 92.1490020751953 L 154.76400756835938 92.01599884033202 L 154.66400146484375 91.89499664306639 L 154.5489959716797 91.78700256347655 L 154.4219970703125 91.6949996948242 L 154.28500366210938 91.61900329589842 L 154.13900756835938 91.56099700927733 L 153.98699951171875 91.52200317382811 L 153.83099365234375 91.50199890136717 L 153.6739959716797 91.50199890136717 L 153.60000610351562 91.51148986816405 L 153.51800537109375 91.52200317382811 L 153.36599731445312 91.56099700927733 L 153.22000122070312 91.61900329589842 L 153.08299255371094 91.6949996948242 L 152.95599365234375 91.78700256347655 L 152.84100341796875 91.89499664306639 L 152.74099731445312 92.01599884033202 L 152.65699768066406 92.1490020751953 L 152.6518096923828 92.16000366210936 L 152.58999633789062 92.29100036621092 L 152.54200744628906 92.44100189208983 L 152.51199340820312 92.59500122070311 L 152.5019989013672 92.75199890136717 L 152.51199340820312 92.90899658203124 L 152.54200744628906 93.06400299072264 L 152.5803985595703 93.18399810791014 L 152.58999633789062 93.21399688720702 L 152.65699768066406 93.35600280761717 L 152.74099731445312 93.48899841308592 L 152.84100341796875 93.61000061035155 L 152.95599365234375 93.71800231933592 L 153.08299255371094 93.80999755859374 L 153.22000122070312 93.88600158691405 L 153.36599731445312 93.94400024414061 L 153.51800537109375 93.98300170898436 L 153.60000610351562 93.99351501464842 M 152.51199340820312 2.091000080108642 L 152.5019989013672 2.2479999065399165 L 152.51199340820312 2.40499997138977 L 152.54200744628906 2.5590000152587886 L 152.58999633789062 2.7090001106262203 L 152.65699768066406 2.851000070571899 L 152.74099731445312 2.983999967575073 L 152.84100341796875 3.1050000190734854 L 152.95599365234375 3.2130000591278067 L 153.08299255371094 3.3050000667572013 L 153.22000122070312 3.381000041961669 L 153.36599731445312 3.438999891281127 L 153.51800537109375 3.4779999256134024 L 153.60000610351562 3.4885127544403067 L 153.6739959716797 3.497999906539916 L 153.83099365234375 3.497999906539916 L 153.98699951171875 3.4779999256134024 L 154.13900756835938 3.438999891281127 L 154.28500366210938 3.381000041961669 L 154.4219970703125 3.3050000667572013 L 154.5489959716797 3.2130000591278067 L 154.66400146484375 3.1050000190734854 L 154.69126892089844 3.07200002670288 L 154.76400756835938 2.983999967575073 L 154.84800720214844 2.851000070571899 L 154.9149932861328 2.7090001106262203 L 154.96299743652344 2.5590000152587886 L 154.9929962158203 2.40499997138977 L 155.0030059814453 2.2479999065399165 L 154.9929962158203 2.091000080108642 L 154.98468017578125 2.04800009727478 L 154.96299743652344 1.935999989509582 L 154.9149932861328 1.78600001335144 L 154.84800720214844 1.6440000534057613 L 154.76400756835938 1.511000037193298 L 154.66400146484375 1.3899999856948853 L 154.5489959716797 1.281999945640564 L 154.4219970703125 1.190000057220459 L 154.28500366210938 1.1139999628067017 L 154.13900756835938 1.055999994277954 L 153.98699951171875 1.0169999599456787 L 153.83099365234375 0.9980000257492064 L 153.6739959716797 0.9980000257492064 L 153.60000610351562 1.0070128440856934 L 153.51800537109375 1.0169999599456787 L 153.36599731445312 1.055999994277954 L 153.22000122070312 1.1139999628067017 L 153.08299255371094 1.190000057220459 L 152.95599365234375 1.281999945640564 L 152.84100341796875 1.3899999856948853 L 152.74099731445312 1.511000037193298 L 152.65699768066406 1.6440000534057613 L 152.58999633789062 1.78600001335144 L 152.54200744628906 1.935999989509582 L 152.52032470703125 2.04800009727478 L 152.51199340820312 2.091000080108642 M 92.00700378417969 2.091000080108642 L 91.99800109863281 2.2479999065399165 L 92.00700378417969 2.40499997138977 L 92.03700256347656 2.5590000152587886 L 92.08499908447266 2.7090001106262203 L 92.1520004272461 2.851000070571899 L 92.16000366210938 2.863666772842407 L 92.23600006103516 2.983999967575073 L 92.33599853515625 3.1050000190734854 L 92.45099639892578 3.2130000591278067 L 92.5780029296875 3.3050000667572013 L 92.71499633789062 3.381000041961669 L 92.86100006103516 3.438999891281127 L 93.01300048828125 3.4779999256134024 L 93.16899871826172 3.497999906539916 L 93.18399810791016 3.497999906539916 L 93.32599639892578 3.497999906539916 L 93.48200225830078 3.4779999256134024 L 93.63400268554688 3.438999891281127 L 93.77999877929688 3.381000041961669 L 93.91699981689453 3.3050000667572013 L 94.04399871826172 3.2130000591278067 L 94.15899658203125 3.1050000190734854 L 94.20800018310547 3.045710086822509 L 94.25900268554688 2.983999967575073 L 94.34300231933594 2.851000070571899 L 94.41000366210938 2.7090001106262203 L 94.45800018310547 2.5590000152587886 L 94.48799896240234 2.40499997138977 L 94.49800109863281 2.2479999065399165 L 94.48799896240234 2.091000080108642 L 94.47967529296875 2.04800009727478 L 94.45800018310547 1.935999989509582 L 94.41000366210938 1.78600001335144 L 94.34300231933594 1.6440000534057613 L 94.25900268554688 1.511000037193298 L 94.20800018310547 1.4492900371551514 L 94.15899658203125 1.3899999856948853 L 94.04399871826172 1.281999945640564 L 93.91699981689453 1.190000057220459 L 93.77999877929688 1.1139999628067017 L 93.63400268554688 1.055999994277954 L 93.48200225830078 1.0169999599456787 L 93.32599639892578 0.9980000257492064 L 93.18399810791016 0.9980000257492064 L 93.16899871826172 0.9980000257492064 L 93.01300048828125 1.0169999599456787 L 92.86100006103516 1.055999994277954 L 92.71499633789062 1.1139999628067017 L 92.5780029296875 1.190000057220459 L 92.45099639892578 1.281999945640564 L 92.33599853515625 1.3899999856948853 L 92.23600006103516 1.511000037193298 L 92.16000366210938 1.6313333511352535 L 92.1520004272461 1.6440000534057613 L 92.08499908447266 1.78600001335144 L 92.03700256347656 1.935999989509582 L 92.01531982421875 2.04800009727478 L 92.00700378417969 2.091000080108642 M 72.50299835205078 32.998001098632805 L 65.53600311279297 32.998001098632805 L 32.768001556396484 32.998001098632805 L 7.498000144958496 32.998001098632805 L 7.498000144958496 48.00299835205077 L 32.768001556396484 48.00299835205077 L 65.53600311279297 48.00299835205077 L 71.75 48.00299835205077 L 72.50299835205078 48.00299835205077 L 72.50299835205078 43.74999999999999 L 72.50299835205078 32.998001098632805 M 92.00700378417969 92.59500122070311 L 91.99800109863281 92.75199890136717 L 92.00700378417969 92.90899658203124 L 92.03700256347656 93.06400299072264 L 92.08499908447266 93.21399688720702 L 92.1520004272461 93.35600280761717 L 92.16000366210938 93.36866760253905 L 92.23600006103516 93.48899841308592 L 92.33599853515625 93.61000061035155 L 92.45099639892578 93.71800231933592 L 92.5780029296875 93.80999755859374 L 92.71499633789062 93.88600158691405 L 92.86100006103516 93.94400024414061 L 93.01300048828125 93.98300170898436 L 93.16899871826172 94.00299835205077 L 93.18399810791016 94.00299835205077 L 93.32599639892578 94.00299835205077 L 93.48200225830078 93.98300170898436 L 93.63400268554688 93.94400024414061 L 93.77999877929688 93.88600158691405 L 93.91699981689453 93.80999755859374 L 94.04399871826172 93.71800231933592 L 94.15899658203125 93.61000061035155 L 94.20800018310547 93.5507125854492 L 94.25900268554688 93.48899841308592 L 94.34300231933594 93.35600280761717 L 94.41000366210938 93.21399688720702 L 94.45800018310547 93.06400299072264 L 94.48799896240234 92.90899658203124 L 94.49800109863281 92.75199890136717 L 94.48799896240234 92.59500122070311 L 94.45800018310547 92.44100189208983 L 94.41000366210938 92.29100036621092 L 94.34819030761719 92.16000366210936 L 94.34300231933594 92.1490020751953 L 94.25900268554688 92.01599884033202 L 94.20800018310547 91.95429229736327 L 94.15899658203125 91.89499664306639 L 94.04399871826172 91.78700256347655 L 93.91699981689453 91.6949996948242 L 93.77999877929688 91.61900329589842 L 93.63400268554688 91.56099700927733 L 93.48200225830078 91.52200317382811 L 93.32599639892578 91.50199890136717 L 93.18399810791016 91.50199890136717 L 93.16899871826172 91.50199890136717 L 93.01300048828125 91.52200317382811 L 92.86100006103516 91.56099700927733 L 92.71499633789062 91.61900329589842 L 92.5780029296875 91.6949996948242 L 92.45099639892578 91.78700256347655 L 92.33599853515625 91.89499664306639 L 92.23600006103516 92.01599884033202 L 92.16000366210938 92.13632965087889 L 92.1520004272461 92.1490020751953 L 92.14681243896484 92.16000366210936 L 92.08499908447266 92.29100036621092 L 92.03700256347656 92.44100189208983 L 92.00700378417969 92.59500122070311 M 0.003000000026077032 69.9980010986328 L 0 69.9980010986328 L -3.003000020980835 69.9980010986328 L -3.003000020980835 71.24999999999999 L -3.003000020980835 89.00299835205077 L 0 89.00299835205077 L 0.003000000026077032 89.00299835205077 L 0.003000000026077032 69.9980010986328 M -32.49800109863281 22.497999191284176 L -54.25 22.497999191284176 L -65.53600311279297 22.497999191284176 L -70.75 22.497999191284176 L -87.25 22.497999191284176 L -92.50299835205078 22.497999191284176 L -92.50299835205078 32.76800155639648 L -92.50299835205078 43.74999999999999 L -92.50299835205078 48.50299835205077 L -70.75 48.50299835205077 L -65.53600311279297 48.50299835205077 L -37.75 48.50299835205077 L -32.768001556396484 48.50299835205077 L -32.49800109863281 48.50299835205077 L -32.49800109863281 32.76800155639648 L -32.49800109863281 27.249999999999993 L -32.49800109863281 22.497999191284176 M 68.49800109863281 69.9980010986328 L 68.49800109863281 89.00299835205077 L 71.50299835205078 89.00299835205077 L 71.50299835205078 69.9980010986328 L 68.49800109863281 69.9980010986328 M 3.997999906539917 69.9980010986328 L 3.997999906539917 89.00299835205077 L 7.002999782562256 89.00299835205077 L 7.002999782562256 69.9980010986328 L 3.997999906539917 69.9980010986328 M 22.49799919128418 69.9980010986328 L 22.49799919128418 89.00299835205077 L 25.503000259399414 89.00299835205077 L 25.503000259399414 69.9980010986328 L 22.49799919128418 69.9980010986328 M 29.49799919128418 69.9980010986328 L 29.49799919128418 89.00299835205077 L 32.50199890136719 89.00299835205077 L 32.50199890136719 69.9980010986328 L 29.49799919128418 69.9980010986328 M 36.49800109863281 69.9980010986328 L 36.49800109863281 89.00299835205077 L 39.50299835205078 89.00299835205077 L 39.50299835205078 69.9980010986328 L 36.49800109863281 69.9980010986328 M 54.49800109863281 69.9980010986328 L 54.49800109863281 89.00299835205077 L 57.50299835205078 89.00299835205077 L 57.50299835205078 69.9980010986328 L 54.49800109863281 69.9980010986328 M 61.49800109863281 69.9980010986328 L 61.49800109863281 89.00299835205077 L 64.50299835205078 89.00299835205077 L 64.50299835205078 69.9980010986328 L 61.49800109863281 69.9980010986328 M -10.003000259399414 69.9980010986328 L -10.003000259399414 71.24999999999999 L -10.003000259399414 89.00299835205077 L -6.998000144958496 89.00299835205077 L -6.998000144958496 71.24999999999999 L -6.998000144958496 69.9980010986328 L -10.003000259399414 69.9980010986328 M -50.00299835205078 69.9980010986328 L -50.00299835205078 71.24999999999999 L -50.00299835205078 89.00299835205077 L -46.99800109863281 89.00299835205077 L -46.99800109863281 71.24999999999999 L -46.99800109863281 69.9980010986328 L -50.00299835205078 69.9980010986328 M -64.00299835205078 69.9980010986328 L -64.00299835205078 71.24999999999999 L -64.00299835205078 89.00299835205077 L -60.99800109863281 89.00299835205077 L -60.99800109863281 71.24999999999999 L -60.99800109863281 69.9980010986328 L -64.00299835205078 69.9980010986328 M -57.00299835205078 69.9980010986328 L -57.00299835205078 71.24999999999999 L -57.00299835205078 89.00299835205077 L -54.25 89.00299835205077 L -53.99800109863281 89.00299835205077 L -53.99800109863281 71.24999999999999 L -53.99800109863281 69.9980010986328 L -57.00299835205078 69.9980010986328 M -43.00299835205078 69.9980010986328 L -43.00299835205078 71.24999999999999 L -43.00299835205078 89.00299835205077 L -39.99800109863281 89.00299835205077 L -39.99800109863281 71.24999999999999 L -39.99800109863281 69.9980010986328 L -43.00299835205078 69.9980010986328 M -36.00299835205078 69.9980010986328 L -36.00299835205078 71.24999999999999 L -36.00299835205078 89.00299835205077 L -32.99800109863281 89.00299835205077 L -32.99800109863281 71.24999999999999 L -32.99800109863281 69.9980010986328 L -36.00299835205078 69.9980010986328 M -78.00299835205078 69.9980010986328 L -78.00299835205078 87.74999999999999 L -78.00299835205078 89.00299835205077 L -74.99800109863281 89.00299835205077 L -74.99800109863281 87.74999999999999 L -74.99800109863281 69.9980010986328 L -78.00299835205078 69.9980010986328 M -92.00299835205078 69.9980010986328 L -92.00299835205078 87.74999999999999 L -92.00299835205078 89.00299835205077 L -88.99800109863281 89.00299835205077 L -88.99800109863281 87.74999999999999 L -88.99800109863281 69.9980010986328 L -92.00299835205078 69.9980010986328 M -85.00299835205078 69.9980010986328 L -85.00299835205078 87.74999999999999 L -85.00299835205078 89.00299835205077 L -81.99800109863281 89.00299835205077 L -81.99800109863281 87.74999999999999 L -81.99800109863281 69.9980010986328 L -85.00299835205078 69.9980010986328 M -71.00299835205078 69.9980010986328 L -71.00299835205078 87.74999999999999 L -71.00299835205078 89.00299835205077 L -70.75 89.00299835205077 L -67.99800109863281 89.00299835205077 L -67.99800109863281 87.74999999999999 L -67.99800109863281 69.9980010986328 L -71.00299835205078 69.9980010986328 z" fill="none" stroke="rgb(255,0,0)" stroke-width="0.001mm" />
</svg>