  0
SECTION
  2
HEADER
  9
$ACADVER
  1
AC1014
  9
$HANDSEED
  5
FFFF
  9
$INSUNITS
 70
     4
  9
$MEASUREMENT
 70
     1
  0
ENDSEC
  0
SECTION
  2
TABLES
  0
TABLE
  2
VPORT
  5
8
330
0
100
AcDbSymbolTable
 70
     4
  0
VPORT
  5
2E
330
8
100
AcDbSymbolTableRecord
100
AcDbViewportTableRecord
  2
*ACTIVE
 70
     0
 10
0.0
 20
0.0
 11
1.0
 21
1.0
 12
210.0
 22
148.5
 13
0.0
 23
0.0
 14
10.0
 24
10.0
 15
10.0
 25
10.0
 16
0.0
 26
0.0
 36
1.0
 17
0.0
 27
0.0
 37
0.0
 40
341.0
 41
1.24
 42
50.0
 43
0.0
 44
0.0
 50
0.0
 51
0.0
 71
     0
 72
   100
 73
     1
 74
     3
 75
     0
 76
     0
 77
     0
 78
     0
  0
ENDTAB
  0
TABLE
  2
LTYPE
  5
5
330
0
100
AcDbSymbolTable
 70
     1
  0
LTYPE
  5
14
330
5
100
AcDbSymbolTableRecord
100
AcDbLinetypeTableRecord
  2
BYBLOCK
 70
     0
  3

 72
    65
 73
     0
 40
0.0
  0
LTYPE
  5
15
330
5
100
AcDbSymbolTableRecord
100
AcDbLinetypeTableRecord
  2
BYLAYER
 70
     0
  3

 72
    65
 73
     0
 40
0.0
  0
LTYPE
  5
16
330
5
100
AcDbSymbolTableRecord
100
AcDbLinetypeTableRecord
  2
CONTINUOUS
 70
     0
  3
Solid line
 72
    65
 73
     0
 40
0.0
  0
ENDTAB
  0
TABLE
  2
LAYER
  5
2
100
AcDbSymbolTable
 70
1
  0
LAYER
  5
50
100
AcDbSymbolTableRecord
100
AcDbLayerTableRecord
  2
0
 70
0
  6
CONTINUOUS
  0
ENDTAB
  0
TABLE
  2
STYLE
  5
3
330
0
100
AcDbSymbolTable
 70
     1
  0
STYLE
  5
11
330
3
100
AcDbSymbolTableRecord
100
AcDbTextStyleTableRecord
  2
STANDARD
 70
     0
 40
0.0
 41
1.0
 50
0.0
 71
     0
 42
2.5
  3
txt
  4

  0
ENDTAB
  0
TABLE
  2
VIEW
  5
6
330
0
100
AcDbSymbolTable
 70
     0
  0
ENDTAB
  0
TABLE
  2
UCS
  5
7
330
0
100
AcDbSymbolTable
 70
     0
  0
ENDTAB
  0
TABLE
  2
APPID
  5
9
330
0
100
AcDbSymbolTable
 70
     2
  0
APPID
  5
12
330
9
100
AcDbSymbolTableRecord
100
AcDbRegAppTableRecord
  2
ACAD
 70
     0
  0
ENDTAB
  0
TABLE
  2
DIMSTYLE
  5
A
330
0
100
AcDbSymbolTable
 70
     1
  0
DIMSTYLE
105
27
330
A
100
AcDbSymbolTableRecord
100
AcDbDimStyleTableRecord
  2
ISO-25
 70
     0
  3

  4

  5

  6

  7

 40
1.0
 41
2.5
 42
0.625
 43
3.75
 44
1.25
 45
0.0
 46
0.0
 47
0.0
 48
0.0
140
2.5
141
2.5
142
0.0
143
0.03937007874016
144
1.0
145
0.0
146
1.0
147
0.625
 71
     0
 72
     0
 73
     0
 74
     0
 75
     0
 76
     0
 77
     1
 78
     8
170
     0
171
     3
172
     1
173
     0
174
     0
175
     0
176
     0
177
     0
178
     0
270
     2
271
     2
272
     2
273
     2
274
     3
340
11
275
     0
280
     0
281
     0
282
     0
283
     0
284
     8
285
     0
286
     0
287
     3
288
     0
  0
ENDTAB
  0
TABLE
  2
BLOCK_RECORD
  5
1
330
0
100
AcDbSymbolTable
 70
     1
  0
BLOCK_RECORD
  5
1F
330
1
100
AcDbSymbolTableRecord
100
AcDbBlockTableRecord
  2
*MODEL_SPACE
  0
BLOCK_RECORD
  5
1B
330
1
100
AcDbSymbolTableRecord
100
AcDbBlockTableRecord
  2
*PAPER_SPACE
  0
ENDTAB
  0
ENDSEC
  0
SECTION
  2
BLOCKS
  0
BLOCK
  5
20
330
1F
100
AcDbEntity
  8
0
100
AcDbBlockBegin
  2
*MODEL_SPACE
 70
     0
 10
0.0
 20
0.0
 30
0.0
  3
*MODEL_SPACE
  1

  0
ENDBLK
  5
21
330
1F
100
AcDbEntity
  8
0
100
AcDbBlockEnd
  0
BLOCK
  5
1C
330
1B
100
AcDbEntity
 67
     1
  8
0
100
AcDbBlockBegin
  2
*PAPER_SPACE
  1

  0
ENDBLK
  5
1D
330
1B
100
AcDbEntity
 67
     1
  8
0
100
AcDbBlockEnd
  0
ENDSEC
  0
SECTION
  2
ENTITIES
  0
LWPOLYLINE
  5
100
100
AcDbEntity
  8
0
 62
7
100
AcDbPolyline
 90
60
 70
1
 10
158.000000
 20
325.000000
 30
0.0
 10
158.000000
 20
319.501999
 30
0.0
 10
158.000000
 20
316.750000
 30
0.0
 10
161.000000
 20
316.750000
 30
0.0
 10
161.000000
 20
300.250000
 30
0.0
 10
158.000000
 20
300.250000
 30
0.0
 10
158.000000
 20
292.001999
 30
0.0
 10
158.000000
 20
283.750000
 30
0.0
 10
161.000000
 20
283.750000
 30
0.0
 10
161.000000
 20
280.536003
 30
0.0
 10
161.000000
 20
267.250000
 30
0.0
 10
158.000000
 20
267.250000
 30
0.0
 10
158.000000
 20
250.750000
 30
0.0
 10
161.000000
 20
250.750000
 30
0.0
 10
161.000000
 20
234.250000
 30
0.0
 10
158.000000
 20
234.250000
 30
0.0
 10
158.000000
 20
228.998000
 30
0.0
 10
158.000000
 20
226.000000
 30
0.0
 10
152.501999
 20
226.000000
 30
0.0
 10
148.250000
 20
226.000000
 30
0.0
 10
148.250000
 20
223.000000
 30
0.0
 10
146.751999
 20
223.000000
 30
0.0
 10
131.750000
 20
223.000000
 30
0.0
 10
131.750000
 20
226.000000
 30
0.0
 10
131.072006
 20
226.000000
 30
0.0
 10
115.250000
 20
226.000000
 30
0.0
 10
115.250000
 20
223.000000
 30
0.0
 10
98.750000
 20
223.000000
 30
0.0
 10
98.750000
 20
226.000000
 30
0.0
 10
91.998001
 20
226.000000
 30
0.0
 10
89.000000
 20
226.000000
 30
0.0
 10
89.000000
 20
234.250000
 30
0.0
 10
86.000000
 20
234.250000
 30
0.0
 10
86.000000
 20
247.768002
 30
0.0
 10
86.000000
 20
250.750000
 30
0.0
 10
89.000000
 20
250.750000
 30
0.0
 10
89.000000
 20
267.250000
 30
0.0
 10
86.000000
 20
267.250000
 30
0.0
 10
86.000000
 20
280.536003
 30
0.0
 10
86.000000
 20
283.750000
 30
0.0
 10
89.000000
 20
283.750000
 30
0.0
 10
89.000000
 20
300.250000
 30
0.0
 10
86.000000
 20
300.250000
 30
0.0
 10
86.000000
 20
316.750000
 30
0.0
 10
89.000000
 20
316.750000
 30
0.0
 10
89.000000
 20
325.000000
 30
0.0
 10
91.998001
 20
325.000000
 30
0.0
 10
94.498001
 20
325.000000
 30
0.0
 10
98.750000
 20
325.000000
 30
0.0
 10
98.750000
 20
328.000000
 30
0.0
 10
100.248001
 20
328.000000
 30
0.0
 10
115.250000
 20
328.000000
 30
0.0
 10
115.250000
 20
325.000000
 30
0.0
 10
131.072006
 20
325.000000
 30
0.0
 10
131.750000
 20
325.000000
 30
0.0
 10
131.750000
 20
328.000000
 30
0.0
 10
148.250000
 20
328.000000
 30
0.0
 10
148.250000
 20
325.000000
 30
0.0
 10
152.501999
 20
325.000000
 30
0.0
 10
155.003006
 20
325.000000
 30
0.0
  0
LWPOLYLINE
  5
101
100
AcDbEntity
  8
0
 62
7
100
AcDbPolyline
 90
57
 70
1
 10
158.000000
 20
217.000000
 30
0.0
 10
158.000000
 20
215.000000
 30
0.0
 10
158.000000
 20
211.502000
 30
0.0
 10
158.000000
 20
208.750000
 30
0.0
 10
161.000000
 20
208.750000
 30
0.0
 10
161.000000
 20
192.250000
 30
0.0
 10
158.000000
 20
192.250000
 30
0.0
 10
158.000000
 20
175.750000
 30
0.0
 10
161.000000
 20
175.750000
 30
0.0
 10
161.000000
 20
159.250000
 30
0.0
 10
158.000000
 20
159.250000
 30
0.0
 10
158.000000
 20
142.750000
 30
0.0
 10
161.000000
 20
142.750000
 30
0.0
 10
161.000000
 20
126.250000
 30
0.0
 10
158.000000
 20
126.250000
 30
0.0
 10
158.000000
 20
120.997002
 30
0.0
 10
158.000000
 20
118.000000
 30
0.0
 10
152.501999
 20
118.000000
 30
0.0
 10
148.250000
 20
118.000000
 30
0.0
 10
148.250000
 20
115.000000
 30
0.0
 10
131.750000
 20
115.000000
 30
0.0
 10
131.750000
 20
118.000000
 30
0.0
 10
131.072006
 20
118.000000
 30
0.0
 10
115.250000
 20
118.000000
 30
0.0
 10
115.250000
 20
115.000000
 30
0.0
 10
98.750000
 20
115.000000
 30
0.0
 10
98.750000
 20
118.000000
 30
0.0
 10
91.998001
 20
118.000000
 30
0.0
 10
89.000000
 20
118.000000
 30
0.0
 10
89.000000
 20
126.250000
 30
0.0
 10
86.000000
 20
126.250000
 30
0.0
 10
86.000000
 20
127.250000
 30
0.0
 10
86.000000
 20
142.750000
 30
0.0
 10
89.000000
 20
142.750000
 30
0.0
 10
89.000000
 20
149.463997
 30
0.0
 10
89.000000
 20
159.250000
 30
0.0
 10
86.000000
 20
159.250000
 30
0.0
 10
86.000000
 20
175.750000
 30
0.0
 10
89.000000
 20
175.750000
 30
0.0
 10
89.000000
 20
182.231998
 30
0.0
 10
89.000000
 20
192.250000
 30
0.0
 10
86.000000
 20
192.250000
 30
0.0
 10
86.000000
 20
197.000000
 30
0.0
 10
86.000000
 20
200.000000
 30
0.0
 10
86.000000
 20
208.750000
 30
0.0
 10
89.000000
 20
208.750000
 30
0.0
 10
89.000000
 20
215.000000
 30
0.0
 10
89.000000
 20
217.000000
 30
0.0
 10
98.750000
 20
217.000000
 30
0.0
 10
98.750000
 20
220.000000
 30
0.0
 10
115.250000
 20
220.000000
 30
0.0
 10
115.250000
 20
217.000000
 30
0.0
 10
131.072006
 20
217.000000
 30
0.0
 10
131.750000
 20
217.000000
 30
0.0
 10
131.750000
 20
220.000000
 30
0.0
 10
148.250000
 20
220.000000
 30
0.0
 10
148.250000
 20
217.000000
 30
0.0
  0
LWPOLYLINE
  5
102
100
AcDbEntity
  8
0
 62
7
100
AcDbPolyline
 90
49
 70
1
 10
80.000000
 20
200.000000
 30
0.0
 10
80.000000
 20
197.000000
 30
0.0
 10
80.000000
 20
187.750000
 30
0.0
 10
83.000000
 20
187.750000
 30
0.0
 10
83.000000
 20
182.231998
 30
0.0
 10
83.000000
 20
175.750000
 30
0.0
 10
83.000000
 20
171.250000
 30
0.0
 10
80.000000
 20
171.250000
 30
0.0
 10
80.000000
 20
159.000000
 30
0.0
 10
72.502998
 20
159.000000
 30
0.0
 10
71.750000
 20
159.000000
 30
0.0
 10
71.750000
 20
162.000000
 30
0.0
 10
65.536003
 20
162.000000
 30
0.0
 10
55.250000
 20
162.000000
 30
0.0
 10
55.250000
 20
159.000000
 30
0.0
 10
38.750000
 20
159.000000
 30
0.0
 10
38.750000
 20
162.000000
 30
0.0
 10
32.768002
 20
162.000000
 30
0.0
 10
22.250000
 20
162.000000
 30
0.0
 10
22.250000
 20
159.000000
 30
0.0
 10
5.750000
 20
159.000000
 30
0.0
 10
5.750000
 20
162.000000
 30
0.0
 10
0.000000
 20
162.000000
 30
0.0
 10
-10.750000
 20
162.000000
 30
0.0
 10
-10.750000
 20
159.000000
 30
0.0
 10
-19.000000
 20
159.000000
 30
0.0
 10
-19.000000
 20
162.000000
 30
0.0
 10
-19.000000
 20
165.848000
 30
0.0
 10
-19.000000
 20
171.250000
 30
0.0
 10
-22.000000
 20
171.250000
 30
0.0
 10
-22.000000
 20
182.231998
 30
0.0
 10
-22.000000
 20
187.750000
 30
0.0
 10
-19.000000
 20
187.750000
 30
0.0
 10
-19.000000
 20
197.000000
 30
0.0
 10
-19.000000
 20
200.000000
 30
0.0
 10
-10.750000
 20
200.000000
 30
0.0
 10
-10.750000
 20
197.000000
 30
0.0
 10
0.000000
 20
197.000000
 30
0.0
 10
5.750000
 20
197.000000
 30
0.0
 10
5.750000
 20
200.000000
 30
0.0
 10
22.250000
 20
200.000000
 30
0.0
 10
22.250000
 20
197.000000
 30
0.0
 10
38.750000
 20
197.000000
 30
0.0
 10
38.750000
 20
200.000000
 30
0.0
 10
55.250000
 20
200.000000
 30
0.0
 10
55.250000
 20
197.000000
 30
0.0
 10
65.536003
 20
197.000000
 30
0.0
 10
71.750000
 20
197.000000
 30
0.0
 10
71.750000
 20
200.000000
 30
0.0
  0
LWPOLYLINE
  5
103
100
AcDbEntity
  8
0
 62
7
100
AcDbPolyline
 90
61
 70
1
 10
71.750000
 20
156.000000
 30
0.0
 10
80.000000
 20
156.000000
 30
0.0
 10
80.000000
 20
149.463997
 30
0.0
 10
80.000000
 20
143.750000
 30
0.0
 10
83.000000
 20
143.750000
 30
0.0
 10
83.000000
 20
142.750000
 30
0.0
 10
83.000000
 20
127.250000
 30
0.0
 10
80.000000
 20
127.250000
 30
0.0
 10
80.000000
 20
126.250000
 30
0.0
 10
80.000000
 20
118.000000
 30
0.0
 10
80.000000
 20
115.000000
 30
0.0
 10
71.750000
 20
115.000000
 30
0.0
 10
71.750000
 20
118.000000
 30
0.0
 10
71.502998
 20
118.000000
 30
0.0
 10
68.498001
 20
118.000000
 30
0.0
 10
65.536003
 20
118.000000
 30
0.0
 10
64.502998
 20
118.000000
 30
0.0
 10
61.498001
 20
118.000000
 30
0.0
 10
57.502998
 20
118.000000
 30
0.0
 10
55.250000
 20
118.000000
 30
0.0
 10
55.250000
 20
115.000000
 30
0.0
 10
38.750000
 20
115.000000
 30
0.0
 10
38.750000
 20
118.000000
 30
0.0
 10
36.498001
 20
118.000000
 30
0.0
 10
32.501999
 20
118.000000
 30
0.0
 10
29.497999
 20
118.000000
 30
0.0
 10
25.503000
 20
118.000000
 30
0.0
 10
22.497999
 20
118.000000
 30
0.0
 10
22.250000
 20
118.000000
 30
0.0
 10
22.250000
 20
115.000000
 30
0.0
 10
5.750000
 20
115.000000
 30
0.0
 10
5.750000
 20
118.000000
 30
0.0
 10
3.998000
 20
118.000000
 30
0.0
 10
0.003000
 20
118.000000
 30
0.0
 10
0.000000
 20
118.000000
 30
0.0
 10
-3.003000
 20
118.000000
 30
0.0
 10
-6.998000
 20
118.000000
 30
0.0
 10
-10.003000
 20
118.000000
 30
0.0
 10
-10.750000
 20
118.000000
 30
0.0
 10
-10.750000
 20
115.000000
 30
0.0
 10
-19.000000
 20
115.000000
 30
0.0
 10
-19.000000
 20
127.250000
 30
0.0
 10
-22.000000
 20
127.250000
 30
0.0
 10
-22.000000
 20
143.750000
 30
0.0
 10
-19.000000
 20
143.750000
 30
0.0
 10
-19.000000
 20
149.463997
 30
0.0
 10
-19.000000
 20
156.000000
 30
0.0
 10
-10.750000
 20
156.000000
 30
0.0
 10
-10.750000
 20
153.000000
 30
0.0
 10
0.000000
 20
153.000000
 30
0.0
 10
5.750000
 20
153.000000
 30
0.0
 10
5.750000
 20
156.000000
 30
0.0
 10
22.250000
 20
156.000000
 30
0.0
 10
22.250000
 20
153.000000
 30
0.0
 10
32.768002
 20
153.000000
 30
0.0
 10
38.750000
 20
153.000000
 30
0.0
 10
38.750000
 20
156.000000
 30
0.0
 10
55.250000
 20
156.000000
 30
0.0
 10
55.250000
 20
153.000000
 30
0.0
 10
65.536003
 20
153.000000
 30
0.0
 10
71.750000
 20
153.000000
 30
0.0
  0
LWPOLYLINE
  5
104
100
AcDbEntity
  8
0
 62
7
100
AcDbPolyline
 90
39
 70
1
 10
-25.000000
 20
200.000000
 30
0.0
 10
-25.000000
 20
197.000000
 30
0.0
 10
-25.000000
 20
187.750000
 30
0.0
 10
-28.000000
 20
187.750000
 30
0.0
 10
-28.000000
 20
182.231998
 30
0.0
 10
-28.000000
 20
171.250000
 30
0.0
 10
-25.000000
 20
171.250000
 30
0.0
 10
-25.000000
 20
165.848000
 30
0.0
 10
-25.000000
 20
162.000000
 30
0.0
 10
-25.000000
 20
159.000000
 30
0.0
 10
-32.768002
 20
159.000000
 30
0.0
 10
-37.750000
 20
159.000000
 30
0.0
 10
-37.750000
 20
162.000000
 30
0.0
 10
-54.250000
 20
162.000000
 30
0.0
 10
-54.250000
 20
159.000000
 30
0.0
 10
-65.536003
 20
159.000000
 30
0.0
 10
-70.750000
 20
159.000000
 30
0.0
 10
-70.750000
 20
162.000000
 30
0.0
 10
-87.250000
 20
162.000000
 30
0.0
 10
-87.250000
 20
159.000000
 30
0.0
 10
-100.000000
 20
159.000000
 30
0.0
 10
-100.000000
 20
162.000000
 30
0.0
 10
-100.000000
 20
171.250000
 30
0.0
 10
-97.000000
 20
171.250000
 30
0.0
 10
-97.000000
 20
182.231998
 30
0.0
 10
-97.000000
 20
187.750000
 30
0.0
 10
-100.000000
 20
187.750000
 30
0.0
 10
-100.000000
 20
200.000000
 30
0.0
 10
-97.000000
 20
200.000000
 30
0.0
 10
-92.502998
 20
200.000000
 30
0.0
 10
-87.250000
 20
200.000000
 30
0.0
 10
-87.250000
 20
197.000000
 30
0.0
 10
-70.750000
 20
197.000000
 30
0.0
 10
-70.750000
 20
200.000000
 30
0.0
 10
-65.536003
 20
200.000000
 30
0.0
 10
-54.250000
 20
200.000000
 30
0.0
 10
-54.250000
 20
197.000000
 30
0.0
 10
-37.750000
 20
197.000000
 30
0.0
 10
-37.750000
 20
200.000000
 30
0.0
  0
LWPOLYLINE
  5
105
100
AcDbEntity
  8
0
 62
7
100
AcDbPolyline
 90
51
 70
1
 10
-25.000000
 20
156.000000
 30
0.0
 10
-25.000000
 20
149.463997
 30
0.0
 10
-25.000000
 20
143.750000
 30
0.0
 10
-28.000000
 20
143.750000
 30
0.0
 10
-28.000000
 20
127.250000
 30
0.0
 10
-25.000000
 20
127.250000
 30
0.0
 10
-25.000000
 20
115.000000
 30
0.0
 10
-28.000000
 20
115.000000
 30
0.0
 10
-32.998001
 20
115.000000
 30
0.0
 10
-36.002998
 20
115.000000
 30
0.0
 10
-37.750000
 20
115.000000
 30
0.0
 10
-37.750000
 20
118.000000
 30
0.0
 10
-39.998001
 20
118.000000
 30
0.0
 10
-43.002998
 20
118.000000
 30
0.0
 10
-46.998001
 20
118.000000
 30
0.0
 10
-50.002998
 20
118.000000
 30
0.0
 10
-53.998001
 20
118.000000
 30
0.0
 10
-54.250000
 20
118.000000
 30
0.0
 10
-54.250000
 20
115.000000
 30
0.0
 10
-57.002998
 20
115.000000
 30
0.0
 10
-60.998001
 20
115.000000
 30
0.0
 10
-64.002998
 20
115.000000
 30
0.0
 10
-65.536003
 20
115.000000
 30
0.0
 10
-67.998001
 20
115.000000
 30
0.0
 10
-70.750000
 20
115.000000
 30
0.0
 10
-70.750000
 20
118.000000
 30
0.0
 10
-71.002998
 20
118.000000
 30
0.0
 10
-74.998001
 20
118.000000
 30
0.0
 10
-78.002998
 20
118.000000
 30
0.0
 10
-81.998001
 20
118.000000
 30
0.0
 10
-85.002998
 20
118.000000
 30
0.0
 10
-87.250000
 20
118.000000
 30
0.0
 10
-87.250000
 20
115.000000
 30
0.0
 10
-100.000000
 20
115.000000
 30
0.0
 10
-100.000000
 20
118.000000
 30
0.0
 10
-100.000000
 20
127.250000
 30
0.0
 10
-97.000000
 20
127.250000
 30
0.0
 10
-97.000000
 20
143.750000
 30
0.0
 10
-100.000000
 20
143.750000
 30
0.0
 10
-100.000000
 20
149.463997
 30
0.0
 10
-100.000000
 20
156.000000
 30
0.0
 10
-87.250000
 20
156.000000
 30
0.0
 10
-87.250000
 20
153.000000
 30
0.0
 10
-70.750000
 20
153.000000
 30
0.0
 10
-70.750000
 20
156.000000
 30
0.0
 10
-65.536003
 20
156.000000
 30
0.0
 10
-54.250000
 20
156.000000
 30
0.0
 10
-54.250000
 20
153.000000
 30
0.0
 10
-37.750000
 20
153.000000
 30
0.0
 10
-37.750000
 20
156.000000
 30
0.0
 10
-32.768002
 20
156.000000
 30
0.0
  0
LWPOLYLINE
  5
106
100
AcDbEntity
  8
0
 62
7
100
AcDbPolyline
 90
55
 70
1
 10
147.332993
 20
292.195000
 30
0.0
 10
147.455994
 20
292.126770
 30
0.0
 10
147.470001
 20
292.119003
 30
0.0
 10
147.615997
 20
292.060997
 30
0.0
 10
147.768005
 20
292.022003
 30
0.0
 10
147.923996
 20
292.001999
 30
0.0
 10
148.080994
 20
292.001999
 30
0.0
 10
148.237000
 20
292.022003
 30
0.0
 10
148.389008
 20
292.060997
 30
0.0
 10
148.535004
 20
292.119003
 30
0.0
 10
148.671997
 20
292.195000
 30
0.0
 10
148.798996
 20
292.287003
 30
0.0
 10
148.914001
 20
292.394997
 30
0.0
 10
149.014008
 20
292.515999
 30
0.0
 10
149.098007
 20
292.649002
 30
0.0
 10
149.164993
 20
292.791000
 30
0.0
 10
149.175568
 20
292.823997
 30
0.0
 10
149.212997
 20
292.941002
 30
0.0
 10
149.242996
 20
293.095001
 30
0.0
 10
149.253006
 20
293.251999
 30
0.0
 10
149.242996
 20
293.408997
 30
0.0
 10
149.212997
 20
293.564003
 30
0.0
 10
149.164993
 20
293.713997
 30
0.0
 10
149.098007
 20
293.856003
 30
0.0
 10
149.014008
 20
293.988998
 30
0.0
 10
148.914001
 20
294.110001
 30
0.0
 10
148.798996
 20
294.218002
 30
0.0
 10
148.671997
 20
294.309998
 30
0.0
 10
148.535004
 20
294.386002
 30
0.0
 10
148.479996
 20
294.407852
 30
0.0
 10
148.389008
 20
294.444000
 30
0.0
 10
148.237000
 20
294.483002
 30
0.0
 10
148.080994
 20
294.502998
 30
0.0
 10
147.923996
 20
294.502998
 30
0.0
 10
147.768005
 20
294.483002
 30
0.0
 10
147.615997
 20
294.444000
 30
0.0
 10
147.470001
 20
294.386002
 30
0.0
 10
147.455994
 20
294.378235
 30
0.0
 10
147.332993
 20
294.309998
 30
0.0
 10
147.205994
 20
294.218002
 30
0.0
 10
147.091003
 20
294.110001
 30
0.0
 10
146.990997
 20
293.988998
 30
0.0
 10
146.906998
 20
293.856003
 30
0.0
 10
146.839996
 20
293.713997
 30
0.0
 10
146.792007
 20
293.564003
 30
0.0
 10
146.761993
 20
293.408997
 30
0.0
 10
146.751999
 20
293.251999
 30
0.0
 10
146.761993
 20
293.095001
 30
0.0
 10
146.792007
 20
292.941002
 30
0.0
 10
146.829437
 20
292.823997
 30
0.0
 10
146.839996
 20
292.791000
 30
0.0
 10
146.906998
 20
292.649002
 30
0.0
 10
146.990997
 20
292.515999
 30
0.0
 10
147.091003
 20
292.394997
 30
0.0
 10
147.205994
 20
292.287003
 30
0.0
  0
LWPOLYLINE
  5
107
100
AcDbEntity
  8
0
 62
7
100
AcDbPolyline
 90
55
 70
1
 10
153.518005
 20
319.522003
 30
0.0
 10
153.600006
 20
319.511490
 30
0.0
 10
153.673996
 20
319.501999
 30
0.0
 10
153.830994
 20
319.501999
 30
0.0
 10
153.987000
 20
319.522003
 30
0.0
 10
154.139008
 20
319.560997
 30
0.0
 10
154.285004
 20
319.619003
 30
0.0
 10
154.421997
 20
319.695000
 30
0.0
 10
154.548996
 20
319.787003
 30
0.0
 10
154.664001
 20
319.894997
 30
0.0
 10
154.764008
 20
320.015999
 30
0.0
 10
154.848007
 20
320.149002
 30
0.0
 10
154.914993
 20
320.291000
 30
0.0
 10
154.962997
 20
320.441002
 30
0.0
 10
154.969040
 20
320.472000
 30
0.0
 10
154.992996
 20
320.595001
 30
0.0
 10
155.003006
 20
320.751999
 30
0.0
 10
154.992996
 20
320.908997
 30
0.0
 10
154.962997
 20
321.064003
 30
0.0
 10
154.914993
 20
321.213997
 30
0.0
 10
154.848007
 20
321.356003
 30
0.0
 10
154.764008
 20
321.488998
 30
0.0
 10
154.758209
 20
321.496002
 30
0.0
 10
154.664001
 20
321.610001
 30
0.0
 10
154.548996
 20
321.718002
 30
0.0
 10
154.421997
 20
321.809998
 30
0.0
 10
154.285004
 20
321.886002
 30
0.0
 10
154.139008
 20
321.944000
 30
0.0
 10
153.987000
 20
321.983002
 30
0.0
 10
153.830994
 20
322.002998
 30
0.0
 10
153.673996
 20
322.002998
 30
0.0
 10
153.518005
 20
321.983002
 30
0.0
 10
153.365997
 20
321.944000
 30
0.0
 10
153.220001
 20
321.886002
 30
0.0
 10
153.082993
 20
321.809998
 30
0.0
 10
152.955994
 20
321.718002
 30
0.0
 10
152.841003
 20
321.610001
 30
0.0
 10
152.746780
 20
321.496002
 30
0.0
 10
152.740997
 20
321.488998
 30
0.0
 10
152.656998
 20
321.356003
 30
0.0
 10
152.589996
 20
321.213997
 30
0.0
 10
152.542007
 20
321.064003
 30
0.0
 10
152.511993
 20
320.908997
 30
0.0
 10
152.501999
 20
320.751999
 30
0.0
 10
152.511993
 20
320.595001
 30
0.0
 10
152.535965
 20
320.472000
 30
0.0
 10
152.542007
 20
320.441002
 30
0.0
 10
152.589996
 20
320.291000
 30
0.0
 10
152.656998
 20
320.149002
 30
0.0
 10
152.740997
 20
320.015999
 30
0.0
 10
152.841003
 20
319.894997
 30
0.0
 10
152.955994
 20
319.787003
 30
0.0
 10
153.082993
 20
319.695000
 30
0.0
 10
153.220001
 20
319.619003
 30
0.0
 10
153.365997
 20
319.560997
 30
0.0
  0
LWPOLYLINE
  5
108
100
AcDbEntity
  8
0
 62
7
100
AcDbPolyline
 90
58
 70
1
 10
153.518005
 20
229.017000
 30
0.0
 10
153.600006
 20
229.007012
 30
0.0
 10
153.673996
 20
228.998000
 30
0.0
 10
153.830994
 20
228.998000
 30
0.0
 10
153.987000
 20
229.017000
 30
0.0
 10
154.139008
 20
229.056000
 30
0.0
 10
154.285004
 20
229.114000
 30
0.0
 10
154.421997
 20
229.190000
 30
0.0
 10
154.548996
 20
229.282000
 30
0.0
 10
154.606506
 20
229.336000
 30
0.0
 10
154.664001
 20
229.390000
 30
0.0
 10
154.764008
 20
229.511000
 30
0.0
 10
154.848007
 20
229.644000
 30
0.0
 10
154.914993
 20
229.786000
 30
0.0
 10
154.962997
 20
229.936000
 30
0.0
 10
154.992996
 20
230.091000
 30
0.0
 10
155.003006
 20
230.248000
 30
0.0
 10
154.995865
 20
230.360000
 30
0.0
 10
154.992996
 20
230.405000
 30
0.0
 10
154.962997
 20
230.559000
 30
0.0
 10
154.914993
 20
230.709000
 30
0.0
 10
154.848007
 20
230.851000
 30
0.0
 10
154.764008
 20
230.984000
 30
0.0
 10
154.664001
 20
231.105000
 30
0.0
 10
154.548996
 20
231.212999
 30
0.0
 10
154.421997
 20
231.305000
 30
0.0
 10
154.285004
 20
231.381001
 30
0.0
 10
154.277451
 20
231.384001
 30
0.0
 10
154.139008
 20
231.438999
 30
0.0
 10
153.987000
 20
231.478001
 30
0.0
 10
153.830994
 20
231.497999
 30
0.0
 10
153.673996
 20
231.497999
 30
0.0
 10
153.600006
 20
231.488512
 30
0.0
 10
153.518005
 20
231.478001
 30
0.0
 10
153.365997
 20
231.438999
 30
0.0
 10
153.227554
 20
231.384001
 30
0.0
 10
153.220001
 20
231.381001
 30
0.0
 10
153.082993
 20
231.305000
 30
0.0
 10
152.955994
 20
231.212999
 30
0.0
 10
152.841003
 20
231.105000
 30
0.0
 10
152.740997
 20
230.984000
 30
0.0
 10
152.656998
 20
230.851000
 30
0.0
 10
152.589996
 20
230.709000
 30
0.0
 10
152.542007
 20
230.559000
 30
0.0
 10
152.511993
 20
230.405000
 30
0.0
 10
152.509140
 20
230.360000
 30
0.0
 10
152.501999
 20
230.248000
 30
0.0
 10
152.511993
 20
230.091000
 30
0.0
 10
152.542007
 20
229.936000
 30
0.0
 10
152.589996
 20
229.786000
 30
0.0
 10
152.656998
 20
229.644000
 30
0.0
 10
152.740997
 20
229.511000
 30
0.0
 10
152.841003
 20
229.390000
 30
0.0
 10
152.898499
 20
229.336000
 30
0.0
 10
152.955994
 20
229.282000
 30
0.0
 10
153.082993
 20
229.190000
 30
0.0
 10
153.220001
 20
229.114000
 30
0.0
 10
153.365997
 20
229.056000
 30
0.0
  0
LWPOLYLINE
  5
109
100
AcDbEntity
  8
0
 62
7
100
AcDbPolyline
 90
59
 70
1
 10
148.250000
 20
234.020336
 30
0.0
 10
148.389008
 20
234.056000
 30
0.0
 10
148.479996
 20
234.092150
 30
0.0
 10
148.535004
 20
234.114000
 30
0.0
 10
148.671997
 20
234.190001
 30
0.0
 10
148.754822
 20
234.250000
 30
0.0
 10
148.798996
 20
234.282000
 30
0.0
 10
148.914001
 20
234.389999
 30
0.0
 10
149.014008
 20
234.511000
 30
0.0
 10
149.098007
 20
234.643999
 30
0.0
 10
149.164993
 20
234.787001
 30
0.0
 10
149.212997
 20
234.936001
 30
0.0
 10
149.242996
 20
235.091000
 30
0.0
 10
149.253006
 20
235.247999
 30
0.0
 10
149.242996
 20
235.405001
 30
0.0
 10
149.228394
 20
235.480000
 30
0.0
 10
149.212997
 20
235.559000
 30
0.0
 10
149.164993
 20
235.709000
 30
0.0
 10
149.098007
 20
235.851000
 30
0.0
 10
149.014008
 20
235.983999
 30
0.0
 10
148.914001
 20
236.105000
 30
0.0
 10
148.798996
 20
236.212999
 30
0.0
 10
148.671997
 20
236.305000
 30
0.0
 10
148.535004
 20
236.381001
 30
0.0
 10
148.479996
 20
236.402849
 30
0.0
 10
148.389008
 20
236.438999
 30
0.0
 10
148.250000
 20
236.474665
 30
0.0
 10
148.237000
 20
236.478001
 30
0.0
 10
148.080994
 20
236.497999
 30
0.0
 10
147.923996
 20
236.497999
 30
0.0
 10
147.768005
 20
236.478001
 30
0.0
 10
147.615997
 20
236.438999
 30
0.0
 10
147.470001
 20
236.381001
 30
0.0
 10
147.455994
 20
236.373234
 30
0.0
 10
147.332993
 20
236.305000
 30
0.0
 10
147.205994
 20
236.212999
 30
0.0
 10
147.091003
 20
236.105000
 30
0.0
 10
146.990997
 20
235.983999
 30
0.0
 10
146.906998
 20
235.851000
 30
0.0
 10
146.839996
 20
235.709000
 30
0.0
 10
146.792007
 20
235.559000
 30
0.0
 10
146.776611
 20
235.480000
 30
0.0
 10
146.761993
 20
235.405001
 30
0.0
 10
146.751999
 20
235.247999
 30
0.0
 10
146.761993
 20
235.091000
 30
0.0
 10
146.792007
 20
234.936001
 30
0.0
 10
146.839996
 20
234.787001
 30
0.0
 10
146.906998
 20
234.643999
 30
0.0
 10
146.990997
 20
234.511000
 30
0.0
 10
147.091003
 20
234.389999
 30
0.0
 10
147.205994
 20
234.282000
 30
0.0
 10
147.332993
 20
234.190001
 30
0.0
 10
147.455994
 20
234.121767
 30
0.0
 10
147.470001
 20
234.114000
 30
0.0
 10
147.615997
 20
234.056000
 30
0.0
 10
147.768005
 20
234.017000
 30
0.0
 10
147.923996
 20
233.997999
 30
0.0
 10
148.080994
 20
233.997999
 30
0.0
 10
148.237000
 20
234.017000
 30
0.0
  0
LWPOLYLINE
  5
10a
100
AcDbEntity
  8
0
 62
7
100
AcDbPolyline
 90
56
 70
1
 10
92.007004
 20
320.908997
 30
0.0
 10
91.998001
 20
320.751999
 30
0.0
 10
92.007004
 20
320.595001
 30
0.0
 10
92.037003
 20
320.441002
 30
0.0
 10
92.084999
 20
320.291000
 30
0.0
 10
92.152000
 20
320.149002
 30
0.0
 10
92.160004
 20
320.136330
 30
0.0
 10
92.236000
 20
320.015999
 30
0.0
 10
92.335999
 20
319.894997
 30
0.0
 10
92.450996
 20
319.787003
 30
0.0
 10
92.578003
 20
319.695000
 30
0.0
 10
92.714996
 20
319.619003
 30
0.0
 10
92.861000
 20
319.560997
 30
0.0
 10
93.013000
 20
319.522003
 30
0.0
 10
93.168999
 20
319.501999
 30
0.0
 10
93.183998
 20
319.501999
 30
0.0
 10
93.325996
 20
319.501999
 30
0.0
 10
93.482002
 20
319.522003
 30
0.0
 10
93.634003
 20
319.560997
 30
0.0
 10
93.779999
 20
319.619003
 30
0.0
 10
93.917000
 20
319.695000
 30
0.0
 10
94.043999
 20
319.787003
 30
0.0
 10
94.158997
 20
319.894997
 30
0.0
 10
94.208000
 20
319.954292
 30
0.0
 10
94.259003
 20
320.015999
 30
0.0
 10
94.343002
 20
320.149002
 30
0.0
 10
94.410004
 20
320.291000
 30
0.0
 10
94.458000
 20
320.441002
 30
0.0
 10
94.487999
 20
320.595001
 30
0.0
 10
94.498001
 20
320.751999
 30
0.0
 10
94.487999
 20
320.908997
 30
0.0
 10
94.458000
 20
321.064003
 30
0.0
 10
94.410004
 20
321.213997
 30
0.0
 10
94.343002
 20
321.356003
 30
0.0
 10
94.259003
 20
321.488998
 30
0.0
 10
94.253212
 20
321.496002
 30
0.0
 10
94.158997
 20
321.610001
 30
0.0
 10
94.043999
 20
321.718002
 30
0.0
 10
93.917000
 20
321.809998
 30
0.0
 10
93.779999
 20
321.886002
 30
0.0
 10
93.634003
 20
321.944000
 30
0.0
 10
93.482002
 20
321.983002
 30
0.0
 10
93.325996
 20
322.002998
 30
0.0
 10
93.168999
 20
322.002998
 30
0.0
 10
93.013000
 20
321.983002
 30
0.0
 10
92.861000
 20
321.944000
 30
0.0
 10
92.714996
 20
321.886002
 30
0.0
 10
92.578003
 20
321.809998
 30
0.0
 10
92.450996
 20
321.718002
 30
0.0
 10
92.335999
 20
321.610001
 30
0.0
 10
92.241783
 20
321.496002
 30
0.0
 10
92.236000
 20
321.488998
 30
0.0
 10
92.160004
 20
321.368668
 30
0.0
 10
92.152000
 20
321.356003
 30
0.0
 10
92.084999
 20
321.213997
 30
0.0
 10
92.037003
 20
321.064003
 30
0.0
  0
LWPOLYLINE
  5
10b
100
AcDbEntity
  8
0
 62
7
100
AcDbPolyline
 90
58
 70
1
 10
98.200996
 20
292.287003
 30
0.0
 10
98.304001
 20
292.212387
 30
0.0
 10
98.328003
 20
292.195000
 30
0.0
 10
98.464996
 20
292.119003
 30
0.0
 10
98.611000
 20
292.060997
 30
0.0
 10
98.750000
 20
292.025337
 30
0.0
 10
98.763000
 20
292.022003
 30
0.0
 10
98.918999
 20
292.001999
 30
0.0
 10
99.075996
 20
292.001999
 30
0.0
 10
99.232002
 20
292.022003
 30
0.0
 10
99.328003
 20
292.046631
 30
0.0
 10
99.384003
 20
292.060997
 30
0.0
 10
99.529999
 20
292.119003
 30
0.0
 10
99.667000
 20
292.195000
 30
0.0
 10
99.793999
 20
292.287003
 30
0.0
 10
99.908997
 20
292.394997
 30
0.0
 10
100.009003
 20
292.515999
 30
0.0
 10
100.093002
 20
292.649002
 30
0.0
 10
100.160004
 20
292.791000
 30
0.0
 10
100.170563
 20
292.823997
 30
0.0
 10
100.208000
 20
292.941002
 30
0.0
 10
100.237999
 20
293.095001
 30
0.0
 10
100.248001
 20
293.251999
 30
0.0
 10
100.237999
 20
293.408997
 30
0.0
 10
100.208000
 20
293.564003
 30
0.0
 10
100.160004
 20
293.713997
 30
0.0
 10
100.093002
 20
293.856003
 30
0.0
 10
100.009003
 20
293.988998
 30
0.0
 10
99.908997
 20
294.110001
 30
0.0
 10
99.793999
 20
294.218002
 30
0.0
 10
99.667000
 20
294.309998
 30
0.0
 10
99.529999
 20
294.386002
 30
0.0
 10
99.384003
 20
294.444000
 30
0.0
 10
99.328003
 20
294.458366
 30
0.0
 10
99.232002
 20
294.483002
 30
0.0
 10
99.075996
 20
294.502998
 30
0.0
 10
98.918999
 20
294.502998
 30
0.0
 10
98.763000
 20
294.483002
 30
0.0
 10
98.750000
 20
294.479668
 30
0.0
 10
98.611000
 20
294.444000
 30
0.0
 10
98.464996
 20
294.386002
 30
0.0
 10
98.328003
 20
294.309998
 30
0.0
 10
98.304001
 20
294.292618
 30
0.0
 10
98.200996
 20
294.218002
 30
0.0
 10
98.085999
 20
294.110001
 30
0.0
 10
97.986000
 20
293.988998
 30
0.0
 10
97.902000
 20
293.856003
 30
0.0
 10
97.834999
 20
293.713997
 30
0.0
 10
97.787003
 20
293.564003
 30
0.0
 10
97.757004
 20
293.408997
 30
0.0
 10
97.748001
 20
293.251999
 30
0.0
 10
97.757004
 20
293.095001
 30
0.0
 10
97.787003
 20
292.941002
 30
0.0
 10
97.824440
 20
292.823997
 30
0.0
 10
97.834999
 20
292.791000
 30
0.0
 10
97.902000
 20
292.649002
 30
0.0
 10
97.986000
 20
292.515999
 30
0.0
 10
98.085999
 20
292.394997
 30
0.0
  0
LWPOLYLINE
  5
10c
100
AcDbEntity
  8
0
 62
7
100
AcDbPolyline
 90
58
 70
1
 10
94.043999
 20
229.282000
 30
0.0
 10
94.101501
 20
229.336000
 30
0.0
 10
94.158997
 20
229.390000
 30
0.0
 10
94.208000
 20
229.449290
 30
0.0
 10
94.259003
 20
229.511000
 30
0.0
 10
94.343002
 20
229.644000
 30
0.0
 10
94.410004
 20
229.786000
 30
0.0
 10
94.458000
 20
229.936000
 30
0.0
 10
94.487999
 20
230.091000
 30
0.0
 10
94.498001
 20
230.248000
 30
0.0
 10
94.487999
 20
230.405000
 30
0.0
 10
94.458000
 20
230.559000
 30
0.0
 10
94.410004
 20
230.709000
 30
0.0
 10
94.343002
 20
230.851000
 30
0.0
 10
94.259003
 20
230.984000
 30
0.0
 10
94.208000
 20
231.045710
 30
0.0
 10
94.158997
 20
231.105000
 30
0.0
 10
94.043999
 20
231.212999
 30
0.0
 10
93.917000
 20
231.305000
 30
0.0
 10
93.779999
 20
231.381001
 30
0.0
 10
93.772446
 20
231.384001
 30
0.0
 10
93.634003
 20
231.438999
 30
0.0
 10
93.482002
 20
231.478001
 30
0.0
 10
93.325996
 20
231.497999
 30
0.0
 10
93.168999
 20
231.497999
 30
0.0
 10
93.013000
 20
231.478001
 30
0.0
 10
92.861000
 20
231.438999
 30
0.0
 10
92.722549
 20
231.384001
 30
0.0
 10
92.714996
 20
231.381001
 30
0.0
 10
92.578003
 20
231.305000
 30
0.0
 10
92.450996
 20
231.212999
 30
0.0
 10
92.335999
 20
231.105000
 30
0.0
 10
92.236000
 20
230.984000
 30
0.0
 10
92.160004
 20
230.863667
 30
0.0
 10
92.152000
 20
230.851000
 30
0.0
 10
92.084999
 20
230.709000
 30
0.0
 10
92.037003
 20
230.559000
 30
0.0
 10
92.007004
 20
230.405000
 30
0.0
 10
91.998001
 20
230.248000
 30
0.0
 10
92.007004
 20
230.091000
 30
0.0
 10
92.037003
 20
229.936000
 30
0.0
 10
92.084999
 20
229.786000
 30
0.0
 10
92.152000
 20
229.644000
 30
0.0
 10
92.160004
 20
229.631333
 30
0.0
 10
92.236000
 20
229.511000
 30
0.0
 10
92.335999
 20
229.390000
 30
0.0
 10
92.393501
 20
229.336000
 30
0.0
 10
92.450996
 20
229.282000
 30
0.0
 10
92.578003
 20
229.190000
 30
0.0
 10
92.714996
 20
229.114000
 30
0.0
 10
92.861000
 20
229.056000
 30
0.0
 10
93.013000
 20
229.017000
 30
0.0
 10
93.168999
 20
228.998000
 30
0.0
 10
93.325996
 20
228.998000
 30
0.0
 10
93.482002
 20
229.017000
 30
0.0
 10
93.634003
 20
229.056000
 30
0.0
 10
93.779999
 20
229.114000
 30
0.0
 10
93.917000
 20
229.190000
 30
0.0
  0
LWPOLYLINE
  5
10d
100
AcDbEntity
  8
0
 62
7
100
AcDbPolyline
 90
59
 70
1
 10
98.245171
 20
234.250000
 30
0.0
 10
98.304001
 20
234.207386
 30
0.0
 10
98.328003
 20
234.190001
 30
0.0
 10
98.464996
 20
234.114000
 30
0.0
 10
98.611000
 20
234.056000
 30
0.0
 10
98.750000
 20
234.020336
 30
0.0
 10
98.763000
 20
234.017000
 30
0.0
 10
98.918999
 20
233.997999
 30
0.0
 10
99.075996
 20
233.997999
 30
0.0
 10
99.232002
 20
234.017000
 30
0.0
 10
99.328003
 20
234.041632
 30
0.0
 10
99.384003
 20
234.056000
 30
0.0
 10
99.529999
 20
234.114000
 30
0.0
 10
99.667000
 20
234.190001
 30
0.0
 10
99.793999
 20
234.282000
 30
0.0
 10
99.908997
 20
234.389999
 30
0.0
 10
100.009003
 20
234.511000
 30
0.0
 10
100.093002
 20
234.643999
 30
0.0
 10
100.160004
 20
234.787001
 30
0.0
 10
100.208000
 20
234.936001
 30
0.0
 10
100.237999
 20
235.091000
 30
0.0
 10
100.248001
 20
235.247999
 30
0.0
 10
100.237999
 20
235.405001
 30
0.0
 10
100.223389
 20
235.480000
 30
0.0
 10
100.208000
 20
235.559000
 30
0.0
 10
100.160004
 20
235.709000
 30
0.0
 10
100.093002
 20
235.851000
 30
0.0
 10
100.009003
 20
235.983999
 30
0.0
 10
99.908997
 20
236.105000
 30
0.0
 10
99.793999
 20
236.212999
 30
0.0
 10
99.667000
 20
236.305000
 30
0.0
 10
99.529999
 20
236.381001
 30
0.0
 10
99.384003
 20
236.438999
 30
0.0
 10
99.328003
 20
236.453369
 30
0.0
 10
99.232002
 20
236.478001
 30
0.0
 10
99.075996
 20
236.497999
 30
0.0
 10
98.918999
 20
236.497999
 30
0.0
 10
98.763000
 20
236.478001
 30
0.0
 10
98.750000
 20
236.474665
 30
0.0
 10
98.611000
 20
236.438999
 30
0.0
 10
98.464996
 20
236.381001
 30
0.0
 10
98.328003
 20
236.305000
 30
0.0
 10
98.304001
 20
236.287615
 30
0.0
 10
98.200996
 20
236.212999
 30
0.0
 10
98.085999
 20
236.105000
 30
0.0
 10
97.986000
 20
235.983999
 30
0.0
 10
97.902000
 20
235.851000
 30
0.0
 10
97.834999
 20
235.709000
 30
0.0
 10
97.787003
 20
235.559000
 30
0.0
 10
97.771614
 20
235.480000
 30
0.0
 10
97.757004
 20
235.405001
 30
0.0
 10
97.748001
 20
235.247999
 30
0.0
 10
97.757004
 20
235.091000
 30
0.0
 10
97.787003
 20
234.936001
 30
0.0
 10
97.834999
 20
234.787001
 30
0.0
 10
97.902000
 20
234.643999
 30
0.0
 10
97.986000
 20
234.511000
 30
0.0
 10
98.085999
 20
234.389999
 30
0.0
 10
98.200996
 20
234.282000
 30
0.0
  0
LWPOLYLINE
  5
10e
100
AcDbEntity
  8
0
 62
7
100
AcDbPolyline
 90
56
 70
1
 10
153.600006
 20
121.006485
 30
0.0
 10
153.673996
 20
120.997002
 30
0.0
 10
153.830994
 20
120.997002
 30
0.0
 10
153.987000
 20
121.016998
 30
0.0
 10
154.139008
 20
121.056000
 30
0.0
 10
154.285004
 20
121.113998
 30
0.0
 10
154.421997
 20
121.190002
 30
0.0
 10
154.548996
 20
121.281998
 30
0.0
 10
154.664001
 20
121.389999
 30
0.0
 10
154.764008
 20
121.511002
 30
0.0
 10
154.848007
 20
121.643997
 30
0.0
 10
154.914993
 20
121.786003
 30
0.0
 10
154.924606
 20
121.816002
 30
0.0
 10
154.962997
 20
121.935997
 30
0.0
 10
154.992996
 20
122.091003
 30
0.0
 10
155.003006
 20
122.248001
 30
0.0
 10
154.992996
 20
122.404999
 30
0.0
 10
154.962997
 20
122.558998
 30
0.0
 10
154.914993
 20
122.709000
 30
0.0
 10
154.853195
 20
122.839996
 30
0.0
 10
154.848007
 20
122.850998
 30
0.0
 10
154.764008
 20
122.984001
 30
0.0
 10
154.664001
 20
123.105003
 30
0.0
 10
154.548996
 20
123.212997
 30
0.0
 10
154.421997
 20
123.305000
 30
0.0
 10
154.285004
 20
123.380997
 30
0.0
 10
154.139008
 20
123.439003
 30
0.0
 10
153.987000
 20
123.477997
 30
0.0
 10
153.830994
 20
123.498001
 30
0.0
 10
153.673996
 20
123.498001
 30
0.0
 10
153.600006
 20
123.488510
 30
0.0
 10
153.518005
 20
123.477997
 30
0.0
 10
153.365997
 20
123.439003
 30
0.0
 10
153.220001
 20
123.380997
 30
0.0
 10
153.082993
 20
123.305000
 30
0.0
 10
152.955994
 20
123.212997
 30
0.0
 10
152.841003
 20
123.105003
 30
0.0
 10
152.740997
 20
122.984001
 30
0.0
 10
152.656998
 20
122.850998
 30
0.0
 10
152.651810
 20
122.839996
 30
0.0
 10
152.589996
 20
122.709000
 30
0.0
 10
152.542007
 20
122.558998
 30
0.0
 10
152.511993
 20
122.404999
 30
0.0
 10
152.501999
 20
122.248001
 30
0.0
 10
152.511993
 20
122.091003
 30
0.0
 10
152.542007
 20
121.935997
 30
0.0
 10
152.580399
 20
121.816002
 30
0.0
 10
152.589996
 20
121.786003
 30
0.0
 10
152.656998
 20
121.643997
 30
0.0
 10
152.740997
 20
121.511002
 30
0.0
 10
152.841003
 20
121.389999
 30
0.0
 10
152.955994
 20
121.281998
 30
0.0
 10
153.082993
 20
121.190002
 30
0.0
 10
153.220001
 20
121.113998
 30
0.0
 10
153.365997
 20
121.056000
 30
0.0
 10
153.518005
 20
121.016998
 30
0.0
  0
LWPOLYLINE
  5
10f
100
AcDbEntity
  8
0
 62
7
100
AcDbPolyline
 90
55
 70
1
 10
152.511993
 20
212.909000
 30
0.0
 10
152.501999
 20
212.752000
 30
0.0
 10
152.511993
 20
212.595000
 30
0.0
 10
152.542007
 20
212.441000
 30
0.0
 10
152.589996
 20
212.291000
 30
0.0
 10
152.656998
 20
212.149000
 30
0.0
 10
152.740997
 20
212.016000
 30
0.0
 10
152.841003
 20
211.895000
 30
0.0
 10
152.955994
 20
211.787000
 30
0.0
 10
153.082993
 20
211.695000
 30
0.0
 10
153.220001
 20
211.619000
 30
0.0
 10
153.365997
 20
211.561000
 30
0.0
 10
153.518005
 20
211.522000
 30
0.0
 10
153.600006
 20
211.511487
 30
0.0
 10
153.673996
 20
211.502000
 30
0.0
 10
153.830994
 20
211.502000
 30
0.0
 10
153.987000
 20
211.522000
 30
0.0
 10
154.139008
 20
211.561000
 30
0.0
 10
154.285004
 20
211.619000
 30
0.0
 10
154.421997
 20
211.695000
 30
0.0
 10
154.548996
 20
211.787000
 30
0.0
 10
154.664001
 20
211.895000
 30
0.0
 10
154.691269
 20
211.928000
 30
0.0
 10
154.764008
 20
212.016000
 30
0.0
 10
154.848007
 20
212.149000
 30
0.0
 10
154.914993
 20
212.291000
 30
0.0
 10
154.962997
 20
212.441000
 30
0.0
 10
154.992996
 20
212.595000
 30
0.0
 10
155.003006
 20
212.752000
 30
0.0
 10
154.992996
 20
212.909000
 30
0.0
 10
154.984680
 20
212.952000
 30
0.0
 10
154.962997
 20
213.064000
 30
0.0
 10
154.914993
 20
213.214000
 30
0.0
 10
154.848007
 20
213.356000
 30
0.0
 10
154.764008
 20
213.489000
 30
0.0
 10
154.664001
 20
213.610000
 30
0.0
 10
154.548996
 20
213.718000
 30
0.0
 10
154.421997
 20
213.810000
 30
0.0
 10
154.285004
 20
213.886000
 30
0.0
 10
154.139008
 20
213.944000
 30
0.0
 10
153.987000
 20
213.983000
 30
0.0
 10
153.830994
 20
214.002000
 30
0.0
 10
153.673996
 20
214.002000
 30
0.0
 10
153.600006
 20
213.992987
 30
0.0
 10
153.518005
 20
213.983000
 30
0.0
 10
153.365997
 20
213.944000
 30
0.0
 10
153.220001
 20
213.886000
 30
0.0
 10
153.082993
 20
213.810000
 30
0.0
 10
152.955994
 20
213.718000
 30
0.0
 10
152.841003
 20
213.610000
 30
0.0
 10
152.740997
 20
213.489000
 30
0.0
 10
152.656998
 20
213.356000
 30
0.0
 10
152.589996
 20
213.214000
 30
0.0
 10
152.542007
 20
213.064000
 30
0.0
 10
152.520325
 20
212.952000
 30
0.0
  0
LWPOLYLINE
  5
110
100
AcDbEntity
  8
0
 62
7
100
AcDbPolyline
 90
58
 70
1
 10
92.007004
 20
212.909000
 30
0.0
 10
91.998001
 20
212.752000
 30
0.0
 10
92.007004
 20
212.595000
 30
0.0
 10
92.037003
 20
212.441000
 30
0.0
 10
92.084999
 20
212.291000
 30
0.0
 10
92.152000
 20
212.149000
 30
0.0
 10
92.160004
 20
212.136333
 30
0.0
 10
92.236000
 20
212.016000
 30
0.0
 10
92.335999
 20
211.895000
 30
0.0
 10
92.450996
 20
211.787000
 30
0.0
 10
92.578003
 20
211.695000
 30
0.0
 10
92.714996
 20
211.619000
 30
0.0
 10
92.861000
 20
211.561000
 30
0.0
 10
93.013000
 20
211.522000
 30
0.0
 10
93.168999
 20
211.502000
 30
0.0
 10
93.183998
 20
211.502000
 30
0.0
 10
93.325996
 20
211.502000
 30
0.0
 10
93.482002
 20
211.522000
 30
0.0
 10
93.634003
 20
211.561000
 30
0.0
 10
93.779999
 20
211.619000
 30
0.0
 10
93.917000
 20
211.695000
 30
0.0
 10
94.043999
 20
211.787000
 30
0.0
 10
94.158997
 20
211.895000
 30
0.0
 10
94.208000
 20
211.954290
 30
0.0
 10
94.259003
 20
212.016000
 30
0.0
 10
94.343002
 20
212.149000
 30
0.0
 10
94.410004
 20
212.291000
 30
0.0
 10
94.458000
 20
212.441000
 30
0.0
 10
94.487999
 20
212.595000
 30
0.0
 10
94.498001
 20
212.752000
 30
0.0
 10
94.487999
 20
212.909000
 30
0.0
 10
94.479675
 20
212.952000
 30
0.0
 10
94.458000
 20
213.064000
 30
0.0
 10
94.410004
 20
213.214000
 30
0.0
 10
94.343002
 20
213.356000
 30
0.0
 10
94.259003
 20
213.489000
 30
0.0
 10
94.208000
 20
213.550710
 30
0.0
 10
94.158997
 20
213.610000
 30
0.0
 10
94.043999
 20
213.718000
 30
0.0
 10
93.917000
 20
213.810000
 30
0.0
 10
93.779999
 20
213.886000
 30
0.0
 10
93.634003
 20
213.944000
 30
0.0
 10
93.482002
 20
213.983000
 30
0.0
 10
93.325996
 20
214.002000
 30
0.0
 10
93.183998
 20
214.002000
 30
0.0
 10
93.168999
 20
214.002000
 30
0.0
 10
93.013000
 20
213.983000
 30
0.0
 10
92.861000
 20
213.944000
 30
0.0
 10
92.714996
 20
213.886000
 30
0.0
 10
92.578003
 20
213.810000
 30
0.0
 10
92.450996
 20
213.718000
 30
0.0
 10
92.335999
 20
213.610000
 30
0.0
 10
92.236000
 20
213.489000
 30
0.0
 10
92.160004
 20
213.368667
 30
0.0
 10
92.152000
 20
213.356000
 30
0.0
 10
92.084999
 20
213.214000
 30
0.0
 10
92.037003
 20
213.064000
 30
0.0
 10
92.015320
 20
212.952000
 30
0.0
  0
LWPOLYLINE
  5
111
100
AcDbEntity
  8
0
 62
7
100
AcDbPolyline
 90
10
 70
1
 10
72.502998
 20
182.001999
 30
0.0
 10
65.536003
 20
182.001999
 30
0.0
 10
32.768002
 20
182.001999
 30
0.0
 10
7.498000
 20
182.001999
 30
0.0
 10
7.498000
 20
166.997002
 30
0.0
 10
32.768002
 20
166.997002
 30
0.0
 10
65.536003
 20
166.997002
 30
0.0
 10
71.750000
 20
166.997002
 30
0.0
 10
72.502998
 20
166.997002
 30
0.0
 10
72.502998
 20
171.250000
 30
0.0
  0
LWPOLYLINE
  5
112
100
AcDbEntity
  8
0
 62
7
100
AcDbPolyline
 90
58
 70
1
 10
92.007004
 20
122.404999
 30
0.0
 10
91.998001
 20
122.248001
 30
0.0
 10
92.007004
 20
122.091003
 30
0.0
 10
92.037003
 20
121.935997
 30
0.0
 10
92.084999
 20
121.786003
 30
0.0
 10
92.152000
 20
121.643997
 30
0.0
 10
92.160004
 20
121.631332
 30
0.0
 10
92.236000
 20
121.511002
 30
0.0
 10
92.335999
 20
121.389999
 30
0.0
 10
92.450996
 20
121.281998
 30
0.0
 10
92.578003
 20
121.190002
 30
0.0
 10
92.714996
 20
121.113998
 30
0.0
 10
92.861000
 20
121.056000
 30
0.0
 10
93.013000
 20
121.016998
 30
0.0
 10
93.168999
 20
120.997002
 30
0.0
 10
93.183998
 20
120.997002
 30
0.0
 10
93.325996
 20
120.997002
 30
0.0
 10
93.482002
 20
121.016998
 30
0.0
 10
93.634003
 20
121.056000
 30
0.0
 10
93.779999
 20
121.113998
 30
0.0
 10
93.917000
 20
121.190002
 30
0.0
 10
94.043999
 20
121.281998
 30
0.0
 10
94.158997
 20
121.389999
 30
0.0
 10
94.208000
 20
121.449287
 30
0.0
 10
94.259003
 20
121.511002
 30
0.0
 10
94.343002
 20
121.643997
 30
0.0
 10
94.410004
 20
121.786003
 30
0.0
 10
94.458000
 20
121.935997
 30
0.0
 10
94.487999
 20
122.091003
 30
0.0
 10
94.498001
 20
122.248001
 30
0.0
 10
94.487999
 20
122.404999
 30
0.0
 10
94.458000
 20
122.558998
 30
0.0
 10
94.410004
 20
122.709000
 30
0.0
 10
94.348190
 20
122.839996
 30
0.0
 10
94.343002
 20
122.850998
 30
0.0
 10
94.259003
 20
122.984001
 30
0.0
 10
94.208000
 20
123.045708
 30
0.0
 10
94.158997
 20
123.105003
 30
0.0
 10
94.043999
 20
123.212997
 30
0.0
 10
93.917000
 20
123.305000
 30
0.0
 10
93.779999
 20
123.380997
 30
0.0
 10
93.634003
 20
123.439003
 30
0.0
 10
93.482002
 20
123.477997
 30
0.0
 10
93.325996
 20
123.498001
 30
0.0
 10
93.183998
 20
123.498001
 30
0.0
 10
93.168999
 20
123.498001
 30
0.0
 10
93.013000
 20
123.477997
 30
0.0
 10
92.861000
 20
123.439003
 30
0.0
 10
92.714996
 20
123.380997
 30
0.0
 10
92.578003
 20
123.305000
 30
0.0
 10
92.450996
 20
123.212997
 30
0.0
 10
92.335999
 20
123.105003
 30
0.0
 10
92.236000
 20
122.984001
 30
0.0
 10
92.160004
 20
122.863670
 30
0.0
 10
92.152000
 20
122.850998
 30
0.0
 10
92.146812
 20
122.839996
 30
0.0
 10
92.084999
 20
122.709000
 30
0.0
 10
92.037003
 20
122.558998
 30
0.0
  0
LWPOLYLINE
  5
113
100
AcDbEntity
  8
0
 62
7
100
AcDbPolyline
 90
7
 70
1
 10
0.003000
 20
145.001999
 30
0.0
 10
0.000000
 20
145.001999
 30
0.0
 10
-3.003000
 20
145.001999
 30
0.0
 10
-3.003000
 20
143.750000
 30
0.0
 10
-3.003000
 20
125.997002
 30
0.0
 10
0.000000
 20
125.997002
 30
0.0
 10
0.003000
 20
125.997002
 30
0.0
  0
LWPOLYLINE
  5
114
100
AcDbEntity
  8
0
 62
7
100
AcDbPolyline
 90
16
 70
1
 10
-32.498001
 20
192.502001
 30
0.0
 10
-54.250000
 20
192.502001
 30
0.0
 10
-65.536003
 20
192.502001
 30
0.0
 10
-70.750000
 20
192.502001
 30
0.0
 10
-87.250000
 20
192.502001
 30
0.0
 10
-92.502998
 20
192.502001
 30
0.0
 10
-92.502998
 20
182.231998
 30
0.0
 10
-92.502998
 20
171.250000
 30
0.0
 10
-92.502998
 20
166.497002
 30
0.0
 10
-70.750000
 20
166.497002
 30
0.0
 10
-65.536003
 20
166.497002
 30
0.0
 10
-37.750000
 20
166.497002
 30
0.0
 10
-32.768002
 20
166.497002
 30
0.0
 10
-32.498001
 20
166.497002
 30
0.0
 10
-32.498001
 20
182.231998
 30
0.0
 10
-32.498001
 20
187.750000
 30
0.0
  0
LWPOLYLINE
  5
115
100
AcDbEntity
  8
0
 62
7
100
AcDbPolyline
 90
4
 70
1
 10
68.498001
 20
145.001999
 30
0.0
 10
68.498001
 20
125.997002
 30
0.0
 10
71.502998
 20
125.997002
 30
0.0
 10
71.502998
 20
145.001999
 30
0.0
  0
LWPOLYLINE
  5
116
100
AcDbEntity
  8
0
 62
7
100
AcDbPolyline
 90
4
 70
1
 10
3.998000
 20
145.001999
 30
0.0
 10
3.998000
 20
125.997002
 30
0.0
 10
7.003000
 20
125.997002
 30
0.0
 10
7.003000
 20
145.001999
 30
0.0
  0
LWPOLYLINE
  5
117
100
AcDbEntity
  8
0
 62
7
100
AcDbPolyline
 90
4
 70
1
 10
22.497999
 20
145.001999
 30
0.0
 10
22.497999
 20
125.997002
 30
0.0
 10
25.503000
 20
125.997002
 30
0.0
 10
25.503000
 20
145.001999
 30
0.0
  0
LWPOLYLINE
  5
118
100
AcDbEntity
  8
0
 62
7
100
AcDbPolyline
 90
4
 70
1
 10
29.497999
 20
145.001999
 30
0.0
 10
29.497999
 20
125.997002
 30
0.0
 10
32.501999
 20
125.997002
 30
0.0
 10
32.501999
 20
145.001999
 30
0.0
  0
LWPOLYLINE
  5
119
100
AcDbEntity
  8
0
 62
7
100
AcDbPolyline
 90
4
 70
1
 10
36.498001
 20
145.001999
 30
0.0
 10
36.498001
 20
125.997002
 30
0.0
 10
39.502998
 20
125.997002
 30
0.0
 10
39.502998
 20
145.001999
 30
0.0
  0
LWPOLYLINE
  5
11a
100
AcDbEntity
  8
0
 62
7
100
AcDbPolyline
 90
4
 70
1
 10
54.498001
 20
145.001999
 30
0.0
 10
54.498001
 20
125.997002
 30
0.0
 10
57.502998
 20
125.997002
 30
0.0
 10
57.502998
 20
145.001999
 30
0.0
  0
LWPOLYLINE
  5
11b
100
AcDbEntity
  8
0
 62
7
100
AcDbPolyline
 90
4
 70
1
 10
61.498001
 20
145.001999
 30
0.0
 10
61.498001
 20
125.997002
 30
0.0
 10
64.502998
 20
125.997002
 30
0.0
 10
64.502998
 20
145.001999
 30
0.0
  0
LWPOLYLINE
  5
11c
100
AcDbEntity
  8
0
 62
7
100
AcDbPolyline
 90
6
 70
1
 10
-10.003000
 20
145.001999
 30
0.0
 10
-10.003000
 20
143.750000
 30
0.0
 10
-10.003000
 20
125.997002
 30
0.0
 10
-6.998000
 20
125.997002
 30
0.0
 10
-6.998000
 20
143.750000
 30
0.0
 10
-6.998000
 20
145.001999
 30
0.0
  0
LWPOLYLINE
  5
11d
100
AcDbEntity
  8
0
 62
7
100
AcDbPolyline
 90
6
 70
1
 10
-50.002998
 20
145.001999
 30
0.0
 10
-50.002998
 20
143.750000
 30
0.0
 10
-50.002998
 20
125.997002
 30
0.0
 10
-46.998001
 20
125.997002
 30
0.0
 10
-46.998001
 20
143.750000
 30
0.0
 10
-46.998001
 20
145.001999
 30
0.0
  0
LWPOLYLINE
  5
11e
100
AcDbEntity
  8
0
 62
7
100
AcDbPolyline
 90
6
 70
1
 10
-64.002998
 20
145.001999
 30
0.0
 10
-64.002998
 20
143.750000
 30
0.0
 10
-64.002998
 20
125.997002
 30
0.0
 10
-60.998001
 20
125.997002
 30
0.0
 10
-60.998001
 20
143.750000
 30
0.0
 10
-60.998001
 20
145.001999
 30
0.0
  0
LWPOLYLINE
  5
11f
100
AcDbEntity
  8
0
 62
7
100
AcDbPolyline
 90
7
 70
1
 10
-57.002998
 20
145.001999
 30
0.0
 10
-57.002998
 20
143.750000
 30
0.0
 10
-57.002998
 20
125.997002
 30
0.0
 10
-54.250000
 20
125.997002
 30
0.0
 10
-53.998001
 20
125.997002
 30
0.0
 10
-53.998001
 20
143.750000
 30
0.0
 10
-53.998001
 20
145.001999
 30
0.0
  0
LWPOLYLINE
  5
120
100
AcDbEntity
  8
0
 62
7
100
AcDbPolyline
 90
6
 70
1
 10
-43.002998
 20
145.001999
 30
0.0
 10
-43.002998
 20
143.750000
 30
0.0
 10
-43.002998
 20
125.997002
 30
0.0
 10
-39.998001
 20
125.997002
 30
0.0
 10
-39.998001
 20
143.750000
 30
0.0
 10
-39.998001
 20
145.001999
 30
0.0
  0
LWPOLYLINE
  5
121
100
AcDbEntity
  8
0
 62
7
100
AcDbPolyline
 90
6
 70
1
 10
-36.002998
 20
145.001999
 30
0.0
 10
-36.002998
 20
143.750000
 30
0.0
 10
-36.002998
 20
125.997002
 30
0.0
 10
-32.998001
 20
125.997002
 30
0.0
 10
-32.998001
 20
143.750000
 30
0.0
 10
-32.998001
 20
145.001999
 30
0.0
  0
LWPOLYLINE
  5
122
100
AcDbEntity
  8
0
 62
7
100
AcDbPolyline
 90
6
 70
1
 10
-78.002998
 20
145.001999
 30
0.0
 10
-78.002998
 20
127.250000
 30
0.0
 10
-78.002998
 20
125.997002
 30
0.0
 10
-74.998001
 20
125.997002
 30
0.0
 10
-74.998001
 20
127.250000
 30
0.0
 10
-74.998001
 20
145.001999
 30
0.0
  0
LWPOLYLINE
  5
123
100
AcDbEntity
  8
0
 62
7
100
AcDbPolyline
 90
6
 70
1
 10
-92.002998
 20
145.001999
 30
0.0
 10
-92.002998
 20
127.250000
 30
0.0
 10
-92.002998
 20
125.997002
 30
0.0
 10
-88.998001
 20
125.997002
 30
0.0
 10
-88.998001
 20
127.250000
 30
0.0
 10
-88.998001
 20
145.001999
 30
0.0
  0
LWPOLYLINE
  5
124
100
AcDbEntity
  8
0
 62
7
100
AcDbPolyline
 90
6
 70
1
 10
-85.002998
 20
145.001999
 30
0.0
 10
-85.002998
 20
127.250000
 30
0.0
 10
-85.002998
 20
125.997002
 30
0.0
 10
-81.998001
 20
125.997002
 30
0.0
 10
-81.998001
 20
127.250000
 30
0.0
 10
-81.998001
 20
145.001999
 30
0.0
  0
LWPOLYLINE
  5
125
100
AcDbEntity
  8
0
 62
7
100
AcDbPolyline
 90
8
 70
1
 10
-71.002998
 20
145.001999
 30
0.0
 10
-71.002998
 20
127.250000
 30
0.0
 10
-71.002998
 20
125.997002
 30
0.0
 10
-70.750000
 20
125.997002
 30
0.0
 10
-67.998001
 20
125.997002
 30
0.0
 10
-67.998001
 20
127.250000
 30
0.0
 10
-67.998001
 20
145.001999
 30
0.0
 10
-71.002998
 20
145.001999
 30
0.0
  0
ENDSEC
  0
SECTION
  2
OBJECTS
  0
DICTIONARY
  5
C
330
0
100
AcDbDictionary
  3
ACAD_GROUP
350
D
  3
ACAD_MLINESTYLE
350
17
  0
DICTIONARY
  5
D
330
C
100
AcDbDictionary
  0
DICTIONARY
  5
1A
330
C
100
AcDbDictionary
  0
DICTIONARY
  5
17
330
C
100
AcDbDictionary
  3
STANDARD
350
18
  0
DICTIONARY
  5
19
330
C
100
AcDbDictionary
  0
ENDSEC
  0
EOF
